<svg xmlns="http://www.w3.org/2000/svg" width="34.865" height="29.501" viewBox="0 0 34.865 29.501"><defs><style>.a{fill:#fff;}</style></defs><path class="a" d="M24.436,26.761a3.357,3.357,0,0,1,6.152,0H36.9A1.345,1.345,0,0,1,38.239,28.1h0A1.345,1.345,0,0,1,36.9,29.443H30.588a3.357,3.357,0,0,1-6.152,0H4.716A1.345,1.345,0,0,1,3.375,28.1h0a1.345,1.345,0,0,1,1.341-1.341Z" transform="translate(-3.375 -1.954)"/><path class="a" d="M11.027,17.2a3.357,3.357,0,0,1,6.152,0H36.9a1.345,1.345,0,0,1,1.341,1.341h0A1.345,1.345,0,0,1,36.9,19.881H17.178a3.357,3.357,0,0,1-6.152,0H4.716A1.345,1.345,0,0,1,3.375,18.54h0A1.345,1.345,0,0,1,4.716,17.2Z" transform="translate(-3.375 -3.789)"/><path class="a" d="M24.436,7.636a3.357,3.357,0,0,1,6.152,0H36.9a1.345,1.345,0,0,1,1.341,1.341h0A1.345,1.345,0,0,1,36.9,10.318H30.588a3.357,3.357,0,0,1-6.152,0H4.716A1.345,1.345,0,0,1,3.375,8.977h0A1.345,1.345,0,0,1,4.716,7.636Z" transform="translate(-3.375 -5.625)"/></svg>