<svg xmlns="http://www.w3.org/2000/svg" xmlns:xlink="http://www.w3.org/1999/xlink" width="71.672" height="64.008" viewBox="0 0 71.672 64.008"><defs><style>.a{fill:#b8b5aa;mix-blend-mode:multiply;}.a,.d,.k{isolation:isolate;}.b{fill:#222c36;}.c{fill:#3c4e5e;}.d,.i{opacity:0.5;}.d{mix-blend-mode:screen;fill:url(#a);}.e,.h,.i{fill:#fff;}.e{opacity:0.1;}.f{fill:#e61300;}.g{fill:#ff685a;}.j{fill:#f4493a;}.k{opacity:0.2;mix-blend-mode:color-dodge;}</style><linearGradient id="a" y1="0.5" x2="1" y2="0.5" gradientUnits="objectBoundingBox"><stop offset="0"/><stop offset="0.995" stop-color="#fff"/></linearGradient></defs><g transform="translate(-46.014 -255.04)"><path class="a" d="M103.934,278.421c-19.622-8.755-47.868-10.4-53.693-1.7S41.764,308.5,80.224,315.777c7.917,1.5,33.266,1.631,31.136-5.077-1.837-5.787-34.3-13.411-30.265-19.445,3.266-4.88,27.55,4.92,34.751,3.6C121.683,293.792,111.292,281.7,103.934,278.421Z" transform="translate(0.13 2.43)"/><path class="b" d="M110.23,276.868c.188-4.508-3.688-12.06-14.105-16.758-19.588-8.832-40.8-5.109-46.923,3.383-3.624,5.027-3.221,11.354-3.126,18.978C46.2,292.5,45.2,303.869,71.3,313.2c7.588,2.713,33.356.06,32.254-3.415-1.111-3.5-.823-13.593-.027-15.849a14.191,14.191,0,0,0,4.512.008C112.323,292.973,110.044,281.409,110.23,276.868Z" transform="translate(0 0)"/><path class="c" d="M100.1,309.317c-1.111-3.505-.823-13.593-.027-15.849a14.193,14.193,0,0,0,4.512.008c4.283-.968,2-12.532,2.19-17.073.188-4.508-3.688-12.06-14.105-16.758-1.27-.575-2.548-1.091-3.829-1.561A77.663,77.663,0,0,0,68.675,310.6c0,.806.033,1.6.058,2.4C77.249,315.252,101.159,312.667,100.1,309.317Z" transform="translate(3.457 0.465)"/><path class="d" d="M80.136,304.044a62.553,62.553,0,0,0,.634,8.871c9.044-.491,18.245-2.292,17.579-4.4-1.111-3.5-.823-13.593-.027-15.849a14.191,14.191,0,0,0,4.512.008c4.283-.968,2-12.532,2.19-17.073.136-3.247-1.853-8.069-6.858-12.27C87.444,271.068,80.136,286.392,80.136,304.044Z" transform="translate(5.206 1.265)"/><path class="d" d="M90.285,303.12a65.1,65.1,0,0,0,.43,7.481c3.874-.8,6.449-1.86,6.086-3.008-1.111-3.5-.823-13.593-.027-15.849a14.191,14.191,0,0,0,4.512.008c4.283-.968,2-12.532,2.19-17.073a11.578,11.578,0,0,0-1.262-5.289C95.125,275.741,90.285,288.457,90.285,303.12Z" transform="translate(6.754 2.189)"/><path class="e" d="M55.542,265.017c-4.124.006-7.447,12.118-7.422,27.054,0,1.268.045,2.53.119,3.783,2.115,4.07,6.079,8.1,13.5,11.887.252-4.625.29-10.01.282-15.489C61.992,277.314,59.668,265.009,55.542,265.017Z" transform="translate(0.321 1.522)"/><path class="f" d="M106.833,274.689s-34.239-14.329-43.1-7.889c-4.428,3.218-2.39,17.884,1.375,21.859,6.238,6.589,35.925,4.237,36.1,3.734a14.191,14.191,0,0,0,4.512.008,2.312,2.312,0,0,0,1.112-.614Z" transform="translate(2.319 1.54)"/><path class="g" d="M96.035,261.107c-19.621-8.756-40.382-6.293-46.207,2.408S43.406,286.863,71.21,296.8c7.588,2.711,33.356.059,32.254-3.416-1.834-5.788-34.306-13.411-30.267-19.445,3.268-4.881,27.612,5.214,34.753,3.6C112.234,276.578,103.4,264.388,96.035,261.107Z" transform="translate(0.09 0.091)"/><path class="h" d="M69.258,271.053c.365-1.275-.9-2.753-2.823-3.3s-3.779.036-4.143,1.31.9,2.752,2.823,3.3S68.894,272.327,69.258,271.053Z" transform="translate(2.474 1.907)"/><path class="h" d="M50.239,286.854c.31,0,.546-1.161.53-2.583s-.28-2.574-.589-2.57-.545,1.159-.529,2.583S49.93,286.856,50.239,286.854Z" transform="translate(0.555 4.067)"/><path class="h" d="M49.882,291.227c.309,0,.553-.582.545-1.294s-.265-1.286-.575-1.283-.552.584-.543,1.3S49.573,291.233,49.882,291.227Z" transform="translate(0.503 5.128)"/><path class="i" d="M61.738,268.37c.15-.521-.367-1.127-1.154-1.352s-1.547.015-1.7.536.367,1.125,1.154,1.352S61.589,268.892,61.738,268.37Z" transform="translate(1.96 1.815)"/><path class="i" d="M57.621,266.707c.1-.358-.252-.776-.8-.931s-1.064.009-1.168.37.251.775.8.93S57.52,267.068,57.621,266.707Z" transform="translate(1.469 1.629)"/><path class="i" d="M54.129,265.447c.085-.3-.21-.644-.658-.772s-.883.007-.968.307.209.641.658.771S54.044,265.744,54.129,265.447Z" transform="translate(0.988 1.463)"/><path class="i" d="M51.22,264.188c.088-.3-.207-.643-.656-.771s-.884.006-.969.305.209.641.659.771S51.137,264.487,51.22,264.188Z" transform="translate(0.544 1.271)"/><path class="i" d="M90.374,284.858c-9.837-4.382-23.07-9.055-20.4-13.037,2.185-3.265,13.795.169,23.384,2.319a52.564,52.564,0,0,0-7.524-2.509c-9.813-2.434-16.487-3.138-17.512-.035s5.446,7.779,14.294,10.977A60.77,60.77,0,0,0,90.374,284.858Z" transform="translate(3.386 2.21)"/><path class="j" d="M64.368,274.263c-5.748-5.548-12.08-8.472-14.938-5.509s-.516,9.857,5.23,15.409,14.993,7.1,17.85,4.141S70.114,279.813,64.368,274.263Z" transform="translate(0.335 1.913)"/><path class="j" d="M67.1,256.691c-6.82.655-12.123,3.555-11.839,6.477s6.035,4.76,12.855,4.105,14.923-1.551,14.644-4.474S73.921,256.035,67.1,256.691Z" transform="translate(1.409 0.241)"/><g class="k" transform="translate(46.745 255.75)"><path class="h" d="M55.048,273.569c2.562-1.762,7.079-.233,9.808.085,2.576.3,5.059.482,7.328-.855.257-.15.254-.651-.091-.7-4.267-.582-8.663-.91-12.972-1.331a8.151,8.151,0,0,0-7.255,2.73,14.541,14.541,0,0,0-2.928,6.46,22,22,0,0,0,2.312,2.991,11.045,11.045,0,0,1-.018-2.669A9.657,9.657,0,0,1,55.048,273.569Z" transform="translate(-46.299 -253.358)"/><path class="h" d="M53.4,269.316c2.463,0,4.744,1.178,7.2.836.282-.039.242-.467,0-.533-5.348-1.466-11.07-3.578-13.794,2.741-.056.13-.1.267-.152.4a15.385,15.385,0,0,0,.8,3.869c.053-.471.108-.942.186-1.41C48.174,272.01,49.79,269.321,53.4,269.316Z" transform="translate(-46.648 -253.763)"/><path class="h" d="M95.115,264.038c.2-.118.409-.2.614-.3-.595-.526-1.2-1.027-1.811-1.486a18.864,18.864,0,0,0-4.049,3c-1.7,1.652-5.157,5.182-6.044,8.341q1.217.284,2.445.576a29.681,29.681,0,0,1,3.984-6.13A19.2,19.2,0,0,1,95.115,264.038Z" transform="translate(-40.976 -254.649)"/><path class="h" d="M75.733,277.527a36.511,36.511,0,0,0-3.148,16.885q1.189.1,2.49.135a19.988,19.988,0,0,1-.468-2.98,43.234,43.234,0,0,1,1.708-13.795c0-.006,0-.007,0-.013-.183-.089-.361-.18-.539-.269C75.763,277.506,75.741,277.506,75.733,277.527Z" transform="translate(-42.705 -252.325)"/><path class="h" d="M62.643,276.195c.424-.081.323-.771-.1-.751-5.014.233-8.28,4.308-9.545,9.067.459.394.946.786,1.456,1.177.028-.256.052-.511.092-.768C55.285,280.346,58,277.062,62.643,276.195Z" transform="translate(-45.68 -252.637)"/><path class="h" d="M83.23,288.217a22.115,22.115,0,0,1-.761-7.532q-.975-.417-1.941-.833c-1.028,4.089.031,9.887,2.377,14.1,1.037-.08,2.064-.176,3.072-.287A20.164,20.164,0,0,1,83.23,288.217Z" transform="translate(-41.539 -251.965)"/><path class="h" d="M84.634,262.021a39.487,39.487,0,0,0-5.583,10.647.256.256,0,0,0,.013.222c.167.032.338.066.507.1a.244.244,0,0,0,.061-.076,71.333,71.333,0,0,1,5.019-8.821,18.655,18.655,0,0,1,4.1-4.314c.055-.043.115-.071.172-.109-.518-.21-1.034-.415-1.552-.61A23.634,23.634,0,0,0,84.634,262.021Z" transform="translate(-41.708 -255.137)"/><path class="h" d="M71.7,274.69c-2.554,2.44-3.913,6.465-5.161,9.575a23.814,23.814,0,0,0-1.735,8.232q1.093.444,2.253.882a30.7,30.7,0,0,1,1.193-8.643,28.887,28.887,0,0,1,4.919-8.944A14.093,14.093,0,0,1,71.7,274.69Z" transform="translate(-43.878 -252.752)"/><path class="h" d="M71.056,255.719q-.783-.045-1.555-.063c-3,5.653-3.158,12.609,2.736,16.893.08.058.175-.038.157-.121-.92-3.848-4.311-6.024-3.528-10.489A23.682,23.682,0,0,1,71.056,255.719Z" transform="translate(-43.473 -255.656)"/><path class="h" d="M91.344,289.643a19.225,19.225,0,0,1-3.533-6.621q-.845-.379-1.72-.76a22,22,0,0,0,3.826,8.481,20.485,20.485,0,0,0,1.255,1.627c.833-.171,1.606-.352,2.31-.543A22.521,22.521,0,0,1,91.344,289.643Z" transform="translate(-40.63 -251.597)"/><path class="h" d="M58.035,288.513a9.006,9.006,0,0,1,3.85-7.645c1.778-1.346,3.9-2.31,5.779-3.508,1.619-1.03,2.83-2.428,4.617-3.231a4.077,4.077,0,0,1-.561-.834c-1.966.081-3.239,1.608-4.834,2.737-2.534,1.793-5.488,2.778-7.893,4.8a10.239,10.239,0,0,0-3.183,6.462c.7.475,1.448.947,2.23,1.413C58.037,288.642,58.035,288.58,58.035,288.513Z" transform="translate(-45.25 -252.965)"/><path class="h" d="M76.055,260.478a26.592,26.592,0,0,0-2.476,11.983c.415.01.845.029,1.3.065a33.882,33.882,0,0,1,2.809-11.094,18.193,18.193,0,0,1,2.987-4.291q-1.3-.309-2.594-.557A32.57,32.57,0,0,0,76.055,260.478Z" transform="translate(-42.543 -255.514)"/><path class="h" d="M99.488,268.027c-.424.039-.84.089-1.239.158a11.033,11.033,0,0,0-7.964,6.269c.711.156,1.41.305,2.093.445a13.4,13.4,0,0,1,6.527-4.344,9.184,9.184,0,0,1,2.049-.341A24.983,24.983,0,0,0,99.488,268.027Z" transform="translate(-39.991 -253.769)"/><path class="h" d="M52.991,259.969a4.644,4.644,0,0,0,2.325,3.234.362.362,0,0,0,.437-.567A6.706,6.706,0,0,1,54,259.328a4.31,4.31,0,0,1-.081-.64c-.375.2-.735.417-1.082.636C52.892,259.555,52.945,259.775,52.991,259.969Z" transform="translate(-45.704 -255.193)"/><path class="h" d="M64.188,255.844a16.4,16.4,0,0,0-.459,8.413c.076.453.829.263.7-.19-.932-3.2.346-5.687,1.526-8.356Q65.057,255.762,64.188,255.844Z" transform="translate(-44.092 -255.648)"/><path class="h" d="M60.192,256.511q-1.189.271-2.3.614a6.806,6.806,0,0,0-.987,5.135c.79,2.866,3.6,4.414,5.936,5.846,2.607,1.6,4.882,4.175,8.1,4.251a.277.277,0,0,0,.073-.542c-4.211-1.467-14.2-7.748-11.755-13.416C59.538,257.752,59.856,257.126,60.192,256.511Z" transform="translate(-45.11 -255.526)"/></g></g></svg>