<svg xmlns="http://www.w3.org/2000/svg" xmlns:xlink="http://www.w3.org/1999/xlink" width="83.097" height="66.115" viewBox="0 0 83.097 66.115"><defs><style>.a{fill:#b8b5aa;mix-blend-mode:multiply;}.a,.d,.g{isolation:isolate;}.b{fill:#9c5723;}.c,.d{fill:#b4703d;}.d,.j{opacity:0.5;}.d,.g{mix-blend-mode:screen;}.e{fill:#e6be8a;}.f{fill:#d6b300;}.g{opacity:0.6;fill:url(#a);}.h{fill:#fff;}.i{fill:#7fa100;}.j,.k{fill:#fcfbe6;}</style><linearGradient id="a" x1="0.309" y1="-0.171" x2="0.776" y2="1.832" gradientUnits="objectBoundingBox"><stop offset="0" stop-color="#fff"/><stop offset="1"/></linearGradient></defs><g transform="translate(-333.965 -343.251)"><path class="a" d="M401.62,406.527c.262-4.673-8.66-8.972-19.927-9.6s-20.614,2.648-20.873,7.32,8.66,8.971,19.928,9.6S401.36,411.2,401.62,406.527Z" transform="translate(-2.284 -4.559)"/><path class="b" d="M361.787,402.78c0,3.294,7.205,5.964,16.092,5.964s16.093-2.67,16.093-5.964-7.2-15.744-16.093-15.744S361.787,399.489,361.787,402.78Z" transform="translate(-2.367 -3.724)"/><path class="c" d="M417.062,358.643c0-8.5-18.6-15.392-41.548-15.392s-41.548,6.891-41.548,15.392,18.6,40.653,41.548,40.653S417.062,367.145,417.062,358.643Z" transform="translate(0)"/><path class="d" d="M338.783,352.511c-2.585,3.393-3.68,7.063-2.755,10.478,2.221,8.205,21.845,36.2,35.683,32.452s16.65-37.82,14.428-46.025a9.813,9.813,0,0,0-2.383-4.174c-2.924-.241-5.96-.373-9.08-.373C359.36,344.868,345.988,347.941,338.783,352.511Z" transform="translate(-0.148 -0.138)"/><path class="e" d="M417.062,358.643c0-8.5-18.6-15.392-41.548-15.392s-41.548,6.891-41.548,15.392,18.6,15.393,41.548,15.393S417.062,367.145,417.062,358.643Z" transform="translate(0)"/><ellipse class="c" cx="38.973" cy="13.419" rx="38.973" ry="13.419" transform="translate(336.541 344.731)"/><path class="f" d="M376.082,372.4c15.5,0,29.218-3.308,35.435-7.942-1.3-6.259-16.99-11.4-35.435-11.4s-34.137,5.138-35.436,11.4C346.863,369.1,360.585,372.4,376.082,372.4Z" transform="translate(-0.568 -0.835)"/><path class="g" d="M346.945,367.83c7.212,2.938,17.929,4.84,29.672,4.84,14.156,0,26.811-2.765,33.639-6.774-4.565-5.581-16.928-9.7-31.038-9.7C363.52,356.191,349.984,361.294,346.945,367.83Z" transform="translate(-1.104 -1.101)"/><path class="h" d="M340.672,367.208c-.318,1.024,3.767,3.21,9.127,4.883s9.965,2.2,10.284,1.176-4.345-1.355-9.706-3.028S340.992,366.185,340.672,367.208Z" transform="translate(-0.569 -2.017)"/><path class="h" d="M351.49,379.955c-1.414-2.105-3.06-3.479-3.672-3.067s.038,2.452,1.453,4.557,3.059,3.479,3.672,3.067S352.906,382.059,351.49,379.955Z" transform="translate(-1.159 -2.855)"/><path class="h" d="M356.6,387.8c-.837-.685-1.764-.938-2.069-.565s.126,1.232.963,1.917,1.762.935,2.068.562S357.44,388.484,356.6,387.8Z" transform="translate(-1.741 -3.727)"/><path class="h" d="M365.82,405.206c-.894-.608-1.84-.776-2.11-.377s.236,1.216,1.131,1.823,1.841.772,2.111.374S366.716,405.811,365.82,405.206Z" transform="translate(-2.524 -5.219)"/><g transform="translate(344.874 354.611)"><path class="i" d="M386.2,359.036c-1.4.358-2.433,1.086-2.3,1.625s1.39.684,2.8.325,2.433-1.088,2.3-1.626S387.61,358.676,386.2,359.036Zm.365,1.424c-1.087.278-2.04.221-2.129-.128s.718-.857,1.805-1.135,2.041-.22,2.129.129S387.655,360.182,386.569,360.459Z" transform="translate(-349.121 -355.937)"/><path class="i" d="M399.237,363.4c-1.564-.728-3.057-.833-3.338-.233s.764,1.675,2.327,2.4,3.059.832,3.338.233S400.8,364.129,399.237,363.4Zm-.737,1.586c-1.209-.563-2.043-1.335-1.863-1.722s1.307-.247,2.516.316,2.042,1.334,1.863,1.722S399.707,365.549,398.5,364.987Z" transform="translate(-350.138 -356.272)"/><path class="i" d="M370.051,366.039c-1.062.062-1.909.577-1.892,1.15s.892.986,1.954.924,1.909-.577,1.892-1.149S371.114,365.977,370.051,366.039Zm.045,1.515c-.82.048-1.5-.213-1.506-.584s.646-.712,1.467-.759,1.5.214,1.507.584S370.918,367.506,370.1,367.555Z" transform="translate(-347.782 -356.549)"/><path class="i" d="M368.726,359.783c-.048.039-.093.081-.144.118.354.312.539.607.447.79-.162.324-1.114.177-2.124-.329-.079-.039-.151-.081-.227-.123a2.329,2.329,0,0,1-1.643-1.706.508.508,0,0,0-.286.225c-.252.5.6,1.438,1.912,2.092s2.568.78,2.82.279C369.646,360.8,369.329,360.284,368.726,359.783Z" transform="translate(-347.488 -355.911)"/><path class="i" d="M358.17,363.571c-.92-.527-1.83-.668-2.032-.316s.381,1.067,1.3,1.594,1.831.668,2.033.315S359.09,364.1,358.17,363.571Zm-.534.934c-.712-.409-1.182-.924-1.05-1.152s.813-.083,1.524.324,1.183.924,1.051,1.152S358.348,364.912,357.636,364.5Z" transform="translate(-346.756 -356.296)"/><path class="i" d="M347.184,364.526c-.846.374-1.417.941-1.274,1.266s.946.283,1.792-.091,1.417-.941,1.275-1.265S348.029,364.152,347.184,364.526Zm.379.858c-.653.29-1.26.354-1.354.144s.363-.615,1.018-.9,1.261-.354,1.353-.143S348.218,365.1,347.562,365.384Z" transform="translate(-345.888 -356.394)"/><path class="i" d="M377.244,356.89c-.061.032-.12.064-.185.094-.885.417-1.712.523-1.845.239s.477-.853,1.362-1.268c.113-.053.225-.1.334-.144-.007-.049-.021-.1-.028-.145-.122.048-.244.1-.368.156-1.146.539-1.906,1.33-1.7,1.77s1.3.359,2.447-.18c.08-.037.151-.078.226-.117A2.223,2.223,0,0,1,377.244,356.89Z" transform="translate(-348.345 -355.667)"/><path class="i" d="M362.968,369.595c.1.313.1.558-.03.687-.236.23-.827.033-1.512-.445-.387.028-.767.052-1.14.064,1.263,1.117,2.555,1.632,3.042,1.157.292-.282.237-.859-.08-1.551C363.156,369.54,363.062,369.567,362.968,369.595Z" transform="translate(-347.112 -356.844)"/><path class="i" d="M386.616,371.457c-.543.167-.974.173-1.067-.021-.131-.268.442-.812,1.277-1.217s1.618-.515,1.748-.246c.059.124-.041.31-.241.512a1.365,1.365,0,0,1,.19.033,1.27,1.27,0,0,1,.394,0c.177-.238.246-.457.167-.623-.2-.414-1.24-.327-2.319.2s-1.793,1.282-1.593,1.7c.134.28.655.325,1.308.167A1.258,1.258,0,0,1,386.616,371.457Z" transform="translate(-349.226 -356.855)"/><path class="i" d="M395.088,357.285a5.435,5.435,0,0,1-.228.68c-.378.915-.922,1.56-1.217,1.437s-.225-.961.153-1.876a4.863,4.863,0,0,1,.272-.562c-.04-.028-.08-.059-.118-.09a5.7,5.7,0,0,0-.291.595c-.488,1.184-.517,2.295-.062,2.482s1.218-.62,1.705-1.8a5.409,5.409,0,0,0,.294-.939A1.754,1.754,0,0,1,395.088,357.285Z" transform="translate(-349.918 -355.77)"/><path class="i" d="M411.634,365.139c-.063-.229-.291-.393-.631-.493l-.062.016a4.357,4.357,0,0,0-.505.157c.235.057.4.152.436.292.116.424-.861,1.062-2.182,1.426a3.652,3.652,0,0,1-2.458.062,5.532,5.532,0,0,1-.8.165.444.444,0,0,0,.01.078c.181.654,1.711.8,3.422.334S411.813,365.793,411.634,365.139Z" transform="translate(-350.953 -356.431)"/><path class="i" d="M401.619,358.867c-1.443-.013-2.616.425-2.62.98s1.161,1.011,2.6,1.023,2.616-.426,2.62-.979S403.063,358.88,401.619,358.867Zm-.011,1.463c-1.116-.01-2.017-.307-2.015-.667s.91-.64,2.025-.63,2.017.308,2.014.666S402.723,360.34,401.608,360.33Z" transform="translate(-350.405 -355.939)"/><path class="i" d="M388.509,364.773c.817-.671,1.535-.969,1.874-.7.235.187.236.628.063,1.2a4.481,4.481,0,0,1,.926.56c.437-1.126.482-2.052,0-2.431-.632-.5-1.969.083-3.327,1.336C388.2,364.744,388.356,364.757,388.509,364.773Z" transform="translate(-349.474 -356.309)"/><path class="i" d="M383.342,368.008c-.028-.046-.059-.091-.087-.137-1.764.681-3.3.8-3.559.217-.236-.537.726-1.495,2.229-2.3-.058-.092-.117-.184-.175-.275-2.049,1.091-3.333,2.508-2.954,3.368.41.934,2.643.858,5.07-.133A6.237,6.237,0,0,1,383.342,368.008Z" transform="translate(-348.681 -356.504)"/><path class="i" d="M395.782,371.566c-1.324-.629-2.21-1.435-2.02-1.885.206-.493,1.619-.371,3.158.274a8.632,8.632,0,0,1,.943.465c.1-.04.209-.071.315-.107a9.425,9.425,0,0,0-1.162-.586c-1.989-.835-3.86-.894-4.179-.131-.269.638.647,1.647,2.117,2.45A7.633,7.633,0,0,0,395.782,371.566Z" transform="translate(-349.877 -356.806)"/><path class="i" d="M377.064,370.975c-.952-.091-1.752.129-1.787.494s.71.735,1.661.827,1.751-.13,1.787-.494S378.016,371.067,377.064,370.975Zm-.092.964c-.736-.07-1.314-.319-1.29-.556s.636-.37,1.373-.3,1.313.319,1.291.555S377.707,372.011,376.971,371.939Z" transform="translate(-348.388 -356.967)"/></g><g transform="translate(373.207 353.888)"><path class="j" d="M378.743,356.155c1.966-.568,2.34-1.985,7.77-.85s4.92,1.134,2.026,2.693-1.4.714-6.329.566C372.71,358.281,378.743,356.155,378.743,356.155Z" transform="translate(-376.855 -354.877)"/><path class="k" d="M386.309,358.237a5.366,5.366,0,0,1-.716-.078,26.143,26.143,0,0,0-3.329-.283c-4.764-.143-4.954-.751-4.955-.759-.038-.171.709-.661,1.636-.99a7.6,7.6,0,0,0,1.3-.541,5.607,5.607,0,0,1,2.868-.71,16.683,16.683,0,0,1,3.335.417,22.976,22.976,0,0,1,3.816.967,8.952,8.952,0,0,1-1.393.823l-.522.28C387.1,358.041,386.716,358.237,386.309,358.237Z" transform="translate(-376.893 -354.877)"/></g><g transform="translate(356.119 360.48)"><path class="j" d="M376.477,366.854c-3.534,1.051-.984,2.49-10.783.528s-7.394-3.4-6.89-3.7c4.831-2.859,2.35-1.06,11.225-.869C387.144,363.181,376.477,366.854,376.477,366.854Z" transform="translate(-358.179 -362.081)"/><path class="k" d="M372.723,366.769a32.976,32.976,0,0,1-6.845-.949c-5.178-1.036-6.482-1.847-6.8-2.145.038-.027.091-.06.16-.1,1.864-1.1,2.541-1.452,3.15-1.489a6.472,6.472,0,0,1,1.348.154,37.74,37.74,0,0,0,6.307.576c6.857.146,8.512.837,8.892,1.1a8.306,8.306,0,0,1-2.684,1.409,7.716,7.716,0,0,0-2.068.945A2.569,2.569,0,0,1,372.723,366.769Z" transform="translate(-358.255 -362.081)"/></g><g transform="translate(390.479 359.141)"><path class="j" d="M408.628,360.77c-.6-.782-2.669,1.583-6.039,4.16s-7.53,3.775-6.765,4.394c1.178.951,7.805-.012,11.178-2.589S410.4,363.087,408.628,360.77Z" transform="translate(-395.732 -360.618)"/><path class="k" d="M402.636,364.94a55.82,55.82,0,0,1-6.36,3.715c1.447.493,6.844-.685,9.774-2.927,3.009-2.3,3.187-3.233,1.9-4.988C406.955,361.2,405.161,363.011,402.636,364.94Z" transform="translate(-395.779 -360.628)"/></g></g></svg>