<svg xmlns="http://www.w3.org/2000/svg" xmlns:xlink="http://www.w3.org/1999/xlink" width="52.028" height="76.228" viewBox="0 0 52.028 76.228"><defs><style>.a{fill:#ebe0cc;}.b{fill:#fff4de;}.c{fill:#bfac95;}.d{fill:#4f402d;}.e{fill:#d4c7b6;}.f{fill:#66421a;}.g{opacity:0.7;fill:url(#a);}.g,.h,.k,.p,.q,.s{mix-blend-mode:multiply;}.g,.h,.i,.k,.l,.m,.n,.p,.q,.s,.u,.x{isolation:isolate;}.h{fill:url(#b);}.i,.l,.m,.n,.u,.x{mix-blend-mode:overlay;}.i{fill:url(#c);}.j{fill:#dedede;}.k{fill:url(#d);}.l,.t{fill:#fff;}.l,.n{opacity:0.3;}.m{fill:url(#e);}.n,.u{fill:#1d1d1b;}.o{fill:#f5f5f5;}.p{fill:url(#f);}.q{fill:#e8e8d9;opacity:0.4;}.r{fill:#f0f0f0;}.s{fill:url(#g);}.u{opacity:0.1;}.v{fill:#616161;}.w{fill:#e8e8e8;}.x{fill:url(#h);}.y{fill:#c2c2c2;}.z{fill:#ebebeb;}.aa{fill:#a6a6a6;}.ab{fill:#707070;}</style><radialGradient id="a" cx="0.465" cy="-0.45" r="0.674" gradientTransform="translate(-0.209) scale(1.417 1)" gradientUnits="objectBoundingBox"><stop offset="0.438" stop-color="#fff"/><stop offset="0.475" stop-color="#fcf9f8"/><stop offset="0.53" stop-color="#f4eae4"/><stop offset="0.595" stop-color="#e8d2c5"/><stop offset="0.668" stop-color="#d7b199"/><stop offset="0.747" stop-color="#c18661"/><stop offset="0.757" stop-color="#bf815a"/><stop offset="0.764" stop-color="#c18661"/><stop offset="0.856" stop-color="#e2c7b5"/><stop offset="0.922" stop-color="#f7efea"/><stop offset="0.953" stop-color="#fff"/></radialGradient><radialGradient id="b" cx="2.512" cy="0.371" r="1.909" gradientTransform="translate(-0.208) scale(1.417 1)" gradientUnits="objectBoundingBox"><stop offset="0.63" stop-color="#fff"/><stop offset="0.664" stop-color="#faf9f8"/><stop offset="0.711" stop-color="#ece9e4"/><stop offset="0.768" stop-color="#d6cfc5"/><stop offset="0.832" stop-color="#b7aa99"/><stop offset="0.852" stop-color="#ad9e8a"/><stop offset="0.886" stop-color="#cbc2b6"/><stop offset="0.931" stop-color="#f0eeea"/><stop offset="0.953" stop-color="#fff"/></radialGradient><radialGradient id="c" cx="0.351" cy="-0.924" r="2.081" gradientTransform="translate(-0.208) scale(1.417 1)" gradientUnits="objectBoundingBox"><stop offset="0"/><stop offset="1" stop-color="gray"/></radialGradient><radialGradient id="d" cx="1.489" cy="0.654" r="6.126" gradientTransform="translate(0.371) scale(0.259 1)" gradientUnits="objectBoundingBox"><stop offset="0.438" stop-color="#fff"/><stop offset="0.498" stop-color="#f8f8f8"/><stop offset="0.585" stop-color="#e4e4e4"/><stop offset="0.689" stop-color="#c5c5c5"/><stop offset="0.757" stop-color="#adadad"/><stop offset="0.776" stop-color="#b6b6b6"/><stop offset="0.895" stop-color="#eaeaea"/><stop offset="0.953" stop-color="#fff"/></radialGradient><radialGradient id="e" cx="0.992" cy="1.058" r="5.163" gradientTransform="translate(0.398) scale(0.203 1)" gradientUnits="objectBoundingBox"><stop offset="0" stop-color="#fff"/><stop offset="0.142" stop-color="#f8f8f8"/><stop offset="0.344" stop-color="#e5e5e5"/><stop offset="0.583" stop-color="#c6c6c6"/><stop offset="0.848" stop-color="#9b9b9b"/><stop offset="1" stop-color="gray"/></radialGradient><radialGradient id="f" cx="-0.402" cy="0.185" r="3.535" gradientTransform="translate(0.358) scale(0.283 1)" xlink:href="#d"/><radialGradient id="g" cx="0.401" cy="5.434" r="5.828" gradientTransform="translate(0.414) scale(0.172 1)" gradientUnits="objectBoundingBox"><stop offset="0.438" stop-color="#fff"/><stop offset="0.477" stop-color="#f8f8f8"/><stop offset="0.534" stop-color="#e4e4e4"/><stop offset="0.601" stop-color="#c5c5c5"/><stop offset="0.645" stop-color="#adadad"/><stop offset="0.675" stop-color="#b6b6b6"/><stop offset="0.862" stop-color="#eaeaea"/><stop offset="0.953" stop-color="#fff"/></radialGradient><radialGradient id="h" cx="1.15" cy="-1.689" r="4.181" gradientTransform="translate(0.393) scale(0.214 1)" xlink:href="#e"/></defs><g transform="translate(-934 -419)"><g transform="translate(740.062 376.734)"><path class="a" d="M204.729,107.286l.6,6.672c3.668,6.048,25.571,6.048,29.238,0l.6-6.672Z"/><path class="b" d="M236.174,111.03c-3.967,5.947-28.476,5.947-32.443,0l-4.8-52.126h42.047Z"/><path class="c" d="M199.214,73.578l2.978,32.325a2.462,2.462,0,0,0,1.28,1.966,35.761,35.761,0,0,0,32.94.01,2.473,2.473,0,0,0,1.3-1.976l2.978-32.326A70.929,70.929,0,0,1,199.214,73.578Z"/><path class="d" d="M240.692,73.579l-.415,4.474a70.833,70.833,0,0,1-40.647,0l-.416-4.474A70.944,70.944,0,0,0,240.692,73.579Z"/><path class="d" d="M237.894,103.968l-.182,1.935a2.462,2.462,0,0,1-1.3,1.976,35.765,35.765,0,0,1-32.939-.008,2.457,2.457,0,0,1-1.28-1.968l-.18-1.928a2.6,2.6,0,0,0,.529.354,39.666,39.666,0,0,0,34.8.007A2.425,2.425,0,0,0,237.894,103.968Z"/><path class="e" d="M240.69,73.486c0-.275-.406-.512-1-.635l-.1,1.03a70.7,70.7,0,0,1-39.287,0l-.1-1.031c-.592.123-1,.36-1,.635a.293.293,0,0,0,.019.1l-.019,0,.033.343a70.912,70.912,0,0,0,41.412,0l.031-.343-.018.006A.3.3,0,0,0,240.69,73.486Z"/><path class="f" d="M229.14,88.9c-1.054-.746-2.262-1.54-2.55-2.7-.922.39-1.292,1.5-1.1,3.086.024,2.492,5.44,7.943,7.925,5.08A10.209,10.209,0,0,0,229.14,88.9Z"/><path class="f" d="M229.006,86.261a5.044,5.044,0,0,0-1.872-.2c.271,1.081,1.6,1.75,2.463,2.4a21.075,21.075,0,0,1,2.61,2.229,8.672,8.672,0,0,1,1.714,2.627,4.911,4.911,0,0,0,.162-1.178C234.124,89.208,231.87,86.992,229.006,86.261Z"/><path class="f" d="M223.889,96.364c-.688,2.609,4.059,4.257,5.363,6.247C231.014,99.947,226.616,96.151,223.889,96.364Z"/><path class="f" d="M224.844,99.775c-1.091-.974-1.817-2.069-1.647-3.257a3.289,3.289,0,0,0-1.189.747c-3.009,2.43,2.13,9.22,6.547,6.047C228.271,101.925,226.011,100.865,224.844,99.775Z"/><path class="f" d="M218.348,86.76c-1.9-.831-5.609-.05-7.335,1.3-1.225,1.055-1.739,2.324-1.283,3.456C211.562,89.634,216.738,89.034,218.348,86.76Z"/><path class="f" d="M218.852,87.067a9.389,9.389,0,0,1-3.767,2.5c-1.517.724-4.053,1.36-4.877,2.7a5.456,5.456,0,0,0,4.566,1.33c2.533-.2,4.9-2.169,4.981-3.981A2.79,2.79,0,0,0,218.852,87.067Z"/><path class="g" d="M240.692,73.579h0v0l-.018.006a.3.3,0,0,0,.018-.1c0-.275-.406-.512-1-.635l-.1,1.03h0l1.38-14.977H198.929l1.38,14.978h0l-.1-1.031c-.592.123-1,.36-1,.635a.293.293,0,0,0,.019.1l-.019,0h0l.017.174,2.784,30.223h0l.065.691.113,1.237a2.576,2.576,0,0,0,.334,1.026,2.357,2.357,0,0,0,.912.917l.293,3.184a5.407,5.407,0,0,0,1.463,1.4l.138,1.528c3.668,6.048,25.571,6.048,29.238,0l.138-1.526a5.4,5.4,0,0,0,1.466-1.4l.293-3.184a2.462,2.462,0,0,0,1.245-1.943l.182-1.935,0,0,2.56-27.783Z"/><path class="h" d="M240.692,73.485a.206.206,0,0,1-.02.094h.02l-.241,2.606-2.557,27.783-.182,1.935a2.466,2.466,0,0,1-1.245,1.942l-.295,3.187a5.335,5.335,0,0,1-1.466,1.4l-.135,1.527c-1.761,2.9-7.727,4.413-13.854,4.521-.549.012-1.1,0-1.654,0-.582-.014-1.172-.041-1.754-.081-.864-.054-1.722-.134-2.552-.254a.431.431,0,0,0-.1-.014c-.248-.033-.5-.074-.737-.114-.268-.04-.543-.094-.8-.141-.529-.107-1.052-.221-1.548-.349-.254-.059-.495-.127-.736-.2s-.475-.14-.71-.221c-.2-.067-.408-.141-.6-.214a.662.662,0,0,1-.067-.027c-.222-.08-.435-.167-.637-.261s-.388-.167-.569-.254a.061.061,0,0,0-.033-.021c-.194-.1-.382-.2-.563-.3a6.132,6.132,0,0,1-2.316-2.069l-.141-1.527a5.458,5.458,0,0,1-1.467-1.4l-.288-3.187a2.37,2.37,0,0,1-.917-.917,2.576,2.576,0,0,1-.329-1.025l-.113-1.239-.067-.689-2.786-30.221-.014-.175a.023.023,0,0,1,.021.008.291.291,0,0,1-.021-.1c0-.274.409-.508,1-.636l-.549-5.913-.736-8.029h42.047l-.73,7.915-.65,7.058.1-1.031C240.284,72.977,240.692,73.211,240.692,73.485Z"/><path class="i" d="M240.974,58.907l-.73,7.915a70.188,70.188,0,0,1-17.9,2.4l-1.627,49.26c-.549.012-1.1,0-1.654,0-.582-.014-1.172-.041-1.754-.081-.864-.054-1.722-.141-2.552-.254a.431.431,0,0,0-.1-.014c-.248-.033-.5-.074-.737-.114-.268-.04-.543-.094-.8-.141-.529-.107-1.052-.221-1.548-.349-.254-.059-.495-.127-.736-.2s-.475-.14-.71-.221c-.2-.067-.408-.141-.6-.214a.662.662,0,0,1-.067-.027c-.222-.08-.435-.167-.637-.261s-.388-.167-.569-.254a.061.061,0,0,0-.033-.021c-.194-.1-.382-.2-.563-.3l-4.48-48.241c-1.279-.254-2.457-.543-3.509-.851l-.736-8.029Z"/><path class="j" d="M243.705,52.568a18.025,18.025,0,0,0-6.1-.784l.8,2.656a81.23,81.23,0,0,0-18.448-1.872c-6.193,0-12.663-.79-17.653-.784a18.016,18.016,0,0,0-6.1.784c-2.544.979-2.253,5.091-2.253,6.336,0,1.411,1.892,2.712,5.087,3.765,4.738,1.559,12.342,2.572,20.918,2.572,14.361,0,26-2.837,26-6.337C245.956,57.659,246.249,53.547,243.705,52.568Z"/><path class="k" d="M243.705,52.568a18.025,18.025,0,0,0-6.1-.784l.8,2.656a81.23,81.23,0,0,0-18.448-1.872c-6.193,0-12.663-.79-17.653-.784a18.016,18.016,0,0,0-6.1.784c-2.544.979-2.253,5.091-2.253,6.336,0,1.411,1.892,2.712,5.087,3.765,4.738,1.559,12.342,2.572,20.918,2.572,14.361,0,26-2.837,26-6.337C245.956,57.659,246.249,53.547,243.705,52.568Z"/><path class="l" d="M238.2,53.773l.015,0-.6-1.992H237.6Z"/><path class="m" d="M245.532,54.668a15.4,15.4,0,0,1,.239,3.573c0,3.5-11.642,6.336-26,6.336-8.577,0-16.181-1.012-20.918-2.572-2.6-.856-4.333-1.876-4.892-2.986.1,1.366,1.969,2.626,5.077,3.65,4.738,1.559,12.342,2.572,20.918,2.572,14.361,0,26-2.837,26-6.337A12.97,12.97,0,0,0,245.532,54.668Z"/><path class="l" d="M240.69,73.577l-.018.006a.3.3,0,0,0,.018-.1c0-.275-.406-.512-1-.635l-.1,1.03h0l.71-7.7h0l-.059.644a70.188,70.188,0,0,1-17.9,2.4l-.223,6.763c1.161,11.649,6.652,22.609,14.843,31.493a2.481,2.481,0,0,0,.748-1.573l.182-1.935,0,0,2.56-27.783.241-2.608h0Z"/><path class="l" d="M196.2,52.568c-2.544.979-2.253,5.091-2.253,6.336,0,1.347,1.727,2.593,4.664,3.62l.273-10.564A11.289,11.289,0,0,0,196.2,52.568Z"/><path class="n" d="M226.384,65.044l-.5-12.307c-1.906-.109-3.889-.169-5.931-.169-4.676,0-9.508-.449-13.743-.667l-.433,12.313a91.991,91.991,0,0,0,14.176,1.027C222.173,65.241,224.327,65.172,226.384,65.044Z"/><path class="l" d="M243.705,52.568a18.025,18.025,0,0,0-6.1-.784l.8,2.656c-.986-.242-2.055-.463-3.189-.664l.657,10.137c6.134-1.159,10.087-2.971,10.087-5.009C245.956,57.659,246.249,53.547,243.705,52.568Z"/><path class="o" d="M240.976,46.761c-.1-.032-.21-.051-.312-.079a14.106,14.106,0,0,0-4.871-.212s-9.819,1.85-15.84,1.85c-8.024,0-16.118-2.907-20.712-1.638-.1.028-.213.047-.312.079-.749,6.383-3.865,6.273-3.865,7.623,0,1.244,1.54,2.4,4.177,3.363,4.463,1.629,12.072,2.7,20.712,2.7a82.751,82.751,0,0,0,15.84-1.39v0l.052-.012q.641-.129,1.243-.269l.193-.046c.175-.042.352-.082.521-.125V58.6a29.491,29.491,0,0,0,2.862-.856c2.637-.963,4.177-2.119,4.177-3.363C244.841,53.034,241.726,53.144,240.976,46.761Z"/><path class="p" d="M244.842,54.384c0,1.245-1.54,2.4-4.178,3.361a28.716,28.716,0,0,1-2.859.858v.006l-.523.121a1.947,1.947,0,0,1-.194.046c-.4.095-.817.188-1.246.275-.013,0-.033.007-.046.007a82.578,82.578,0,0,1-15.844,1.392c-8.639,0-16.246-1.077-20.713-2.705-2.638-.957-4.178-2.116-4.178-3.361,0-1.353,3.12-1.239,3.87-7.621.094-.033.208-.053.308-.08,4.6-1.273,12.69,1.641,20.713,1.641,6.019,0,15.844-1.856,15.844-1.856a14.065,14.065,0,0,1,4.868.215c.1.027.214.047.314.08.041.362.094.71.154,1.032C242.077,53.138,244.842,53.111,244.842,54.384Z"/><path class="q" d="M219.953,48.32c-5.838,0-11.707-1.533-16.243-1.883L200.3,58.1c4.553,1.426,11.66,2.346,19.653,2.346.95,0,1.881-.017,2.8-.042L222.1,48.255C221.349,48.3,220.627,48.32,219.953,48.32Z"/><path class="r" d="M242.7,51.863h-.029a.859.859,0,0,1,.086.373c0,1.244-1.411,2.4-3.827,3.363a25.138,25.138,0,0,1-2.622.855v.006c-.155.043-.317.083-.476.125-.06.014-.118.03-.177.046q-.553.139-1.14.269l-.048.011h0a69.639,69.639,0,0,1-14.511,1.39c-7.915,0-14.886-1.073-18.975-2.7-2.416-.963-3.827-2.119-3.827-3.363a.86.86,0,0,1,.087-.373h-.029c-1.048,1.433-2.145,1.721-2.145,2.521,0,1.244,1.54,2.4,4.177,3.363,4.463,1.629,12.072,2.7,20.712,2.7a82.751,82.751,0,0,0,15.84-1.39v0l.052-.012q.641-.129,1.243-.269l.193-.046c.175-.042.352-.082.521-.125V58.6a29.491,29.491,0,0,0,2.862-.856c2.637-.963,4.177-2.119,4.177-3.363C244.841,53.584,243.745,53.3,242.7,51.863Z"/><path class="s" d="M242.7,51.863h-.029a.859.859,0,0,1,.086.373c0,1.244-1.411,2.4-3.827,3.363a25.138,25.138,0,0,1-2.622.855v.006c-.155.043-.317.083-.476.125-.06.014-.118.03-.177.046q-.553.139-1.14.269l-.048.011h0a69.639,69.639,0,0,1-14.511,1.39c-7.915,0-14.886-1.073-18.975-2.7-2.416-.963-3.827-2.119-3.827-3.363a.86.86,0,0,1,.087-.373h-.029c-1.048,1.433-2.145,1.721-2.145,2.521,0,1.244,1.54,2.4,4.177,3.363,4.463,1.629,12.072,2.7,20.712,2.7a82.751,82.751,0,0,0,15.84-1.39v0l.052-.012q.641-.129,1.243-.269l.193-.046c.175-.042.352-.082.521-.125V58.6a29.491,29.491,0,0,0,2.862-.856c2.637-.963,4.177-2.119,4.177-3.363C244.841,53.584,243.745,53.3,242.7,51.863Z"/><path class="t" d="M242.7,51.863h-.029a.859.859,0,0,1,.086.373,1.689,1.689,0,0,1-.079.495c.759.735,1.385,1.048,1.385,1.653,0,1.244-1.54,2.4-4.177,3.363a29.6,29.6,0,0,1-2.863.856v.005c-.169.043-.345.083-.52.125l-.192.046c-.4.093-.818.183-1.245.269l-.051.012v0A82.372,82.372,0,0,1,219.5,60.445c.152,0,.3,0,.455,0a82.751,82.751,0,0,0,15.84-1.39v0l.052-.012q.641-.129,1.243-.269l.193-.046c.175-.042.352-.082.521-.125V58.6a29.491,29.491,0,0,0,2.862-.856c2.637-.963,4.177-2.119,4.177-3.363C244.841,53.584,243.745,53.3,242.7,51.863Z"/><path class="t" d="M200.2,55.6c4.088,1.628,11.059,2.7,18.975,2.7.11,0,.216,0,.326,0-7.725-.04-14.51-1.1-18.52-2.7-2.416-.963-3.827-2.119-3.827-3.363a.86.86,0,0,1,.087-.373h-.029a6.83,6.83,0,0,1-.76.868C196.77,53.786,198.1,54.765,200.2,55.6Z"/><path class="l" d="M242.7,51.863h-.029a.859.859,0,0,1,.086.373c0,1.244-1.411,2.4-3.827,3.363a25.138,25.138,0,0,1-2.622.855v.006c-.155.043-.317.083-.476.125-.06.014-.118.03-.177.046q-.553.139-1.14.269l-.048.011h0c-.082.018-.172.034-.255.052l1.29,2.15c.1-.019.2-.035.294-.054v0l.052-.012q.641-.129,1.243-.269l.193-.046c.175-.042.352-.082.521-.125V58.6a29.491,29.491,0,0,0,2.862-.856c2.637-.963,4.177-2.119,4.177-3.363C244.841,53.584,243.745,53.3,242.7,51.863Z"/><path class="u" d="M219.953,58.3a70.324,70.324,0,0,1-14.224-1.329l-.4,2.318a85.691,85.691,0,0,0,14.62,1.159c2.683,0,5.258-.109,7.675-.3l-.551-2.156C224.835,58.189,222.445,58.3,219.953,58.3Z"/><path class="l" d="M200.978,55.6c-2.416-.963-3.827-2.119-3.827-3.363a.86.86,0,0,1,.087-.373h-.029c-1.048,1.433-2.145,1.721-2.145,2.521,0,1.169,1.373,2.259,3.725,3.184l2.5-1.854C201.185,55.676,201.077,55.638,200.978,55.6Z"/><path class="v" d="M238.386,54.044c.005.029.007.059.01.089h.022Z"/><path class="w" d="M198.929,46.761c0,2.483,9.413,4.495,21.024,4.495s21.023-2.012,21.023-4.495-9.412-4.5-21.023-4.5S198.929,44.279,198.929,46.761Z"/><path class="x" d="M198.929,46.761c0,2.483,9.413,4.495,21.024,4.495s21.023-2.012,21.023-4.495-9.412-4.5-21.023-4.5S198.929,44.279,198.929,46.761Z"/><path class="t" d="M241.132,47.795c-1.493,2.169-10.238,3.836-20.805,3.836-10.38,0-19-1.607-20.706-3.723,2.364,1.929,10.574,3.348,20.331,3.348,11.611,0,21.026-2.015,21.026-4.493C241.019,47.125,241.072,47.473,241.132,47.795Z"/><path class="v" d="M235.523,46.509c.005.021.006.044.009.066h.019Z"/><path class="j" d="M235.551,46.575h-.019a.481.481,0,0,1,.007.053c0,1.762-6.981,3.191-15.585,3.191s-15.583-1.429-15.583-3.191a.658.658,0,0,1,.016-.125h0l-.3,1.489c2.354,1.387,8.57,2.379,15.868,2.379,7.568,0,13.975-1.068,16.114-2.535Z"/><path class="y" d="M219.954,43.153c-9.322,0-16.879,1.618-16.879,3.608,0,.432.358.847,1.011,1.23l.3-1.489h0c.319-1.709,7.162-3.072,15.567-3.072s15.264,1.366,15.569,3.078l.028.066.517,1.26a1.42,1.42,0,0,0,.76-1.074C236.828,44.771,229.27,43.153,219.954,43.153Z"/><path class="z" d="M204.369,46.626c0,1.764,6.977,3.195,15.584,3.195s15.583-1.431,15.583-3.195-6.976-3.2-15.583-3.2S204.369,44.861,204.369,46.626Z"/><path class="aa" d="M233.058,47.785a1.929,1.929,0,0,1-.6.194l-4.252.783a5.261,5.261,0,0,1-2.344-.1l-.121-.047a.61.61,0,0,1-.16-.08c-.308-.188-.074-.415.6-.536l4.252-.777a5.212,5.212,0,0,1,2.351.1l.121.048C233.239,47.49,233.279,47.651,233.058,47.785Z"/><path class="ab" d="M233.058,47.785a1.929,1.929,0,0,1-.6.194l-4.252.783a5.261,5.261,0,0,1-2.344-.1l-.121-.047a.61.61,0,0,1-.16-.08,1.717,1.717,0,0,1,.6-.2l4.252-.777a5.2,5.2,0,0,1,2.351.1l.121.047A.491.491,0,0,1,233.058,47.785Z"/></g></g></svg>