<svg xmlns="http://www.w3.org/2000/svg" xmlns:xlink="http://www.w3.org/1999/xlink" width="103.114" height="58.359" viewBox="0 0 103.114 58.359"><defs><style>.a{fill:#8a5839;}.aa,.ad,.ae,.ah,.ai,.am,.ap,.aq,.as,.b,.n{mix-blend-mode:multiply;}.aa,.ac,.ad,.ae,.af,.ah,.ai,.aj,.ak,.al,.am,.an,.ap,.aq,.as,.at,.au,.av,.aw,.ax,.ay,.b,.c,.d,.e,.f,.g,.i,.k,.m,.n,.s,.v,.w,.y{isolation:isolate;}.b{fill:url(#a);}.ac,.af,.aj,.ak,.al,.an,.at,.c,.d,.e,.f,.g,.i,.k,.m,.s,.v,.w,.y{mix-blend-mode:overlay;}.c{fill:url(#b);}.d{fill:url(#c);}.e,.y{fill:#1d1d1b;}.e,.g{opacity:0.3;}.f{fill:url(#d);}.g,.s{fill:#fff;}.h{fill:#b5734b;}.i{fill:url(#e);}.j{fill:#deb354;}.k{fill:url(#f);}.l{fill:#389c4e;}.m{fill:url(#g);}.n{opacity:0.7;fill:url(#h);}.o{fill:#386e3c;}.p{fill:#76e87e;}.q{fill:#39963f;}.r{fill:#3f7d44;}.s{opacity:0.1;}.t{fill:#4d9652;}.u{fill:#3ba843;}.v{fill:url(#i);}.w{fill:url(#j);}.x{fill:#3b9641;}.y{opacity:0.6;}.z{fill:#ff9345;}.aa{fill:url(#k);}.ab{fill:#ffe045;}.ac{fill:url(#l);}.ad{fill:url(#m);}.ae{fill:url(#n);}.af{fill:url(#o);}.ag{fill:#78241c;}.ah{fill:url(#p);}.ai{fill:url(#q);}.aj{fill:url(#r);}.ak{fill:url(#s);}.al{fill:url(#t);}.am{fill:url(#u);}.an{fill:url(#v);}.ao{fill:#fbfcf6;}.ap{fill:url(#w);}.aq{fill:#b5b570;opacity:0.4;}.ar{fill:#feac00;}.as{fill:url(#x);}.at{fill:url(#y);}.au,.av,.aw,.ax,.ay{mix-blend-mode:screen;}.au{fill:url(#z);}.av{fill:url(#aa);}.aw{fill:url(#ac);}.ax{fill:url(#af);}.ay{fill:url(#aj);}</style><radialGradient id="a" cx="4.95" cy="1.364" r="5.145" gradientTransform="translate(-0.002)" gradientUnits="objectBoundingBox"><stop offset="0.612" stop-color="#fff"/><stop offset="0.709" stop-color="#c78907"/><stop offset="0.768" stop-color="#d19e34"/><stop offset="0.902" stop-color="#ebd5a6"/><stop offset="1" stop-color="#fff"/></radialGradient><radialGradient id="b" cx="4.018" cy="1.646" r="4.213" gradientTransform="translate(-0.061) scale(1.121 1)" gradientUnits="objectBoundingBox"><stop offset="0"/><stop offset="1" stop-color="gray"/></radialGradient><radialGradient id="c" cx="1.436" cy="-1.681" r="4.863" gradientTransform="translate(0.374) scale(0.252 1)" gradientUnits="objectBoundingBox"><stop offset="0" stop-color="#fff"/><stop offset="0.142" stop-color="#f8f8f8"/><stop offset="0.344" stop-color="#e5e5e5"/><stop offset="0.583" stop-color="#c6c6c6"/><stop offset="0.848" stop-color="#9b9b9b"/><stop offset="1" stop-color="gray"/></radialGradient><radialGradient id="d" cx="1.035" cy="-2.5" r="6.165" gradientTransform="translate(0.405) scale(0.19 1)" xlink:href="#c"/><radialGradient id="e" cx="1.414" cy="1.253" r="3.028" gradientTransform="translate(0.309) scale(0.381 1)" xlink:href="#c"/><radialGradient id="f" cx="1.286" cy="0.032" r="2.385" gradientTransform="translate(0.32) scale(0.361 1)" gradientUnits="objectBoundingBox"><stop offset="0" stop-color="#fff"/><stop offset="0.413" stop-color="#c4c4c4"/><stop offset="0.806" stop-color="#939393"/><stop offset="1" stop-color="gray"/></radialGradient><radialGradient id="g" cx="1.225" cy="-0.405" r="1.271" gradientTransform="translate(0.643 -0.053) scale(0.828 0.968)" xlink:href="#c"/><radialGradient id="h" cx="0.197" cy="0.978" r="0.894" gradientTransform="translate(0.453 -0.005) scale(0.828 0.968)" gradientUnits="objectBoundingBox"><stop offset="0.438" stop-color="#fff"/><stop offset="0.475" stop-color="#f8fbfc"/><stop offset="0.53" stop-color="#e4f0f4"/><stop offset="0.595" stop-color="#c5dfe8"/><stop offset="0.668" stop-color="#99c6d7"/><stop offset="0.747" stop-color="#61a8c1"/><stop offset="0.757" stop-color="#5aa4bf"/><stop offset="0.764" stop-color="#61a8c1"/><stop offset="0.856" stop-color="#b5d6e2"/><stop offset="0.922" stop-color="#eaf3f7"/><stop offset="0.953" stop-color="#fff"/></radialGradient><radialGradient id="i" cx="1.225" cy="-0.405" r="1.313" gradientTransform="translate(1.331 -0.048) scale(0.482 0.968)" xlink:href="#c"/><radialGradient id="j" cx="0.361" cy="1.287" r="0.752" gradientTransform="translate(0.85 0.011) scale(0.482 0.968)" xlink:href="#c"/><radialGradient id="k" cx="0.318" cy="1.207" r="1.032" gradientTransform="translate(0.311) scale(0.379 1)" gradientUnits="objectBoundingBox"><stop offset="0" stop-color="#522900"/><stop offset="0.102" stop-color="#5e3711"/><stop offset="0.306" stop-color="#7d5e3f"/><stop offset="0.593" stop-color="#b09d8a"/><stop offset="0.949" stop-color="#f4f2ef"/><stop offset="1" stop-color="#fff"/></radialGradient><radialGradient id="l" cx="0.688" cy="-0.46" r="1.175" gradientTransform="translate(0.307) scale(0.387 1)" xlink:href="#c"/><radialGradient id="m" cx="0.809" cy="2.759" r="2.292" gradientTransform="translate(0.307) scale(0.387 1)" gradientUnits="objectBoundingBox"><stop offset="0.548" stop-color="#fff"/><stop offset="0.669" stop-color="#f2d598"/><stop offset="0.811" stop-color="#f2d599"/><stop offset="0.866" stop-color="#f3d8a0"/><stop offset="0.905" stop-color="#f4ddac"/><stop offset="0.937" stop-color="#f6e4be"/><stop offset="0.965" stop-color="#f9edd4"/><stop offset="0.989" stop-color="#fdf8ef"/><stop offset="1" stop-color="#fff"/></radialGradient><radialGradient id="n" cx="-0.119" cy="1.889" r="1.826" gradientTransform="translate(0.307) scale(0.387 1)" gradientUnits="objectBoundingBox"><stop offset="0.548" stop-color="#fff"/><stop offset="0.669" stop-color="#f2d598"/><stop offset="0.725" stop-color="#f2d79d"/><stop offset="0.796" stop-color="#f4ddad"/><stop offset="0.876" stop-color="#f8e8c7"/><stop offset="0.962" stop-color="#fcf7ec"/><stop offset="1" stop-color="#fff"/></radialGradient><radialGradient id="o" cx="-0.171" cy="1.456" r="2.065" gradientTransform="translate(-0.219) scale(1.437 1)" xlink:href="#c"/><radialGradient id="p" cx="0.291" cy="2.538" r="2.653" gradientTransform="translate(0.346) scale(0.309 1)" xlink:href="#k"/><radialGradient id="q" cx="-0.073" cy="3.898" r="4.11" gradientTransform="translate(0.346) scale(0.309 1)" xlink:href="#k"/><radialGradient id="r" cx="1.272" cy="0.188" r="2.228" gradientTransform="translate(0.346) scale(0.309 1)" xlink:href="#c"/><radialGradient id="s" cx="-0.072" cy="-0.486" r="2.153" gradientTransform="translate(0.24) scale(0.52 1)" xlink:href="#c"/><radialGradient id="t" cx="0.923" cy="-0.692" r="2.052" gradientTransform="translate(0.346) scale(0.307 1)" gradientUnits="objectBoundingBox"><stop offset="0" stop-color="#fff"/><stop offset="0.073" stop-color="#f3f3f3"/><stop offset="0.511" stop-color="#b5b5b5"/><stop offset="0.833" stop-color="#8e8e8e"/><stop offset="1" stop-color="gray"/></radialGradient><radialGradient id="u" cx="0.58" cy="-0.891" r="2.549" gradientTransform="translate(0.346) scale(0.307 1)" gradientUnits="objectBoundingBox"><stop offset="0.64" stop-color="#fff"/><stop offset="0.818" stop-color="#c77b30"/><stop offset="0.862" stop-color="#d3985d"/><stop offset="0.961" stop-color="#f2e0cf"/><stop offset="1" stop-color="#fff"/></radialGradient><radialGradient id="v" cx="1.176" cy="-0.991" r="4.4" gradientTransform="translate(0.339) scale(0.321 1)" xlink:href="#c"/><radialGradient id="w" cx="0.452" cy="-1.048" r="2.935" gradientTransform="translate(0.305) scale(0.39 1)" gradientUnits="objectBoundingBox"><stop offset="0.438" stop-color="#fff"/><stop offset="0.489" stop-color="#fbfaf8"/><stop offset="0.564" stop-color="#f1efe4"/><stop offset="0.654" stop-color="#e0ddc5"/><stop offset="0.753" stop-color="#c9c399"/><stop offset="0.757" stop-color="#c9c398"/><stop offset="0.808" stop-color="#d8d4b6"/><stop offset="0.906" stop-color="#f4f3ea"/><stop offset="0.953" stop-color="#fff"/></radialGradient><radialGradient id="x" cx="0.546" cy="-0.665" r="2.452" gradientTransform="translate(0.267) scale(0.466 1)" gradientUnits="objectBoundingBox"><stop offset="0.566" stop-color="#fff"/><stop offset="0.835" stop-color="#c78907"/><stop offset="0.869" stop-color="#d19e34"/><stop offset="0.944" stop-color="#ebd5a6"/><stop offset="1" stop-color="#fff"/></radialGradient><radialGradient id="y" cx="1.011" cy="6.154" r="8.092" gradientTransform="translate(0.407) scale(0.185 1)" xlink:href="#c"/><linearGradient id="z" x1="0.5" y1="1" x2="0.5" gradientUnits="objectBoundingBox"><stop offset="0.157"/><stop offset="0.229" stop-color="#0a0a0a"/><stop offset="0.353" stop-color="#252525"/><stop offset="0.512" stop-color="#525252"/><stop offset="0.702" stop-color="#8f8f8f"/><stop offset="0.915" stop-color="#ddd"/><stop offset="1" stop-color="#fff"/></linearGradient><linearGradient id="aa" x1="0.5" y1="1" x2="0.5" y2="0" xlink:href="#z"/><linearGradient id="ac" x1="0.5" y1="1" x2="0.5" y2="0" xlink:href="#z"/><linearGradient id="af" x1="0.5" y1="1" x2="0.5" y2="0" xlink:href="#z"/><linearGradient id="aj" x1="0.5" y1="1" x2="0.5" y2="0" xlink:href="#z"/></defs><g transform="translate(-638.443 -213.829)"><g transform="translate(334.238 -127.857)"><path class="a" d="M328.1,380.517l-.647,7.743c.009-.106-.07-.218-.241-.324L306.358,375.1c-1.186-.731-2.233-2.084-2.148-3.1q.324-3.87.647-7.742c-.086,1.02.963,2.373,2.148,3.1l20.855,12.84C328.032,380.3,328.11,380.413,328.1,380.517Z"/><path class="b" d="M328.1,380.517l-.647,7.743c.009-.106-.07-.218-.241-.324L306.358,375.1c-1.186-.731-2.233-2.084-2.148-3.1q.324-3.87.647-7.742c-.086,1.02.963,2.373,2.148,3.1l20.855,12.84C328.032,380.3,328.11,380.413,328.1,380.517Z"/><path class="c" d="M327.86,380.193l-13.666-8.415-.792,7.654c4.907,3.02,10.444,6.43,13.811,8.5.171.106.25.218.241.324l.647-7.743C328.11,380.413,328.032,380.3,327.86,380.193Z"/><path class="a" d="M407.314,379.689q-.326,3.87-.648,7.741c-.048.585-.469,1.062-1.445,1.253l-57.588,11.27c-2.646.519-8.388-1.27-10.242-2.413-1.713-1.053-5.136-3.161-6.844-4.213-1-.613-4.13-3.333-4.045-4.35l.647-7.743c-.085,1.018,3.049,3.738,4.045,4.351l6.843,4.214c1.856,1.142,7.6,2.93,10.243,2.412l57.589-11.27C406.844,380.75,407.265,380.273,407.314,379.689Z"/><path class="d" d="M407.314,379.689q-.326,3.87-.648,7.741c-.048.585-.469,1.062-1.445,1.253l-57.588,11.27c-2.646.519-8.388-1.27-10.242-2.413-1.713-1.053-5.136-3.161-6.844-4.213-1-.613-4.13-3.333-4.045-4.35l.647-7.743c-.085,1.018,3.049,3.738,4.045,4.351l6.843,4.214c1.856,1.142,7.6,2.93,10.243,2.412l57.589-11.27C406.844,380.75,407.265,380.273,407.314,379.689Z"/><path class="e" d="M338.037,389.8l-6.843-4.214c-1-.613-4.13-3.333-4.045-4.351l-.647,7.743c-.085,1.017,3.049,3.737,4.045,4.35,1.708,1.052,5.131,3.16,6.844,4.213a23.331,23.331,0,0,0,8.989,2.5l.557-7.745A23.43,23.43,0,0,1,338.037,389.8Z"/><path class="f" d="M331.194,388.023c1.708,1.05,5.132,3.159,6.843,4.212,1.856,1.143,7.6,2.93,10.243,2.413,14.225-2.784,43.518-9.3,58.108-12.178.18-.035.153,6.453.452,2.885.073-.878.4-4.789.474-5.666-.049.584-.47,1.061-1.445,1.252l-57.589,11.27c-2.647.518-8.387-1.27-10.243-2.412l-6.843-4.214a18.23,18.23,0,0,1-3.066-2.69C328.756,384.614,330.41,387.538,331.194,388.023Z"/><path class="g" d="M327.784,382.486a2.237,2.237,0,0,1-.635-1.252l-.647,7.743a1.309,1.309,0,0,0,.248.711Z"/><path class="h" d="M355.638,353.353c2.647-.519,8.466,1.317,10.325,2.461.783.481,15.641,9.631,20.855,12.841a2.961,2.961,0,0,0,1.841.257c1.672-.326,8.542,2.8,9.717,3.526l6.844,4.214c1.855,1.142,3.3,3.771.649,4.289l-57.589,11.27c-2.647.518-8.387-1.27-10.243-2.412l-6.843-4.214c-1.175-.724-5.331-4.384-3.653-4.712.6-.117.739-.421.319-.68l-20.855-12.84c-1.859-1.145-3.377-3.823-.725-4.342Z"/><path class="i" d="M355.638,353.353c2.647-.519,8.466,1.317,10.325,2.461.783.481,15.641,9.631,20.855,12.841a2.961,2.961,0,0,0,1.841.257c1.672-.326,8.542,2.8,9.717,3.526l6.844,4.214c1.855,1.142,3.3,3.771.649,4.289l-57.589,11.27c-2.647.518-8.387-1.27-10.243-2.412l-6.843-4.214c-1.175-.724-5.331-4.384-3.653-4.712.6-.117.739-.421.319-.68l-20.855-12.84c-1.859-1.145-3.377-3.823-.725-4.342Z"/><path class="j" d="M347.188,390.624a21.877,21.877,0,0,1-8.271-2.255l-6.843-4.214a17.2,17.2,0,0,1-2.749-2.43,1.978,1.978,0,0,0,.426-.89,2,2,0,0,0-1.01-2.071l-20.855-12.841a3.651,3.651,0,0,1-1.245-1.271L355.96,355a4.016,4.016,0,0,1,.748-.059,22.173,22.173,0,0,1,8.375,2.3l20.855,12.841a4.672,4.672,0,0,0,3.044.477c1.421.006,7.244,2.523,8.514,3.3l6.844,4.215a3.5,3.5,0,0,1,1.193,1.214l-57.576,11.268A4.133,4.133,0,0,1,347.188,390.624Z"/><path class="k" d="M347.188,390.624a21.877,21.877,0,0,1-8.271-2.255l-6.843-4.214a17.2,17.2,0,0,1-2.749-2.43,1.978,1.978,0,0,0,.426-.89,2,2,0,0,0-1.01-2.071l-20.855-12.841a3.651,3.651,0,0,1-1.245-1.271L355.96,355a4.016,4.016,0,0,1,.748-.059,22.173,22.173,0,0,1,8.375,2.3l20.855,12.841a4.672,4.672,0,0,0,3.044.477c1.421.006,7.244,2.523,8.514,3.3l6.844,4.215a3.5,3.5,0,0,1,1.193,1.214l-57.576,11.268A4.133,4.133,0,0,1,347.188,390.624Z"/><path class="e" d="M406.479,386.368a1.828,1.828,0,0,1-1.258.708l-57.588,11.27c-2.646.518-8.388-1.27-10.242-2.412l-6.844-4.213c-.879-.541-3.417-2.72-3.946-3.925l-.1,1.181c-.085,1.017,3.049,3.737,4.045,4.35,1.708,1.052,5.131,3.16,6.844,4.213,1.854,1.143,7.6,2.932,10.242,2.413l57.588-11.27c.976-.191,1.4-.668,1.445-1.253.035-.409.068-.819.1-1.228C406.676,386.259,406.58,386.315,406.479,386.368Z"/><path class="l" d="M373.7,356.168c2.541.373,4.76-4.562,3.377-6.112,1.3.851,2.809.1,3.873.7.958.539,1.617,2.385,1.97,3.326,1.949.14,5.239-1.025,4.7-3.349,2.48.1.693-2.167,1.6-3.009,1.193-1.107,3.147,1.314,4.018,2.3,2.651,2.991,3.672,5.011,3.325,8.619,3.048-.6,1.422,1.746,1.895,2.775a9.724,9.724,0,0,0,2.777,2.665c1.708.973,3.328.387,1.7,3.027a11.729,11.729,0,0,1-3.53,3.013c-6.123,4.273-12.363.652-18.887.862Z"/><path class="m" d="M373.7,356.168c2.541.373,4.76-4.562,3.377-6.112,1.3.851,2.809.1,3.873.7.958.539,1.617,2.385,1.97,3.326,1.949.14,5.239-1.025,4.7-3.349,2.48.1.693-2.167,1.6-3.009,1.193-1.107,3.147,1.314,4.018,2.3,2.651,2.991,3.672,5.011,3.325,8.619,3.048-.6,1.422,1.746,1.895,2.775a9.724,9.724,0,0,0,2.777,2.665c1.708.973,3.328.387,1.7,3.027a11.729,11.729,0,0,1-3.53,3.013c-6.123,4.273-12.363.652-18.887.862Z"/><path class="n" d="M373.7,356.168c2.541.373,4.76-4.562,3.377-6.112,1.3.851,2.809.1,3.873.7.958.539,1.617,2.385,1.97,3.326,1.949.14,5.239-1.025,4.7-3.349,2.48.1.693-2.167,1.6-3.009,1.193-1.107,3.147,1.314,4.018,2.3,2.651,2.991,3.672,5.011,3.325,8.619,3.048-.6,1.422,1.746,1.895,2.775a9.724,9.724,0,0,0,2.777,2.665c1.708.973,3.328.387,1.7,3.027a11.729,11.729,0,0,1-3.53,3.013c-6.123,4.273-12.363.652-18.887.862Z"/><path class="l" d="M332.977,358.675c-1.614.051-7.463.55-8.531-.212-1.2-.855-.466-3.647-2.348-1.9a2.1,2.1,0,0,0,.252,3.3,5.229,5.229,0,0,1-1.847,1.539c-.9.373-1.924-.084-2.6.219-2.428,1.079-.966,2.318,1.155,2.1.15,1.1-1.077,1.873-.97,2.7.2,1.495,1.4.435,1.957,1.585.328.683-.578,2.629-1.176,2.972-1.131.647-2.4-.307-3.507-.419-.474,2.734,3.142,5.4,5.614,5.844,3.986.717,7.2-.365,10.8-1.064-.225.679-1.686,2.074-1.386,2.939.334.969,1.406.877,2.123.2,1.006.871.146,3-.207,4.135,2.073,1.367,5.544,1.4,8.026,1.356,3.387-.062,4.746-1.709,7.244-3.441.939,1.722,2.6,1.12,4.184.649.85-.252,1.216-.838,2.171-.82.516.009,1.678.678,2.417.711a13.716,13.716,0,0,0,4.89-.739c1.21-.667,1.61-2.362,2.794-2.691-4.724.127-9.527-.765-14.39-.506-3.761.2-6.978-1-10.3-2.341s-6.854-3.163-8.413-6.548c-1.488-3.229.56-6.237,2.529-8.66Z"/><path class="o" d="M313.83,360.3c-.532,1.33-.845,2.718-1.663,3.43a9.693,9.693,0,0,1-1.665,1.046,8.757,8.757,0,0,0-1.541.894,2.71,2.71,0,0,0-1.014,1.542,5.1,5.1,0,0,0,.269,2.942,18.568,18.568,0,0,1,4.991.227,2.98,2.98,0,0,1,1.8.87,1.286,1.286,0,0,1,.26.86,4.461,4.461,0,0,1-.246,1.379,4.029,4.029,0,0,1,2.087,2.588c.314,1.058.252,1.363.013,1.649a2.225,2.225,0,0,0-.749,1.415,6.835,6.835,0,0,0,.2,3.69c.481,1.005,1.571,1.544,3.537.754a4.035,4.035,0,0,1,1.325-4.065,4.443,4.443,0,0,1,2.915-1.149,25.571,25.571,0,0,1-2.4-1.718,15.436,15.436,0,0,1-4.185-4.9,8.847,8.847,0,0,1-.934-3.309,8.958,8.958,0,0,1,.308-2.982,11.763,11.763,0,0,1,.792-1.976l.382-.712Z"/><path class="o" d="M325.237,378.927a1.456,1.456,0,0,1-.041.98c2,.7,1.926,1.544,1.284,2.713s-1.9,2.555-2.046,4.272c1.623,1.016,3.2-.271,4.878.115a3.367,3.367,0,0,1,1.113.476c.081.053.159.108.236.167l.112.089.028.024,0,0h0l.428.137h0l.006.005.013.01.051.039c.136.107.264.224.39.345s.247.249.368.378l.182.192.315.207a9.817,9.817,0,0,0,1.375.755,4.348,4.348,0,0,1,.623-1.734,3.874,3.874,0,0,1,.92-.938,1.968,1.968,0,0,1,2.042-.014c.519.246.155,1.7,1.448,1.256l.4-4.982-.643-.047c-.409-.03-.992-.073-1.693-.158-.349-.039-.728-.081-1.129-.124s-.829-.132-1.269-.2a9.265,9.265,0,0,1-1.326-.3l-.334-.087-.084-.023-.056-.017-.042-.016-.163-.059-.657-.246a47.561,47.561,0,0,1-4.691-2.09C326.031,379.419,325.237,378.927,325.237,378.927Z"/><path class="p" d="M339.83,377.536a5.176,5.176,0,0,0-1.581.18,2.834,2.834,0,0,0-1.121.459c-1.087,1.118.209,2.5-1.707,3.311-1.083.477-1.865.273-2.217-.135l0-.006h0v0c.141.044.038.011.07.021l-.008-.011-.014-.022-.027-.044-.049-.093a1.248,1.248,0,0,1-.074-.2,1.915,1.915,0,0,1-.062-.454,4.152,4.152,0,0,1,.15-1.074c.4-1.542,1.377-3.42,1.417-4.355.158-2.833-1.048-1.829-2.661-.539-1.574,1.3-3.573,2.871-4.1,1.529,1-1.735,3.577-5.012,1.674-5.214-.836-.1-1.534.662-2.257,1.461s-1.427,1.62-2.347,1.49a10.131,10.131,0,0,1,.9-2.447c.3-.74.431-1.3-.143-1.49-1.481,1.517-2.928,2.425-3.77,2.319-.818-.065-.988-1.186.766-2.617-2.012-.289,2.183-1.353,2.3-1.582.082-.134-.583-.146-1.448-.133s-1.881.163-2.511.16c-3.61-.081-3.632-.937-2.52-1.381a7.442,7.442,0,0,1,2.181-.408c.791-.048,1.5-.012,1.935-.1.528-.1.889-.246,1-.447l-5.3-2.93-.382.712a11.763,11.763,0,0,0-.792,1.976,8.958,8.958,0,0,0-.308,2.982,8.847,8.847,0,0,0,.934,3.309,15.436,15.436,0,0,0,4.185,4.9,25.571,25.571,0,0,0,2.4,1.718.956.956,0,0,1,.887.55s.794.492,2.039,1.134a47.561,47.561,0,0,0,4.691,2.09l.657.246.163.059.042.016.056.017.084.023.334.087a9.265,9.265,0,0,0,1.326.3c.44.069.868.148,1.269.2s.78.085,1.129.124c.7.085,1.284.128,1.693.158l.643.047Z"/><path class="q" d="M337.067,378.663c-1.081.992.246,2.251-1.672,2.954a2.033,2.033,0,0,1-2.219-.172l-.005,0,0,0v0c.127.04.035.01.062.019l-.007-.01-.015-.02-.029-.041-.05-.086a1.179,1.179,0,0,1-.081-.185,1.582,1.582,0,0,1-.078-.416,3.46,3.46,0,0,1,.108-.974c.335-1.393,1.235-3.07,1.236-3.923.032-2.584-1.142-1.724-2.684-.609-1.507,1.126-3.4,2.485-3.974,1.218.89-1.563,3.268-4.462,1.348-4.772-.84-.151-1.479.525-2.138,1.234s-1.3,1.443-2.2,1.269a8.767,8.767,0,0,1,.712-2.275c.243-.689.318-1.228-.263-1.466-1.315,1.377-2.647,2.161-3.451,2.008-.782-.115-1-1.2.534-2.573-1.9-.46,1.91-1.309,1.975-1.683.057-.222-.535-.259-1.313-.248s-1.687.172-2.254.162c-3.242-.116-3.26-.949-2.251-1.42a6.727,6.727,0,0,1,1.986-.481,15.02,15.02,0,0,0,1.781-.206,1.619,1.619,0,0,0,.964-.533l-8.774-4.856c-.529,1.284-.853,2.626-1.6,3.322a9.249,9.249,0,0,1-1.516,1.023,7.985,7.985,0,0,0-1.4.863,2.619,2.619,0,0,0-.919,1.469,5.026,5.026,0,0,0,.249,2.795,15.333,15.333,0,0,1,4.491.263,2.735,2.735,0,0,1,1.647.873,1.375,1.375,0,0,1,.259.84,4.427,4.427,0,0,1-.181,1.319,4.358,4.358,0,0,1,2.026,2.543c.338,1.015.294,1.3.082,1.558a1.892,1.892,0,0,0-.643,1.3,6.454,6.454,0,0,0,.328,3.448c.491.95,1.538,1.485,3.382.828a3.547,3.547,0,0,1,.46-3.036,4.066,4.066,0,0,1,1.97-1.426c1.418-.477,2.725-.163,2.308,1.263,1.972.729,1.942,1.5,1.364,2.548s-1.747,2.274-1.822,3.842c1.6.985,3.092-.14,4.742.265a3.6,3.6,0,0,1,1.1.467c.08.049.158.1.234.158l.114.085.028.022,0,0h0l.385.123h0l.006.005.013.009.052.037c.137.1.269.209.4.321l.375.352.186.181.308.189a10.011,10.011,0,0,0,1.329.691,3.639,3.639,0,0,1,.579-1.553,3.326,3.326,0,0,1,.885-.833,2.124,2.124,0,0,1,2.023.007c.519.226.169,1.526,1.45,1.141l.773-9.757a5.767,5.767,0,0,0-1.59.148A2.954,2.954,0,0,0,337.067,378.663Z"/><path class="r" d="M314.921,367.777c-.025.423.424.652.885.811a4.258,4.258,0,0,1,1.193.461c-1.222.41.086.688.7.622a9.77,9.77,0,0,0,2.447-.535c.23-.08,1.08-.412,1.9-.659s1.58-.417,1.626-.471-3.079.187-3.654.212a6.176,6.176,0,0,1-1.912-.111c-.226-.068-1-.557-1.723-.929a1.64,1.64,0,0,0-.965-.257C315.131,366.974,314.933,367.223,314.921,367.777Z"/><path class="r" d="M321.368,369.5a12.555,12.555,0,0,0-2.357,1.1,8.416,8.416,0,0,0-1.942,1.592c.729.159,1.416-.515,2.221-1.1a5.644,5.644,0,0,1,2.45-1.2.854.854,0,0,1-.244-.384Z"/><path class="r" d="M325,370.708c0-.048.184-.211.054-.13-1.237,1.278-2.849,2.29-4.083,1.721a2.341,2.341,0,0,0-.791,1.106c-.187.463-.319.975-.49,1.319-.323.659-1.307,1.549-1.1,2.174a26.889,26.889,0,0,1,3.74-3.283,12.985,12.985,0,0,0,1.852-1.424,3.451,3.451,0,0,0,1.03-1.758Z"/><path class="r" d="M327.9,372.032c-.576.442-1.183,1.078-1.74,1.6a6.366,6.366,0,0,1-1.57.958c-.612.364-.626.429-.9,1.265a3.808,3.808,0,0,0-.437,1.938c.633-.294,1.087.108,1.6-.328a8.975,8.975,0,0,0,1.028-1.935,11.836,11.836,0,0,1,2.884-3.621Z"/><path class="r" d="M326.287,379.438c0,.122.5.59.593.769.194.374.168.767.462,1.064a4.653,4.653,0,0,0-.049.711A21.765,21.765,0,0,1,330.1,378a46.824,46.824,0,0,0,3.233-3.524c-1.3.975-2.659,2.218-4.176,2.658C328.215,377.43,326.266,377.59,326.287,379.438Z"/><path class="r" d="M336.659,381.228c-.2.757-.768.8-.881,1.533a5.4,5.4,0,0,0,1.894,3.949,35.551,35.551,0,0,1-.6-4.4,3.3,3.3,0,0,1,.525-1.978c.227-.292.581-.287.807-.576.3-.4.014-.768.452-1.138-.481-.04-1.39-.183-1.8.251C336.448,379.5,336.862,380.443,336.659,381.228Z"/><path class="s" d="M322.372,365.346a7.14,7.14,0,0,1-2.166-.831,18.231,18.231,0,0,0-2.23-1.108c-1.324-.422-3.179-.849-4.474.021a5.507,5.507,0,0,1,2.559,1.99c.918,1,.791.765,1.98.4a11.242,11.242,0,0,1,2.923-.038,3.749,3.749,0,0,0,1.133-.132,7.492,7.492,0,0,1,.9-.236l-.31-.037Z"/><path class="s" d="M323.784,368.12a6.028,6.028,0,0,0-1.387.321c-.617.2-1.235.485-1.547.594-.958.332-3.049.879-3.536,1.65.606-.15,2.4-.8,3.969-1.416l2.059-.794c.5-.2.827-.325.67-.408Z"/><path class="s" d="M321.617,370.068a4.818,4.818,0,0,0-2.1,1.087,15.6,15.6,0,0,1-2.245,1.354c1.069-.149,2.029-.879,3.018-1.068a4.975,4.975,0,0,1,1.436-1.425Z"/><path class="s" d="M325.175,371.043a6.017,6.017,0,0,1-1.139,1.627,3.812,3.812,0,0,1-.69.635c-.258.145-.21-.293-.469-.143a15.184,15.184,0,0,0-2.532,2.236,5.35,5.35,0,0,0-1.843,2.361c-.274.972-.066,2.081-.628,3.011.86.5,1.649-.084,2.454-.39-.731,0-1-.667-.991-1.4a4.62,4.62,0,0,1,.52-1.983c.361-.705,1.941-3.07,2.61-1.98-.127.3-.14.657-.275.963-.072.162-.511.649-.521.763-.06.82.32.589,1.053.488a3.134,3.134,0,0,1,0-1.722c.342-.835.82-.811,1.3-1.361a11.513,11.513,0,0,0,1.387-2.886Z"/><path class="s" d="M326.214,375.886c-.216.5-.85,1.459-.661,1.859.295.613,1.177.194,1.4-.459-.182.506-.883-.157-.918-.353-.088-.465.523-1.312.8-1.706.339-.464,2-2.509,1.879-1.112,1.005-1.057,1.005-2.113-.216-1.5C327.32,373.178,326.72,374.692,326.214,375.886Z"/><path class="s" d="M331.338,377.433A21.878,21.878,0,0,0,328.9,380.1c-.708.93-1.81,2.71-.947,3.7s2.825.33,3.923.62c-.374-1.017-1.967-.721-2.609-1.544-.782-1.012-.147-2.191.774-3.133.583-.564,2.4-1.648,1.887-.064-.2.623-.67.515-.931.98-.191.342-.037.812-.232,1.228.369-.678,1.122-.69,1.567-1.3a4.319,4.319,0,0,0,.54-2.161c.077-.813,1.335-2.849,1.027-3.084C333.2,374.8,331.876,376.943,331.338,377.433Z"/><path class="s" d="M333.644,387.914a2.8,2.8,0,0,1,.942-1.5,2.451,2.451,0,0,1,.783-.447,1.409,1.409,0,0,1,.791-.117c-.642-.847-3.053-.125-2.9-1.371.045-.971.318-1.122.692-.993a9.077,9.077,0,0,1,1.293.725c.185-.923-.052-1.43-.43-1.53a.962.962,0,0,0-.689.136,2.445,2.445,0,0,0-.785.663,3.465,3.465,0,0,0-.777,2.309,3.8,3.8,0,0,0,.214,1.133A3.159,3.159,0,0,0,333.644,387.914Z"/><path class="o" d="M338.968,388.406c1.12-.1,2.217-.322,2.79.288,1.511,1.6,1.053,4.431,3.949,3.517.115-2.228.791-8.588,3.42-5.266a2.349,2.349,0,0,1,2.725-.223c1.736.883.6,1.141,1.487,2.578,1.2,1.945,2.835,4.574,4.692,1.072-2.437-2.68-1.034-5.857.312-6.621,0,0-4.746.127-9.492.047-2.374-.037-4.746-.105-6.524-.194-.89-.048-1.631-.088-2.15-.118l-.814-.062Z"/><path class="o" d="M359.391,383.725a1.452,1.452,0,0,1,.507.841c4.076-.869,1.5,3.254,2.829,6.381,1.688.12,2.375-1.7,3.947-2.07,1.574-.355,2.8.767,4.247,1.176a3.633,3.633,0,0,1,.551-2.946,1.987,1.987,0,0,1,1.975-.478c.606.114.606,1.608,1.872.861l-.993-4.9-.639.1c-.407.054-.986.176-1.686.242-1.4.171-3.263.342-5.132.459C363.132,383.642,359.391,383.725,359.391,383.725Z"/><path class="p" d="M373.153,376.792a3.773,3.773,0,0,0-1.305.512,3.051,3.051,0,0,0-.989.7c-.82,1.342.875,2.351-.907,3.628-2.056,1.392-2.841.388-3.172-1.173s-.268-3.662-.686-4.52c-1.254-2.605-2.075-1.166-2.973.709-.882,1.882-1.826,4.2-3.088,3.334-.149-1.973.448-6.118-1.858-5.236-2.052.762-.51,4.127-2.359,5.052-1.07-1.374-1.173-3.957-3.021-3.385.43,4.183-1.825,6.493-3.629,2.173-2.19,1.633-.991-2.492-2.679-2.7-2-.268-1.021,2.565-1.206,3.771-.544,3.451-1.2,3.474-1.894,2.458s-1.413-3.092-2.185-3.807a2.654,2.654,0,0,0-1.372-.772l-.467,5.888.814.062c.519.03,1.26.07,2.15.118,1.778.089,4.15.157,6.524.194,4.746.08,9.492-.047,9.492-.047a.954.954,0,0,1,1.048-.026s3.741-.083,7.478-.336c1.869-.117,3.735-.288,5.132-.459.7-.066,1.279-.188,1.686-.242l.639-.1Z"/><path class="t" d="M370.919,378.492c-.841,1.215.846,2.1-.954,3.27-2.069,1.268-2.845.373-3.166-1.029s-.24-3.285-.655-4.053c-1.241-2.33-2.079-1.033-2.99.653-.895,1.7-1.849,3.781-3.109,3.005-.143-1.77.47-5.493-1.848-4.693-2.06.687-.52,3.705-2.376,4.54-1.069-1.234-1.171-3.553-3.025-3.037.428,3.755-1.824,5.827-3.636,1.949-2.193,1.461-1-2.239-2.694-2.428-2.008-.246-1.016,2.3-1.2,3.382-.534,3.1-1.188,3.114-1.889,2.2s-1.43-2.783-2.211-3.431a2.847,2.847,0,0,0-1.386-.7l-.773,9.757c1.11-.081,2.2-.277,2.778.275,1.511,1.446,1.068,3.982,3.945,3.171.106-2,.765-7.707,3.4-4.719a2.555,2.555,0,0,1,2.721-.2c1.735.792.6,1.025,1.485,2.313,1.2,1.746,2.82,4.105,4.678.958a3.815,3.815,0,0,1-.685-4.993c.809-1.209,2.14-1.636,2.565-.226,4.075-.792,1.491,2.918,2.8,5.72,1.679.1,2.374-1.533,3.94-1.879,1.572-.327,2.785.669,4.212,1.025a3.062,3.062,0,0,1,.576-2.651,2.145,2.145,0,0,1,1.962-.452c.6.094.574,1.438,1.829.75l-1.944-9.606a4.382,4.382,0,0,0-1.341.488A3.136,3.136,0,0,0,370.919,378.492Z"/><path class="r" d="M344.621,385.522c.715.034.884-1.545,1.367-1.884.192,1.245.671.036.784-.533a7.285,7.285,0,0,0,.058-2.423c-.075-.487-.809-3.474-1.182-3.573-.206-.051-.15,2.976-.211,3.53a5.414,5.414,0,0,1-.332,1.822C344.9,382.866,342.751,385.433,344.621,385.522Z"/><path class="r" d="M347.962,379.677a14.629,14.629,0,0,0,.966,4.911c.871-1.1-.889-3.656-.051-5.071a3.81,3.81,0,0,1-.821.049Z"/><path class="r" d="M353.039,377.437c-.056-.034-.052-.274-.094-.127.146,1.756-.346,3.549-1.741,4.132-.068.786.9,1.8,1.2,2.5.287.669.3,1.978.837,2.253a22.716,22.716,0,0,1,.189-4.885c.282-1.473.768-3.185-.482-4.214Z"/><path class="r" d="M357.33,376.589a15.179,15.179,0,0,0-.511,2.289,6.538,6.538,0,0,1-.73,1.7c-.272.66-.22.714.118,1.536.25.609.408,1.407.9,1.79.323-.6.942-.539,1.1-1.171a7.924,7.924,0,0,0-.329-2.158,9.13,9.13,0,0,1,.259-4.566Z"/><path class="r" d="M360.554,383.608c.067.1.739.257.912.365.359.223.537.585.933.7a5.138,5.138,0,0,0,.311.64,18.746,18.746,0,0,1,.475-4.8c.4-1.571,1-3.013,1.3-4.579-.818,1.441-1.473,3.154-2.639,4.278C361.111,380.907,359.505,382.052,360.554,383.608Z"/><path class="r" d="M371.154,381.074c-.011.783-.552.95-.48,1.687a5.431,5.431,0,0,0,2.82,3.4,30.671,30.671,0,0,1-1.668-4.135,3.251,3.251,0,0,1,.031-2.04c.159-.326.49-.425.62-.75.176-.449-.172-.748.121-1.2a5.247,5.247,0,0,0-.843.162,1.25,1.25,0,0,0-.8.491C370.516,379.441,371.16,380.267,371.154,381.074Z"/><path class="s" d="M340.139,378.8c.531,1.073-.16,3.4-.063,4.682.109,1.344.37,3.141,1.256,4.054a4.843,4.843,0,0,1,1.138-2.9c.764-1.045.665-.879.029-1.961-.493-.842-.594-1.886-1.005-2.74-.468-.973-1.055-1.129-1.665-1.735Z"/><path class="s" d="M346.1,377.02c-.189.373.729,2.327.833,2.98.153.993.174,3.056.742,3.764.094-1.2.053-7.4-1.659-6.976Z"/><path class="s" d="M349.069,379.7a3.27,3.27,0,0,0,.04,2.307,11.9,11.9,0,0,1,.171,2.56c.372-.974.188-2.142.589-3.069a5.878,5.878,0,0,1-.8-1.913Z"/><path class="s" d="M353.589,377.547a4.016,4.016,0,0,1,.472,1.935,3.084,3.084,0,0,1-.058.919c-.1.28-.429-.067-.518.215a12.423,12.423,0,0,0-.144,3.315,6.011,6.011,0,0,0,.393,2.935c.439.867,1.212,1.567,1.376,2.623.8-.152.986-1.1,1.367-1.813-1.01.867-2.129-1.358-2.367-2.275-.2-.743-.843-3.525.516-3.168.122.3.366.58.473.895.057.168.055.814.124.907.5.675.611.245,1.118-.271-.426-.447-.887-.627-1.158-1.327-.328-.847.076-1.134.074-1.848a7.162,7.162,0,0,0-1.209-3.044Z"/><path class="s" d="M358.414,380.676c.123.528.166,1.667.561,1.9.6.349,1.126-.465.954-1.132.132.515-.868.337-1.02.2-.358-.336-.35-1.368-.353-1.844,0-.568.263-3.168,1.075-1.94.326-1.417-.4-2.3-1.24-1.123C357.594,377.839,358.123,379.414,358.414,380.676Z"/><path class="s" d="M364.055,379.442a16.73,16.73,0,0,0-.89,3.463c-.167,1.151-.214,3.209.959,3.7s2.548-.952,3.644-1.117c-.765-.789-2.031.158-2.953-.286-1.136-.557-1.178-1.877-.806-3.129.237-.764,1.426-2.53,1.7-.89.107.643-.374.752-.391,1.28-.013.391.343.743.359,1.2.018-.767.692-1.1.824-1.837a4.1,4.1,0,0,0-.5-2.174c-.316-.763-.075-3.129-.5-3.2C364.51,376.272,364.31,378.77,364.055,379.442Z"/><path class="s" d="M370.271,388.26c-.126-1.116.407-2.476,1.534-2.577-1-.688-2.461.578-2.888-.613-.644-1.839.84-.977,1.631-.766-.142-1.868-1.43-1.724-1.927-.2A3.578,3.578,0,0,0,370.271,388.26Z"/><path class="o" d="M340.893,383.25c1.7-.314,2.763,1.631,3.5,2.806.868,1.381,1.6,2.947,3.086,3.817a7.3,7.3,0,0,0,5.719.37c.322-.1,1.24-.239,1.207-.576a9.743,9.743,0,0,1-.037-1.244,15.4,15.4,0,0,1,.148-2.973c.374-1.669,1.651-2.685,3.382-1.9a4.88,4.88,0,0,1,.637.354c.316.207.325.092.654-.045a4.606,4.606,0,0,1,1.314-.331,5.833,5.833,0,0,1,2.934.525c.552.235,1.318.586,1.292,1.269a3.578,3.578,0,0,0,.724,2.031c.419.742.87,1.473,1.266,2.224a2.246,2.246,0,0,0,1.937.973,10.169,10.169,0,0,0,4.167-.259c-1.161-.769-2.776-2.082-2.5-3.624.338-1.894,2.731-2.541,4.414-2.735-2.075-.406-3.943-1.443-5.978-1.978a32.866,32.866,0,0,0-6.009-.946,41.144,41.144,0,0,0-6.577.044c-1.949.178-3.828.711-5.763.925-1.616.179-3.227-1.036-4.478-1.852-.422-.277-3.853-2.377-4.039-1.519Q341.4,380.925,340.893,383.25Z"/><path class="o" d="M376.661,384.056a2.276,2.276,0,0,1,.575.26c.308.2.354.488.727.358a11.479,11.479,0,0,0,1.634-.758c.84-.445,2.069-1.146,2.954-.438.921.736,1.108,2.044,1.877,2.9a2.428,2.428,0,0,0,1.309.778c.747.153,1.092-.317,1.579-.8a7.54,7.54,0,0,0,1.788-2.883,20.233,20.233,0,0,1,1.262-3.606c1.1-1.917,3.495-3.078,5.433-4.035-.77-.635-2.456-2.707-.911-3.516.844-.44.93.468,1.307.931.3.37.549-.035.556-.306q.061-2.355.122-4.708a8.02,8.02,0,0,0-5.362,1.934,59.345,59.345,0,0,0-4.708,5.217c-1.646,1.812-2.9,3.97-4.713,5.648C380.65,382.433,378.81,383.956,376.661,384.056Z"/><path class="p" d="M397.025,362.328a11.431,11.431,0,0,0-5.915,1.552c-.841.505-2.686,1.679-2.287,2.9.134.412.592.59.866.9a1.329,1.329,0,0,1,.079,1.347,9.261,9.261,0,0,1-2.589,4.27c-1.769,1.369-3.634-.232-5.1-1.224a3.3,3.3,0,0,0-2.788-.669,2.663,2.663,0,0,0-1.953,1.2,3.922,3.922,0,0,0,.008,2.675c.119.5.237,1,.364,1.505.1.4.361.745.475,1.147a2,2,0,0,1-.392,1.938.821.821,0,0,1-.816.175c-.057-.23-.118-.459-.179-.687-.428-1.588-1.033-3.151-1.4-4.748a1.2,1.2,0,0,1-.109.653c-.225.667-.5,1.322-.775,1.97a2.343,2.343,0,0,1-1.01,1.378c-.444.208-1.4.4-1.694-.04a22.848,22.848,0,0,0-2.078-3.371,4.647,4.647,0,0,0-3.466-1.272,3.794,3.794,0,0,1-2.767,4.065c-2,.432-3.863-.951-5.127-2.288a4.45,4.45,0,0,1-2.156.467c-.77-.116-1.091-.845-1.469-1.409a2.4,2.4,0,0,0-1.241-1.017c-.505-.162-1.847-.329-2.2.177a6.16,6.16,0,0,0-.057,2.472,7.418,7.418,0,0,1-.151,2.834,2.819,2.819,0,0,1-.766,1.48c-.672.553-1.331-.146-1.609-.734a6.037,6.037,0,0,1-.522-2.6,3.886,3.886,0,0,0-.829-2.412,7.186,7.186,0,0,0-2.224-1.719c-.229-.116-1.919-.79-1.97-.554q-.621,2.874-1.241,5.748c2.071.022,3.776,1.619,5.452,2.6a5.4,5.4,0,0,0,2.622.93,6.44,6.44,0,0,0,1.854-.243,37.586,37.586,0,0,1,13.532-.432,28.833,28.833,0,0,1,6.036,1.582,21.7,21.7,0,0,0,3.049,1,14.475,14.475,0,0,0,1.509.049A3.887,3.887,0,0,0,377.1,384a9.187,9.187,0,0,0,4.795-2.781,47.073,47.073,0,0,0,3.927-4.646,63.336,63.336,0,0,1,5.067-5.833,8.3,8.3,0,0,1,5.95-2.511C396.954,368.23,397.01,362.92,397.025,362.328Z"/><path class="u" d="M389.373,366.012c-.3.533-.472,1.1.072,1.522.312.243.627.451.624.878a4.417,4.417,0,0,1-.733,1.907,10.8,10.8,0,0,1-1.464,2.412,2.8,2.8,0,0,1-2.593,1.179,6.079,6.079,0,0,1-2.307-1.187,3.894,3.894,0,0,0-2.027-.968,4.132,4.132,0,0,0-2.215.659,2.57,2.57,0,0,0-.937,2.427,20.44,20.44,0,0,0,.341,2.235,6.906,6.906,0,0,1,.367,1.89c-.064.717-.532,1.621-1.422,1.436-.267-.842-.444-1.709-.694-2.556a19.656,19.656,0,0,0-.67-1.9c-.3-.733-.52-.068-.735.373a22.569,22.569,0,0,1-1.011,2.153,1.759,1.759,0,0,1-1.694.7c-.521-.024-.614-.209-.882-.622-.209-.323-.4-.656-.593-.987a8.564,8.564,0,0,0-1.139-1.619,4.769,4.769,0,0,0-3.508-1.3,3.357,3.357,0,0,1-2.9,3.661,4.743,4.743,0,0,1-2.637-.494,8.259,8.259,0,0,1-1.151-.7c-.374-.262-.9-.964-1.333-.819a4.007,4.007,0,0,1-2,.326c-.721-.152-1.009-.84-1.411-1.355a2.189,2.189,0,0,0-1.4-.844c-.6-.1-1.861-.186-2.057.543a7.95,7.95,0,0,0,.086,2.72,4.936,4.936,0,0,1-.56,2.526c-.241.453-.7.945-1.283.727-.836-.31-1.167-1.46-1.333-2.218a14.474,14.474,0,0,0-.469-2.346,4.769,4.769,0,0,0-1.8-2.035,6.525,6.525,0,0,0-2.616-1.1c-.317-.06-.241.019-.3.29q-.991,4.6-1.986,9.2c1.774-.242,2.885,1.576,3.705,2.818.877,1.328,1.638,2.8,3.133,3.572a7.552,7.552,0,0,0,5.71.075c.24-.075.479-.154.719-.235a6.029,6.029,0,0,1-.046-.657c-.01-.4.018-.792.006-1.188a5.974,5.974,0,0,1,.5-2.873,2.094,2.094,0,0,1,1.7-1.225,2.856,2.856,0,0,1,1.056.1c.444.123,1.086.654,1.481.492a5.965,5.965,0,0,1,5.357.526c.591.4.361.784.512,1.352a3.79,3.79,0,0,0,.652,1.1c.31.457.585.935.913,1.38a3.886,3.886,0,0,0,1.425,1.5,6.72,6.72,0,0,0,1.965.374,7.786,7.786,0,0,0,3.149-.251c-1.062-.669-2.712-1.924-2.449-3.339.319-1.727,2.569-2.207,4.1-2.34a5.437,5.437,0,0,1,2.326.2,1.943,1.943,0,0,1,.787.54c.427-.16.847-.32,1.266-.5,1.067-.6,2.808-1.809,3.787-.491.507.672.7,1.518,1.242,2.17.411.5,1.464,1.143,2.065.622a9.211,9.211,0,0,0,2.761-4.284A8.329,8.329,0,0,1,391.187,378a26.909,26.909,0,0,1,4.055-2.67c-.826-.675-1.718-1.918-1-2.965.217-.317.876-.759,1.282-.479.312.214.4.968.879.921s.362-.326.372-.7l.047-1.836q.094-3.683.19-7.366a11.31,11.31,0,0,0-4.855,1.032,6.724,6.724,0,0,0-2.782,2.069C388.663,367.266,389.585,365.677,389.373,366.012Z"/><path class="r" d="M350.562,383.775c1.5-.112,1.422-1.721,2.416-2.4.4.729.878.4,1.129-.219a3.506,3.506,0,0,0,.043-2.308,5.354,5.354,0,0,0-1.227-1.908,8.082,8.082,0,0,1-.968-1.056c-.1-.164-.341-.812-.56-.835.07.012.207,3.572.21,3.994.01,1.478-.8,2.228-1.907,3.154-.322.272-1,.793-.553,1.233a1.906,1.906,0,0,0,1.417.349C351.42,383.71,349.542,383.832,350.562,383.775Z"/><path class="r" d="M355.995,376.955a10.415,10.415,0,0,0,2.293,4.757c1.669-1.3-2.025-3.577-.453-5.059C357.364,376.722,356.332,376.607,355.995,376.955Z"/><path class="r" d="M366.636,375.016a.385.385,0,0,1-.109-.185,5.272,5.272,0,0,1-.275,1.209,3.324,3.324,0,0,1-.848,1.264,4.512,4.512,0,0,1-1.329.843,6.32,6.32,0,0,1-.97.316c-.266.064-.719,0-.659.341.161.909,1.313,1.561,1.851,2.261.572.743.269,2.181,1.215,2.645.325-1.84.436-3.546,1.487-5.174a3.709,3.709,0,0,0,.91-2.2,2.382,2.382,0,0,0-1.418-1.684C366.539,374.772,366.588,374.893,366.636,375.016Z"/><path class="r" d="M374.96,376.494a11.791,11.791,0,0,1-1.119,2.242c-.408.571-1.276.681-1.859,1.028-.466.276-.487.546-.363,1.038a7.289,7.289,0,0,0,.6,2.259c.29.444.39.264.847.207a9.793,9.793,0,0,0,1.084-.1c.821-.2.56-1.112.464-1.7-.3-1.847.318-3.682.708-5.471-.046.091-.252.5-.364.5C374.688,377.128,374.959,376.494,374.96,376.494Z"/><path class="r" d="M378.7,383.444c.374.134,1.226-.379,1.606-.471.448-.148.93-.135,1.375-.288.253-.088.341-.2.6-.155.234.041.473-.006.706.032A21,21,0,0,1,380.4,378.6a40.6,40.6,0,0,0-2.137-4.939c.128.982.326,1.953.476,2.933a7.05,7.05,0,0,1,.054,2.855c-.339,1.162-1.9,3.288-.1,4C378.829,383.49,377.588,383.006,378.7,383.444Z"/><path class="r" d="M390.821,368.2c.238.584-.208,1.139-.093,1.724.111.556.83.728,1.307.848.675.171,1.368.279,2.031.494.468.151.917.4,1.395.514a6.984,6.984,0,0,0-2.038-2.394c-.689-.576-1.819-1.421-1.676-2.431.138-.977,1.113-1.293,1.806-1.842.233-.185.4-.373.327-.671-.094-.394.207-.6.533-.787a8.65,8.65,0,0,0-4.363,1.882c-.366.34-.9.953-.62,1.48.3.555,1.15.575,1.391,1.183C390.976,368.575,390.666,367.806,390.821,368.2Z"/><path class="s" d="M344.068,374.045c1.173,1.2-.513,3-.835,4.225a14.031,14.031,0,0,0-.235,2.364,4.863,4.863,0,0,0,.219,2.51c.829-1.336,2.294-1.266,3.706-1.522.246-.045.8-.106.793-.452a9.991,9.991,0,0,0-.5-1.557c-.281-1.348.317-2.654-.553-3.9a7.78,7.78,0,0,0-3.463-2.4A9.586,9.586,0,0,1,344.068,374.045Z"/><path class="s" d="M351.719,374.866c-.051.617.6,1.068,1.011,1.422a4.759,4.759,0,0,1,1.362,1.478c.484,1.076.766,2.661,1.9,3.3a10.3,10.3,0,0,0-1.074-4.428,3.841,3.841,0,0,0-1.667-1.8C353.071,374.742,351.254,374.35,351.719,374.866Z"/><path class="s" d="M358.235,376.822c-.671.668-.2,1.415.138,2.114a6.314,6.314,0,0,1,.529,2.735c.516-.829.325-1.849.741-2.71.138-.289.342-.3.06-.547-.178-.157-.356-.314-.528-.477a3.854,3.854,0,0,1-.943-1.229C358.232,376.745,358.234,376.783,358.235,376.822Z"/><path class="s" d="M367.814,375.314a2.367,2.367,0,0,1,.246,2.978c-.291.272-.8-.308-1.073,0a3.343,3.343,0,0,0-.692,1.744c-.091.569-.137,1.141-.25,1.707a4.847,4.847,0,0,0-.129,2.1c.3,1.218,1.776,2.3,1.456,3.639.948.124,1.746-.625,2.531-1.012-1.647.11-2.581-1.956-2.818-3.265a5.079,5.079,0,0,1-.029-2.37.941.941,0,0,1,.864-.669,2.255,2.255,0,0,1,.874.169c.141.334.4.606.547.939.253.585-.3.954.288,1.483.445.4,1.124.1,1.641.026-.548-.716-1.508-1.342-1.571-2.313-.045-.7.88-.922.9-1.625a4.84,4.84,0,0,0-1.33-2.852C368.832,375.468,368.466,375.452,367.814,375.314Z"/><path class="s" d="M375.152,380.819c.125.606.04,1.425.522,1.9a.972.972,0,0,0,1.514-1.156c.329.528-1.148.536-1.412.321-.415-.31-.424-.963-.423-1.422a11.008,11.008,0,0,1,.132-1.578c.054-.37.138-1.785.661-.947a4.346,4.346,0,0,0-.342-1.479c-.245-.561-.418.239-.5.482a7.249,7.249,0,0,0-.151,3.876C375.266,381.371,375.017,380.141,375.152,380.819Z"/><path class="s" d="M380.467,376.6c.5,1.691,1.944,6.164,4.613,5.316,2.6-.825,2.593-4.121,4.063-5.909-1.246.249-1.9,1.839-2.611,2.709-.874,1.079-2.62,2.114-3.683.671a3.32,3.32,0,0,1-.626-1.912c-.018-.582,0-1.611.629-1.934.753-.388,1.111.389,1.128.952.032.968.954.427,1.487.858-.44-.429-.252-1.179-.266-1.715a1.364,1.364,0,0,0-1.107-1.362,13.279,13.279,0,0,1-1.568-.251,5.862,5.862,0,0,1-1.311-.925,2.213,2.213,0,0,0-1.063-.612c-.519-.036-.781.8-.8,1.179-.062,1.136.845,1.909,1.117,2.935C380.841,377.853,380.253,375.79,380.467,376.6Z"/><path class="s" d="M394,375.023a2.071,2.071,0,0,1-.154-3.205c-1.619-.063-2.372,3.449-4.155,2.126-.948-.7,1.537-1.991,1.987-2.26a1.274,1.274,0,0,0-2.019.017,2.538,2.538,0,0,0-.271,2.53c.77,1.839,3.115,1.357,4.612.792C393.081,374.359,393.088,375.366,394,375.023Z"/><path class="v" d="M389.373,366.012c-.3.533-.472,1.1.072,1.522.312.243.627.451.624.878a4.417,4.417,0,0,1-.733,1.907,10.8,10.8,0,0,1-1.464,2.412,2.8,2.8,0,0,1-2.593,1.179,6.079,6.079,0,0,1-2.307-1.187,3.894,3.894,0,0,0-2.027-.968,4.132,4.132,0,0,0-2.215.659,2.57,2.57,0,0,0-.937,2.427,20.44,20.44,0,0,0,.341,2.235,6.906,6.906,0,0,1,.367,1.89c-.064.717-.532,1.621-1.422,1.436-.267-.842-.444-1.709-.694-2.556a19.656,19.656,0,0,0-.67-1.9c-.3-.733-.52-.068-.735.373a22.569,22.569,0,0,1-1.011,2.153,1.759,1.759,0,0,1-1.694.7c-.521-.024-.614-.209-.882-.622-.209-.323-.4-.656-.593-.987a8.564,8.564,0,0,0-1.139-1.619,4.769,4.769,0,0,0-3.508-1.3,3.357,3.357,0,0,1-2.9,3.661,4.743,4.743,0,0,1-2.637-.494,8.259,8.259,0,0,1-1.151-.7c-.374-.262-.9-.964-1.333-.819a4.007,4.007,0,0,1-2,.326c-.721-.152-1.009-.84-1.411-1.355a2.189,2.189,0,0,0-1.4-.844c-.6-.1-1.861-.186-2.057.543a7.95,7.95,0,0,0,.086,2.72,4.936,4.936,0,0,1-.56,2.526c-.241.453-.7.945-1.283.727-.836-.31-1.167-1.46-1.333-2.218a14.474,14.474,0,0,0-.469-2.346,4.769,4.769,0,0,0-1.8-2.035,6.525,6.525,0,0,0-2.616-1.1c-.317-.06-.241.019-.3.29q-.991,4.6-1.986,9.2c1.774-.242,2.885,1.576,3.705,2.818.877,1.328,1.638,2.8,3.133,3.572a7.552,7.552,0,0,0,5.71.075c.24-.075.479-.154.719-.235a6.029,6.029,0,0,1-.046-.657c-.01-.4.018-.792.006-1.188a5.974,5.974,0,0,1,.5-2.873,2.094,2.094,0,0,1,1.7-1.225,2.856,2.856,0,0,1,1.056.1c.444.123,1.086.654,1.481.492a5.965,5.965,0,0,1,5.357.526c.591.4.361.784.512,1.352a3.79,3.79,0,0,0,.652,1.1c.31.457.585.935.913,1.38a3.886,3.886,0,0,0,1.425,1.5,6.72,6.72,0,0,0,1.965.374,7.786,7.786,0,0,0,3.149-.251c-1.062-.669-2.712-1.924-2.449-3.339.319-1.727,2.569-2.207,4.1-2.34a5.437,5.437,0,0,1,2.326.2,1.943,1.943,0,0,1,.787.54c.427-.16.847-.32,1.266-.5,1.067-.6,2.808-1.809,3.787-.491.507.672.7,1.518,1.242,2.17.411.5,1.464,1.143,2.065.622a9.211,9.211,0,0,0,2.761-4.284A8.329,8.329,0,0,1,391.187,378a26.909,26.909,0,0,1,4.055-2.67c-.826-.675-1.718-1.918-1-2.965.217-.317.876-.759,1.282-.479.312.214.4.968.879.921s.362-.326.372-.7l.047-1.836q.094-3.683.19-7.366a11.31,11.31,0,0,0-4.855,1.032,6.724,6.724,0,0,0-2.782,2.069C388.663,367.266,389.585,365.677,389.373,366.012Z"/><path class="w" d="M389.373,366.012c-.3.533-.472,1.1.072,1.522.312.243.627.451.624.878a4.417,4.417,0,0,1-.733,1.907,10.8,10.8,0,0,1-1.464,2.412,2.8,2.8,0,0,1-2.593,1.179,6.079,6.079,0,0,1-2.307-1.187,3.894,3.894,0,0,0-2.027-.968,4.132,4.132,0,0,0-2.215.659,2.57,2.57,0,0,0-.937,2.427,20.44,20.44,0,0,0,.341,2.235,6.906,6.906,0,0,1,.367,1.89c-.064.717-.532,1.621-1.422,1.436-.267-.842-.444-1.709-.694-2.556a19.656,19.656,0,0,0-.67-1.9c-.3-.733-.52-.068-.735.373a22.569,22.569,0,0,1-1.011,2.153,1.759,1.759,0,0,1-1.694.7c-.521-.024-.614-.209-.882-.622-.209-.323-.4-.656-.593-.987a8.564,8.564,0,0,0-1.139-1.619,4.769,4.769,0,0,0-3.508-1.3,3.357,3.357,0,0,1-2.9,3.661,4.743,4.743,0,0,1-2.637-.494,8.259,8.259,0,0,1-1.151-.7c-.374-.262-.9-.964-1.333-.819a4.007,4.007,0,0,1-2,.326c-.721-.152-1.009-.84-1.411-1.355a2.189,2.189,0,0,0-1.4-.844c-.6-.1-1.861-.186-2.057.543a7.95,7.95,0,0,0,.086,2.72,4.936,4.936,0,0,1-.56,2.526c-.241.453-.7.945-1.283.727-.836-.31-1.167-1.46-1.333-2.218a14.474,14.474,0,0,0-.469-2.346,4.769,4.769,0,0,0-1.8-2.035,6.525,6.525,0,0,0-2.616-1.1c-.317-.06-.241.019-.3.29q-.991,4.6-1.986,9.2c1.774-.242,2.885,1.576,3.705,2.818.877,1.328,1.638,2.8,3.133,3.572a7.552,7.552,0,0,0,5.71.075c.24-.075.479-.154.719-.235a6.029,6.029,0,0,1-.046-.657c-.01-.4.018-.792.006-1.188a5.974,5.974,0,0,1,.5-2.873,2.094,2.094,0,0,1,1.7-1.225,2.856,2.856,0,0,1,1.056.1c.444.123,1.086.654,1.481.492a5.965,5.965,0,0,1,5.357.526c.591.4.361.784.512,1.352a3.79,3.79,0,0,0,.652,1.1c.31.457.585.935.913,1.38a3.886,3.886,0,0,0,1.425,1.5,6.72,6.72,0,0,0,1.965.374,7.786,7.786,0,0,0,3.149-.251c-1.062-.669-2.712-1.924-2.449-3.339.319-1.727,2.569-2.207,4.1-2.34a5.437,5.437,0,0,1,2.326.2,1.943,1.943,0,0,1,.787.54c.427-.16.847-.32,1.266-.5,1.067-.6,2.808-1.809,3.787-.491.507.672.7,1.518,1.242,2.17.411.5,1.464,1.143,2.065.622a9.211,9.211,0,0,0,2.761-4.284A8.329,8.329,0,0,1,391.187,378a26.909,26.909,0,0,1,4.055-2.67c-.826-.675-1.718-1.918-1-2.965.217-.317.876-.759,1.282-.479.312.214.4.968.879.921s.362-.326.372-.7l.047-1.836q.094-3.683.19-7.366a11.31,11.31,0,0,0-4.855,1.032,6.724,6.724,0,0,0-2.782,2.069C388.663,367.266,389.585,365.677,389.373,366.012Z"/><path class="o" d="M359.215,366.673a18.321,18.321,0,0,1,1.818-.558,2.061,2.061,0,0,1,1.432.042,10.06,10.06,0,0,1,2.317,2.158,2.278,2.278,0,0,0,1.083.61,1.371,1.371,0,0,0,.633-.056,2.215,2.215,0,0,0,.365-.153,2.42,2.42,0,0,0,.339-.218,18.41,18.41,0,0,1-.47-4.738,2.072,2.072,0,0,1,.635-1.594c.366-.225.937-.114,1.588.682a1.691,1.691,0,0,1,2.344-.258c1.58,1.075.469,1.206,1.114,2.731a10.6,10.6,0,0,0,1.389,2.814c.559.6,1.278.476,2.488-1.006a5.216,5.216,0,0,1-.159-4.178,3.477,3.477,0,0,1,2.218-2.133l-.84-.217-2.251-.418a27.045,27.045,0,0,0-6.892-.444,49.136,49.136,0,0,0-6.806,1.372c-.931.214-1.71.383-2.264.469s-.866.154-.866.154Z"/><path class="o" d="M379.428,361.1a1.335,1.335,0,0,1,.245.949c2.155.269,2.192,1.212,1.7,2.419a14.184,14.184,0,0,0-1.541,4.46,2.312,2.312,0,0,0,1.842-.082,3.455,3.455,0,0,1,2-.315,2.269,2.269,0,0,1,1.3,1.235,4.279,4.279,0,0,1,.335.865,5.341,5.341,0,0,0,.322.831,4.151,4.151,0,0,1,2.308-1.931,1.265,1.265,0,0,1,1.442.862c.21.455-.976,1.41.159,1.656l3.649-3.533-1.856-1.6a29.324,29.324,0,0,0-4.535-2.943,24.1,24.1,0,0,0-2.625-1.241,38.706,38.706,0,0,0-4.748-1.631Z"/><path class="p" d="M397.5,364.335a7.8,7.8,0,0,0-3.379-1.72c-.921.12-1.145.713-1.486,1.2s-.788.868-2.013.686a5.088,5.088,0,0,1-1.552-.434,1.531,1.531,0,0,1-.784-.634,2.4,2.4,0,0,1,.084-1.968c.541-1.513,1.828-3.217,1.828-4.229-.009-1.569-.549-2.147-1.291-2.208a5.024,5.024,0,0,0-2.659,1c-.959.584-1.94,1.378-2.788,1.8-.853.445-1.573.542-2.134-.1.466-1.918,2.689-5.622-.645-5.636-1.452-.008-1.866.993-2.249,1.987s-.729,2.022-1.9,2.26a21.4,21.4,0,0,1-1.008-2.66,1.882,1.882,0,0,0-2.164-1.239c.019,2.106-.719,3.657-1.6,4.122-.98.534-2.134-.033-3.576-2.049-.72.459-1.129.585-1.447.474a1.593,1.593,0,0,1-.736-.849c-.4-.794-.857-1.845-1.992-1.692-1.4.178-1.433.879-1.256,1.68.2.8.709,1.716.769,2.325.357,3.485-.289,3.683-1.31,2.913-1.037-.761-2.359-2.548-3.276-3.042a2.3,2.3,0,0,0-1.431-.431l.928,5.836s.315-.055.866-.154,1.333-.255,2.264-.469a49.136,49.136,0,0,1,6.806-1.372,27.045,27.045,0,0,1,6.892.444l2.251.418.84.217a1.048,1.048,0,0,1,1.079.278,38.706,38.706,0,0,1,4.748,1.631,24.1,24.1,0,0,1,2.625,1.241,29.324,29.324,0,0,1,4.535,2.943l1.856,1.6Z"/><path class="x" d="M393.811,363c-.875.076-1.061.618-1.365,1.054s-.713.776-1.9.553a5.526,5.526,0,0,1-1.517-.476,1.657,1.657,0,0,1-.79-.616,2.092,2.092,0,0,1,0-1.811c.463-1.37,1.64-2.887,1.605-3.814-.061-1.442-.6-1.982-1.319-2.06a4.8,4.8,0,0,0-2.54.83c-.911.5-1.846,1.2-2.662,1.564a1.675,1.675,0,0,1-2.1-.146c.41-1.722,2.486-5.029-.764-5.107-1.416-.038-1.806.86-2.163,1.749s-.678,1.811-1.834,2.006a18.465,18.465,0,0,1-1.036-2.411,1.922,1.922,0,0,0-2.143-1.137c.039,1.894-.674,3.28-1.549,3.688-.961.477-2.11-.038-3.507-1.837-.706.416-1.111.535-1.423.44a1.421,1.421,0,0,1-.708-.757c-.385-.708-.809-1.65-1.923-1.492-1.371.18-1.424.818-1.265,1.538.18.721.661,1.533.707,2.082.274,3.14-.374,3.334-1.37,2.662s-2.288-2.247-3.2-2.67a2.491,2.491,0,0,0-1.446-.36l1.537,9.673c.617-.2,1.233-.412,1.795-.53a2.2,2.2,0,0,1,1.409.01,9.115,9.115,0,0,1,2.242,1.9,2.166,2.166,0,0,0,1.063.526,1.556,1.556,0,0,0,.639-.068,2.487,2.487,0,0,0,.371-.148,2.983,2.983,0,0,0,.355-.2,14.907,14.907,0,0,1-.355-4.268,1.867,1.867,0,0,1,.675-1.449c.375-.208.945-.12,1.6.592a1.886,1.886,0,0,1,2.4-.234c1.605.987.485,1.09,1.159,2.47a9.435,9.435,0,0,0,1.466,2.558c.583.555,1.321.457,2.507-.849a4,4,0,0,1,.621-5.005c1.1-.981,2.665-.967,2.627.5,2.146.3,2.214,1.169,1.769,2.25s-1.341,2.51-1.365,4.009a2.57,2.57,0,0,0,1.855.008,3.559,3.559,0,0,1,1.987-.2,2.566,2.566,0,0,1,1.364,1.216,4.167,4.167,0,0,1,.386.83,5.491,5.491,0,0,0,.374.8,3.414,3.414,0,0,1,2.143-1.683,1.4,1.4,0,0,1,1.45.9c.231.446-.851,1.288.264,1.592l7.146-6.92A8.224,8.224,0,0,0,393.811,363Z"/><path class="r" d="M364.464,362.292c.718-.163.458-1.735.877-2.18.5,1.166.7-.12.7-.7a6.483,6.483,0,0,0-.48-2.379,13.656,13.656,0,0,0-1.022-1.755c-.489-.731-1.057-1.4-1.3-1.384s.643,2.916.725,3.468a5.062,5.062,0,0,1,.145,1.851C363.972,359.664,362.565,362.721,364.464,362.292Z"/><path class="r" d="M366.742,355.8a18.322,18.322,0,0,0,1.791,4.716c.386-.583.092-1.475-.283-2.4s-.815-1.883-.356-2.634c-.365.094-.691.121-1.052.189Z"/><path class="r" d="M373.554,353.5c-.066-.041-.032-.278-.1-.141a5.022,5.022,0,0,1-.639,2.45,3.206,3.206,0,0,1-1.867,1.489,2.208,2.208,0,0,0,.473,1.29,8.149,8.149,0,0,1,.689,1.292c.235.7.109,2.006.6,2.345a20.237,20.237,0,0,1,.825-4.825c.5-1.421,1.4-3.038-.056-4.252Z"/><path class="r" d="M379.1,353.587a11.514,11.514,0,0,0-1.187,2.1c-.4.787-.781.907-1.229,1.483s-.392.65-.2,1.53a4.361,4.361,0,0,0,.553,1.939c.483-.531,1.107-.277,1.45-.844.306-.495.152-1.621.225-2.18.214-1.5.457-3.286,1.564-4.316Z"/><path class="r" d="M380.648,361.347c.035.118.643.517.771.68.27.341.3.74.635.993a5.606,5.606,0,0,0,.031.7,15.154,15.154,0,0,1,2.517-4.184c1.107-1.218,2.486-2.168,3.652-3.359a54.4,54.4,0,0,1-4.987,2.5,7.481,7.481,0,0,0-1.941.756A1.576,1.576,0,0,0,380.648,361.347Z"/><path class="r" d="M392.071,364.98c-.6.538-1.169.272-1.63.863a4.858,4.858,0,0,0-.659,2.189,5.184,5.184,0,0,0-.018,2.08c.832-1.211,1.236-2.65,2.126-3.945a2.8,2.8,0,0,1,1.6-1.326c.389-.082.761.183,1.151.116.544-.087.469-.621,1.148-.573-.451-.41-1.42-1.291-2.093-1.212C392.694,363.328,392.7,364.429,392.071,364.98Z"/><path class="s" d="M358.083,357.047c.766.909.69,3.332,1.1,4.553.439,1.261,1.251,2.968,2.471,3.571a4.629,4.629,0,0,1,.359-3.109c.47-1.233.42-1.044-.555-1.887a26.168,26.168,0,0,1-1.8-2.352,6.119,6.119,0,0,0-2.006-1.279Z"/><path class="s" d="M363.788,353.666c-.125.408,1.5,2.054,1.742,2.671.395.928.884,2.948,1.6,3.545a18.874,18.874,0,0,0-.943-4c-.6-1.581-1.508-2.872-2.567-2.409Z"/><path class="s" d="M368.168,355.64c-.455.792.052,1.548.291,2.293a9.831,9.831,0,0,1,.426,2.535c.306-1,.018-2.151.433-3.11a6.735,6.735,0,0,1-1.161-1.832Z"/><path class="s" d="M374.231,353.7a3.23,3.23,0,0,1,.3,1.987,2.647,2.647,0,0,1-.208.9c-.151.262-.49-.128-.631.139a10.834,10.834,0,0,0-.593,3.268,6.2,6.2,0,0,0,.005,2.959,7.248,7.248,0,0,1,.856,2.776c.73-.015,1.086-.9,1.6-1.531-1.1.655-1.737-1.73-1.87-2.65-.07-.756-.406-3.605,1.05-3.063.082.327.3.647.354.978.031.178-.09.813-.035.919.387.76.576.362,1.219-.036-.349-.527-.8-.8-.968-1.545-.2-.9.292-1.1.427-1.8a5.661,5.661,0,0,0-.925-3.232Z"/><path class="s" d="M379.288,357.878c-.015.547-.291,1.651.059,1.991.525.517,1.338-.1,1.38-.783-.029.53-1.047.051-1.172-.135-.289-.432.011-1.421.147-1.878.15-.55,1.256-2.948,1.864-1.491.882-1.224.234-2.341-1.174-1.5C379.088,354.88,379.334,356.58,379.288,357.878Z"/><path class="s" d="M386.029,359.036a11.783,11.783,0,0,0-2.491,2.661c-.676.984-1.521,2.828-.758,3.765a2.065,2.065,0,0,0,1.707.509,5.565,5.565,0,0,1,1.884.227c-.083-.524-.529-.762-1.007-.969s-1.037-.312-1.331-.721c-.741-.992-.239-2.221.715-3.156.56-.589,2.738-1.5,2.159.07-.234.609-.773.458-1.056.912-.208.334-.048.815-.271,1.218.418-.677,1.218-.588,1.751-1.12a3.466,3.466,0,0,0,.7-2.145c.072-.853,1.641-2.7,1.187-3.05C388.092,356.477,386.616,358.568,386.029,359.036Z"/><path class="s" d="M386.432,369.748c.635-.941,1.9-1.678,2.742-1.065-.188-1.115-2.074-1.02-1.634-2.21.632-1.864,1.292-.231,1.726.425,1.21-1.461-.014-2.294-1.371-1.359A4.1,4.1,0,0,0,386.432,369.748Z"/><path class="o" d="M383.674,365.8c.589-.055,1.237-.141,1.387.488.388,1.671-.631,4.268.938,3.758a29.547,29.547,0,0,1,1.89-4.243c.73-1.255,1.5-1.781,1.579-.008.717-.416,1.208-.249,1.465.417a1.321,1.321,0,0,1,.011,1.2,5.448,5.448,0,0,0-.522,1.389c-.209.969-.549,2.079-.586,2.6s.229.458,1.484-.7a13.257,13.257,0,0,1,2.027-3.443,3.661,3.661,0,0,1,2.262-1.422l-.4-.315c-.254-.2-.626-.473-1.1-.771a23.734,23.734,0,0,0-3.629-1.863,39.624,39.624,0,0,0-5.663-1.842Z"/><path class="o" d="M396.092,366.268a1.6,1.6,0,0,1-.39.8c.533.286.656.64.492.963a3.156,3.156,0,0,1-1.119.991c-.541.348-1.192.749-1.852,1.2s-1.336.931-1.993,1.334c-.078-.016-.04-.108.07-.22a1.6,1.6,0,0,1,.461-.39,3.378,3.378,0,0,1,.585-.35c.171-.1.321-.17.391-.224.113-.1-.115-.152-.43-.283a2.627,2.627,0,0,1-.5-.215,1.931,1.931,0,0,1-.443-.213c.671.274,1.221.488,1.641.688a3.823,3.823,0,0,1,.874.55c.38.32.239.583-.1.639-.291.058-1.415-.863-1.223-.226l3.8,3.076.238-.319a7.549,7.549,0,0,0,.586-.869,5.7,5.7,0,0,0,.892-2.962,4.982,4.982,0,0,0-1.035-2.886,7.25,7.25,0,0,0-.673-.795Z"/><path class="p" d="M400.861,378.019a4.386,4.386,0,0,0,.7-1.468,2.69,2.69,0,0,0,.12-1.3c-.3-.76-.91-.87-1.431-1.111a1.832,1.832,0,0,1-1.161-1.45,4.3,4.3,0,0,1-.173-1.126.98.98,0,0,1,.283-.635,3.475,3.475,0,0,1,1.754-.613c.769-.114,1.667-.136,2.48-.171a3.755,3.755,0,0,0,1.963-.422,2.865,2.865,0,0,0,1.123-1.531,1.732,1.732,0,0,0-.184-1.385,3.9,3.9,0,0,0-2.636-1.558,21.161,21.161,0,0,0-3.155-.255,3.186,3.186,0,0,1-1.041-.2.771.771,0,0,1-.426-.687c.669-.7,1.878-1.6,2.627-2.482.756-.866.95-1.888-.352-2.485-1.119-.459-1.84.275-2.543,1.034s-1.4,1.543-2.252,1.488c.035-.785.351-1.749.451-2.536s-.037-1.456-.867-1.589c-.82,1.882-1.887,3.11-2.592,3.377s-1.11-.459-.921-2.674c-2.1.916.193-2.541-1.013-3.178-1.434-.722-1.511,2.167-2.012,3.243-1.386,3.113-1.753,3.039-1.933,1.967s-.174-3.138-.594-3.936a1.673,1.673,0,0,0-.887-.911l-1.361,5.622a39.624,39.624,0,0,1,5.663,1.842,23.734,23.734,0,0,1,3.629,1.863c.469.3.841.572,1.1.771l.4.315c.3.006.5.154.483.434l.278.284a7.25,7.25,0,0,1,.673.795,4.982,4.982,0,0,1,1.035,2.886,5.7,5.7,0,0,1-.892,2.962,7.549,7.549,0,0,1-.586.869l-.238.319Z"/><path class="t" d="M401.255,375.023c-.254-.712-.806-.8-1.274-1.017a1.588,1.588,0,0,1-1.016-1.362,4.677,4.677,0,0,1-.129-1.1,1.075,1.075,0,0,1,.264-.629,2.953,2.953,0,0,1,1.579-.6,20.818,20.818,0,0,1,2.226-.163,3.252,3.252,0,0,0,1.761-.394,2.649,2.649,0,0,0,1-1.427,1.666,1.666,0,0,0-.176-1.294,3.654,3.654,0,0,0-2.4-1.491,20.693,20.693,0,0,0-2.885-.314,3.007,3.007,0,0,1-.966-.228.806.806,0,0,1-.422-.661c.6-.629,1.691-1.428,2.358-2.228.673-.782.83-1.72-.4-2.308-1.059-.455-1.715.2-2.352.874s-1.266,1.376-2.083,1.293c.008-1.445,1.073-3.482-.543-3.806a5.456,5.456,0,0,1-2.384,3c-.687.207-1.1-.462-.987-2.473-2.015.768.11-2.306-1.079-2.92-1.415-.693-1.416,1.924-1.875,2.886-1.271,2.785-1.64,2.706-1.847,1.73s-.255-2.847-.685-3.577a1.7,1.7,0,0,0-.891-.842l-2.257,9.315c.6-.034,1.242-.093,1.413.482.443,1.529-.491,3.85,1.084,3.45a23.722,23.722,0,0,1,1.734-3.794c.683-1.117,1.418-1.571,1.574.054a.945.945,0,0,1,1.471.448c.488,1.117-.166,1.045-.374,2.365a20.77,20.77,0,0,0-.414,2.4c.016.506.293.469,1.465-.532a11.754,11.754,0,0,1,1.207-2.434,5.331,5.331,0,0,1,1.613-1.587c1.08-.656,2.079-.3,1.209.847.525.3.659.653.524.961a2.523,2.523,0,0,1-.99.909c-.485.314-1.074.668-1.667,1.068s-1.187.81-1.776,1.214c-.058.008-.013-.054.1-.136a1.642,1.642,0,0,1,.437-.3,2.862,2.862,0,0,1,.542-.259c.157-.067.3-.111.361-.135.106-.044-.1-.043-.392-.122a2.435,2.435,0,0,1-.462-.134,2.589,2.589,0,0,1-.418-.134c.6.244,1.1.44,1.468.628a2.933,2.933,0,0,1,.768.528c.328.318.177.591-.15.68-.282.077-1.282-.76-1.156-.128l7.455,6.024a4.451,4.451,0,0,0,.69-1.4A2.653,2.653,0,0,0,401.255,375.023Z"/><path class="r" d="M387.475,363.665c.395.144.972-1.3,1.371-1.525-.279,1.192.385.161.644-.338a10.435,10.435,0,0,0,.828-2.225c.125-.464.562-3.4.3-3.578a28.555,28.555,0,0,0-1.2,3.247,8.09,8.09,0,0,1-.756,1.64C388.382,361.212,386.415,363.294,387.475,363.665Z"/><path class="r" d="M391.407,358.919a25.08,25.08,0,0,0-1.165,4.7,4.439,4.439,0,0,0,.886-2.193,5.173,5.173,0,0,1,.954-2.419,2.028,2.028,0,0,1-.572-.164Z"/><path class="r" d="M395.843,358.516c-.025-.05.091-.255-.009-.147-.721,1.571-1.9,2.9-3,3.019a10.754,10.754,0,0,0-.38,2.538c-.144.662-.735,1.8-.608,2.183a31.488,31.488,0,0,1,2.425-4.127c.86-1.169,2.089-2.4,1.664-3.8Z"/><path class="r" d="M399.493,359.939a10.743,10.743,0,0,0-1.75,1.477,9.549,9.549,0,0,1-1.448.988c-.54.414-.524.484-.8,1.283a6.6,6.6,0,0,0-.566,1.769c.516-.344.78-.033,1.268-.435a9.094,9.094,0,0,0,1.188-1.763c.853-1.2,1.812-2.68,3.108-3.232l-.505-.049Z"/><path class="r" d="M396.651,366.733c-.046.1.077.523.052.664-.063.307-.308.586-.3.819-.191.162-.335.339-.473.453a13.916,13.916,0,0,1,4.317-1.857,14.686,14.686,0,0,1,4.814.232c-1.734-1.05-3.668-1.143-5.162-1.488a3.879,3.879,0,0,0-1.748-.111A2.185,2.185,0,0,0,396.651,366.733Z"/><path class="r" d="M399.052,373.756c-.632-.436-.552-.834-1.211-1.136a11.929,11.929,0,0,0-2.086-.537,9.187,9.187,0,0,0-1.634-.267c1.208.733,2.491,1.132,3.855,1.8a3.579,3.579,0,0,1,1.575,1.22c.171.3.037.609.18.9.2.423.65.382.75.911.277-.308.827-1.176.592-1.708C400.711,374.145,399.693,374.227,399.052,373.756Z"/><path class="s" d="M386.2,356.669c.183,1.086-.759,3.241-.938,4.482a11.887,11.887,0,0,0-.15,3.993,6.541,6.541,0,0,1,1.346-2.62c.719-.892.637-.742.5-1.853-.107-.865.066-1.866-.027-2.742a3.842,3.842,0,0,0-.86-1.866Z"/><path class="s" d="M390.975,356.018a24.256,24.256,0,0,0-.366,2.954,17.123,17.123,0,0,0-.8,3.625c.478-1.074,2.608-6.781,1.174-6.814Z"/><path class="s" d="M392.144,359.221a4.481,4.481,0,0,0-.834,2.1,16.407,16.407,0,0,1-.862,2.359c.583-.79.921-1.889,1.529-2.617a8.3,8.3,0,0,1,.21-1.945Z"/><path class="s" d="M396.187,358.833a4.361,4.361,0,0,1-.62,1.83,3.986,3.986,0,0,1-.495.755c-.2.2-.241-.218-.434-.008a16.628,16.628,0,0,0-1.667,2.787,10.556,10.556,0,0,0-1.21,2.616,9.339,9.339,0,0,1-.763,2.545c.343.055.934-.665,1.473-1.13-.418.2-.44-.2-.323-.788a10.723,10.723,0,0,1,.507-1.762c.289-.676,1.252-3.277,1.873-2.492-.085.3-.089.607-.2.908-.057.159-.4.692-.415.792-.108.723.171.4.718.176a4.569,4.569,0,0,1,.108-1.506c.258-.823.644-.906,1.028-1.49a6.785,6.785,0,0,0,.751-3.041Z"/><path class="s" d="M397.641,363.613c-.276.453-.995,1.3-.956,1.654.055.518.86.264,1.27-.27-.3.41-.678-.258-.672-.43.034-.424.711-1.171,1.026-1.515.356-.418,2.314-2.112,2.049-.635.627-.343.979-.795.963-1.174s-.383-.628-1.1-.509a2.519,2.519,0,0,0-1.536,1.151C398.292,362.439,397.969,363.07,397.641,363.613Z"/><path class="s" d="M401.553,367.288a7.69,7.69,0,0,0-3.44.506,10.672,10.672,0,0,0-1.842.906,6.964,6.964,0,0,0-1.31.981c-.083.114-.084.174-.023.218a2.38,2.38,0,0,0,.343.127,1.7,1.7,0,0,1,.441.2c.137.081.239.18.245.275.436-.085.4-.292.358-.475-.084-.189-.19-.344-.022-.577a4.28,4.28,0,0,1,2.79-1.389,2.346,2.346,0,0,1,1.464.352c.411.271.461.687-.323.875-.62.147-.761-.243-1.271-.161-.374.063-.7.357-1.14.419.743-.108,1.107.328,1.8.458a3.467,3.467,0,0,0,2.132-.5,5.974,5.974,0,0,1,1.806-.3c.681-.055,1.279-.124,1.279-.47a1.2,1.2,0,0,0-.428-.935,2.277,2.277,0,0,0-.985-.409A13,13,0,0,0,401.553,367.288Z"/><path class="s" d="M393.048,370.29a7.992,7.992,0,0,1,1.474.645c.4.242.589.533.493.716a.418.418,0,0,0,.5-.434c.051-.2.1-.329.688-.255.924.1,1.118.246,1.029.44s-.5.351-.682.466c.843.388,1.319.382,1.445.15s-.154-.647-.829-.942a8.058,8.058,0,0,0-2.323-.5C394.1,370.5,393.5,370.375,393.048,370.29Z"/><path class="e" d="M352.057,379.125A.672.672,0,0,0,351.04,379c-.636.522-.841,1.315-1.587,1.5.143-.035-.376-.036-.184,0-.14-.028-.04.02-.148-.084-.158-.153-.241-.842-.406-1.187a.869.869,0,0,0-1.467,0,2.261,2.261,0,0,0,2.261,3.222C350.968,382.318,353.054,380.662,352.057,379.125Z"/><path class="e" d="M345.426,388.251a20.374,20.374,0,0,0-.959-1.937,4.385,4.385,0,0,0-1.255-1.414,2.972,2.972,0,0,0-.848-.42c-.445-.139-.8.1-1.24.027-.1-.018-.187.128-.077.175.411.177.769.83,1.109,1.131a4.95,4.95,0,0,1,1.071,1.5c.458.89.623,2.725,1.766,2.991a.632.632,0,0,0,.7-.276C346.053,389.371,345.71,388.878,345.426,388.251Z"/><path class="e" d="M346.605,389.422c-1.017-.7-1.265-2.246-1.781-3.29-.541-1.1-1.772-2.633-3.21-2.046a.461.461,0,0,0-.226.538c.234.55.685.986.959,1.527.329.65.592,1.3.857,1.976.48,1.23,1.055,2.906,2.539,3.274A1.09,1.09,0,0,0,346.605,389.422Z"/><path class="e" d="M357.88,384.017c-.954-1.168-2.79.136-3.252,1.111a2.974,2.974,0,0,0-.268,1.944c.17.61.6,1.093.812,1.689a.232.232,0,0,0,.447-.119,4.8,4.8,0,0,1,.56-2.367c.313-.9,1.126-.521,1.7-1.137A.8.8,0,0,0,357.88,384.017Z"/><path class="e" d="M364.1,383.923c-.99-.928-2.99-1.4-3.616.15a.611.611,0,0,0,.294.7c.722.442,1.4.411,1.929,1.148.615.854.848,1.986,1.571,2.751.668.708,2.14.194,2.04-.817A7.14,7.14,0,0,0,364.1,383.923Z"/><path class="e" d="M346.874,380.425c-.341,1.083,1.025,2.1,2.074,2.1a2.7,2.7,0,0,0,2.675-2.292c.044-.47-.542-.7-.917-.509a9.367,9.367,0,0,1-1.666.909,1.065,1.065,0,0,1-.331.042c-.246-.2-.33-.568-.6-.776-1.629-1.282-.731,3.614-.627,4.176.3,1.618.7,3.887,2.123,4.977,1.468,1.123,1.277-.528,1.2-1.71-.155-2.393-.833-4.447-.181-6.845Z"/><path class="e" d="M358.422,383.642a2.717,2.717,0,0,0-1.826-.006,2.806,2.806,0,0,0-1.536.879c-.432.473-1.257,2.089-.448,2.564a.164.164,0,0,0,.241-.179,2.5,2.5,0,0,1,.893-2.2,2.527,2.527,0,0,1,1.447-.506,2.647,2.647,0,0,0,1.229-.18A.217.217,0,0,0,358.422,383.642Z"/><path class="e" d="M366.731,388.323c-.648-.773-1.262-1.062-1.631-2.074-.2-.546-.085-1.414-.6-1.822a5.286,5.286,0,0,0-3.7-.66.194.194,0,0,0-.049.356,4.034,4.034,0,0,0,1.563.357,9.279,9.279,0,0,1,1.136.226c.682.183.691.635.785,1.176a3.69,3.69,0,0,0,2.136,2.9A.3.3,0,0,0,366.731,388.323Z"/><path class="s" d="M353.074,389.531c.353-1.794,1.057-3.673.94-5.586a10.292,10.292,0,0,1,3.839-1.252,25.775,25.775,0,0,1-1.711-2.524c.736,1.632-1.3,1.612-1.974.474-.2,1.411-1.088,1.247-1.883,2.053-1.131,1.148-.539,1.283-.446,2.9C351.928,387.114,350.3,389.755,353.074,389.531Z"/><path class="g" d="M370.338,389.7c-1.269-1.676-4.313-2.591-4.174-5.046.014.26-.048.54-.036.786-1.024-.869-2.05-2.847-3.438-3.025C366.556,382.9,365.337,390.775,370.338,389.7Z"/><path class="g" d="M384.522,383.062c-.291.344-.806,2.825-.317,3.213.938.743,1.7-1.125,2.073-1.7.133.128.4.253.543.392a21.9,21.9,0,0,0,2.25-4.983,9.35,9.35,0,0,1,2.494-3.9c-1.677.519-3.15,2.52-3.87,4.076-.684,1.478-.68,3.236-2.6,3.222a3.452,3.452,0,0,0-1.275-1.517Z"/><path class="g" d="M384.7,383.574c-.187.7-.7,2.062.151,2.55a1.3,1.3,0,0,1,1.924-1.371c.489-.982.888-2.042,1.3-3-.416.995-2.4,3.7-3.373,2.161Z"/><path class="y" d="M398.278,367.649c-2.172-.368-3.784.873-5.541,2.049-2.442,1.635-3.694,3.58-6.825,4.3-4.127.954-6.1,6.227-7.588,9.472-.039.085.069.188.144.107,3.039-3.343,4.8-7.559,9.716-8.532a6.964,6.964,0,0,0,3.462-2.193c2.065-2.05,4.347-2.94,6.727-4.5C398.629,368.183,398.646,367.71,398.278,367.649Z"/><path class="y" d="M393.106,372.1a4.742,4.742,0,0,0-4.044-.48.314.314,0,0,0-.066.5,8.624,8.624,0,0,0,2.708.936,3.416,3.416,0,0,1,2.207,2.584.7.7,0,0,0,.678.5.9.9,0,0,0,.187-.025.678.678,0,0,0,.517-.656A4.435,4.435,0,0,0,393.106,372.1Z"/><path class="y" d="M336.272,386.026a5.169,5.169,0,0,1-.51-1.874c-.09-.919.116-1.815-.028-2.732-.022-.139-.2-.142-.29-.074a3.418,3.418,0,0,0-.954,3.13c.075,1.008.457,2.8,1.7,2.988a.328.328,0,0,0,.409-.3A1.978,1.978,0,0,0,336.272,386.026Z"/><path class="y" d="M342.341,384.075c-1.487-.225-.723-1.879-.935-2.763a3.988,3.988,0,0,0-1.864-2.628c-1.042-.572-1.619.16-2.122.942-.021.033.025.061.053.039,1.434-1.14,2.581.486,2.922,1.647a8.835,8.835,0,0,1,.1,1.913c.123,1.4,1.984,1.876,3.03,2.286a.184.184,0,0,0,.224-.124C343.976,384.474,343.116,384.194,342.341,384.075Z"/><path class="y" d="M335.87,382.321c-.176-.515-.822-.407-1.245-.3-.593.145-.848-.217-1.049-.689a5.3,5.3,0,0,1-.232-1.664,15.944,15.944,0,0,1-.106-1.62c0-.027-.042-.032-.049-.006a7.582,7.582,0,0,0-.56,3.683,1.916,1.916,0,0,0,3.1,1.1A.5.5,0,0,0,335.87,382.321Z"/><path class="g" d="M345.442,384.478c-.58-.912-1.267-1.722-2.271-1.754.1-1.309.015-2.861-1.188-3.55a.357.357,0,0,0-.523.389c.208,1.3.328,2.529.454,3.84a.6.6,0,0,0,.754.556c1.213-.4,2.2,1.965,2.854,2.678a6.939,6.939,0,0,0,2.557,2.173.3.3,0,0,0,.377-.279C348.617,386.971,346.234,385.724,345.442,384.478Z"/><path class="g" d="M345.671,384.048A16.272,16.272,0,0,0,344,382.4c-.686-.62-.666-1.454-1.067-2.213a.287.287,0,0,0-.486,0c-.544,1.224.081,2.317,1,3.184a17.133,17.133,0,0,1,2.283,2.45c.588.815.992,1.954,1.968,2.374.137.061.333-.006.323-.178C347.948,386.629,346.542,385.106,345.671,384.048Z"/><path class="g" d="M341.971,386.883c-1.083-.408-2.328.542-3.117-.664-.565-.864-.2-2.043-.713-2.942a.262.262,0,0,0-.468.06c-.505,1.417-.062,3.6,1.416,4.311.9.428,1.893-.071,2.8.3,1.253.514.709,1.953,1.676,2.59a.362.362,0,0,0,.486-.124C344.834,389.054,343.185,387.34,341.971,386.883Z"/><path class="g" d="M342.145,387.177c-.548-.257-1.215-.168-1.793-.419a3.474,3.474,0,0,1-1.847-2.516.059.059,0,0,0-.111,0c-.591,1.455.384,2.846,1.73,3.535.593.3,1.454.1,1.94.523.793.686.72,1.943,1.649,2.457a.42.42,0,0,0,.607-.239C344.538,389.263,343.285,387.714,342.145,387.177Z"/><path class="e" d="M389.57,373.407c-.922.195-1.765.627-2.7.83a11.489,11.489,0,0,0-2.4.729,4.667,4.667,0,0,0-2.3,2.62c-.08.408.5.7.723.3a4.944,4.944,0,0,1,3.046-2.531c1.312-.38,3.126-.331,3.942-1.558C390.01,373.587,389.788,373.36,389.57,373.407Z"/><path class="e" d="M397.38,374.46c-.537-.328-1.068-.661-1.593-1.007a6.315,6.315,0,0,0-1-.736.093.093,0,0,0-.091.024c-.645.612.927,1.581,1.329,1.848a21.147,21.147,0,0,1,3.3,2.344.288.288,0,0,0,.479-.271C399.527,375.617,398.249,374.991,397.38,374.46Z"/><path class="e" d="M403.554,368.976c-.878-.605-2.29-.51-3.326-.6a7.114,7.114,0,0,0-3.8.4c-1.712.9-2.872,2.924-1.383,4.437.074.074.2-.022.147-.11-.521-.806.126-2.016.635-2.651a3.556,3.556,0,0,1,2.971-1c1.4.006,3.514.779,4.754,0A.276.276,0,0,0,403.554,368.976Z"/><path class="e" d="M379.31,354.36c-1.008.3-1.534,1.725-1.864,2.585-.375.975-.653,2.343.089,3.216.316.372.93-.027.8-.453a4.189,4.189,0,0,1,.2-2.75c.286-.8.873-1.422,1.2-2.183C379.841,354.535,379.542,354.292,379.31,354.36Z"/><path class="e" d="M372.862,358.366c.3-1.067,1.006-1.939,1.372-2.963.04-.108-.1-.2-.194-.145a5.576,5.576,0,0,0-2.005,3.194c-.231.739-.505,2.637.66,2.756a.2.2,0,0,0,.2-.145,1.24,1.24,0,0,0-.148-.773A3.2,3.2,0,0,1,372.862,358.366Z"/><path class="e" d="M365.936,357.488a5.594,5.594,0,0,0-1.617-2.555c-.117-.131-.3.057-.2.189a4.124,4.124,0,0,1,.823,2.495,13.458,13.458,0,0,0-.173,2.115c.05.267.394.287.572.145A2.492,2.492,0,0,0,365.936,357.488Z"/><path class="e" d="M386.264,356.991a.345.345,0,0,0-.421-.231c-.721.171-1.048,1.237-1.375,1.794a5.819,5.819,0,0,1-1.718,1.765.249.249,0,0,0,.052.395c.875.523,1.747-.463,2.208-1.078a12.825,12.825,0,0,0,.879-1.433A1.828,1.828,0,0,0,386.264,356.991Z"/><path class="e" d="M394.936,360.214c-1.706-.13-3.231,2.137-2.943,3.658a.482.482,0,0,0,.916,0,5.02,5.02,0,0,1,.543-1.825A5.831,5.831,0,0,1,395,360.423.113.113,0,0,0,394.936,360.214Z"/><path class="e" d="M398.722,362.078a1.534,1.534,0,0,0-1.783.665c-.389.456-1.13,1.662-.513,2.174a.423.423,0,0,0,.48.061.782.782,0,0,0,.387-.578,2.7,2.7,0,0,1,.4-.91,9.136,9.136,0,0,1,1.055-1.177A.148.148,0,0,0,398.722,362.078Z"/><path class="g" d="M388.67,379.386c-1.4,1.531-1.9,3.67-3.071,5.383a3.294,3.294,0,0,1-.25-.723.43.43,0,0,0-.771-.1,1.986,1.986,0,0,0,.567,2.27.63.63,0,0,0,.872,0,13.5,13.5,0,0,0,3.293-6.575C389.351,379.326,388.874,379.162,388.67,379.386Z"/><path class="g" d="M401.455,375.314c-.16-.585-.692-1.525-1.442-1.359a.451.451,0,0,0-.322.55c.072.369.5.639.634,1.009.086.234.185.64-.019.839-.156.151-.626-.4-.781-.545a9.938,9.938,0,0,0-1.107-.993.251.251,0,0,0-.347.336c.628.965,1.529,3.166,3.045,1.987A1.759,1.759,0,0,0,401.455,375.314Z"/><path class="g" d="M400.842,374.087c-.382-.4-1.113.131-.782.584a.8.8,0,1,1-.97.607.132.132,0,0,0-.208.156,2.662,2.662,0,0,0,2.233,1.463.511.511,0,0,0,.519-.5A3.334,3.334,0,0,0,400.842,374.087Z"/><path class="g" d="M405.6,367.863a2.98,2.98,0,0,0-2.63-1.35.32.32,0,0,0-.079.586,7.962,7.962,0,0,1,1.5,1.124,1.654,1.654,0,0,1,.218.29.094.094,0,0,1,.012.03.9.9,0,0,0-.127.1c-.186.131-.387.194-.485.412a.321.321,0,0,0,.051.382c.422.438,1.249.147,1.574-.265A1.136,1.136,0,0,0,405.6,367.863Z"/><path class="g" d="M405.314,367.681a1.565,1.565,0,0,0-1.291-.814c-.028,0-.055-.011-.084-.013a.311.311,0,0,0-.171.571,5.9,5.9,0,0,0,.523.579c.265.343.112.483.006.855a.442.442,0,0,0,.547.531A1.1,1.1,0,0,0,405.314,367.681Z"/><path class="g" d="M399.589,360.846a.327.327,0,0,0,.2.479c.362.116.751.061,1.119.174.285.087.464.474.665.668a.354.354,0,0,0,.54-.067C402.974,360.809,400.342,359.634,399.589,360.846Z"/><path class="g" d="M402.03,361.517a1.121,1.121,0,0,0-1.235-.634.374.374,0,0,0-.264.452,1.88,1.88,0,0,0,.781.877C401.78,362.548,402.227,361.925,402.03,361.517Z"/><path class="g" d="M397.155,358.959a.1.1,0,0,0-.15-.083,1.365,1.365,0,0,0-.607.769,6.353,6.353,0,0,1-.98,1.88c-.7.832-1.865,1.413-2.2,2.48-.09.287.232.45.47.351a7.271,7.271,0,0,0,2.6-2.184A4.591,4.591,0,0,0,397.155,358.959Z"/><path class="g" d="M396.8,360.109c-.588,1.23-2.2,2.047-2.385,3.465-.019.147.2.216.292.117a10.247,10.247,0,0,0,2.263-3.511C397,360.083,396.842,360.017,396.8,360.109Z"/><path class="g" d="M391.5,356.657a5.367,5.367,0,0,0-1.2,5.438.236.236,0,0,0,.447,0c.554-1.723.293-3.622.947-5.328C391.735,356.66,391.577,356.578,391.5,356.657Z"/><path class="g" d="M386.718,356.438a.155.155,0,0,0-.232.128,14.114,14.114,0,0,0,.175,2.015,9.28,9.28,0,0,1-.361,2.167c-.054.267.241.573.518.387C388.16,360.228,388.273,357.226,386.718,356.438Z"/><path class="g" d="M386.752,357.22a.116.116,0,0,0-.223.059,7.7,7.7,0,0,1-.6,3.683c-.062.176.186.3.314.177C387.348,360.056,387.239,358.583,386.752,357.22Z"/><path class="g" d="M380.8,354.13a.171.171,0,0,0-.277-.071,5.588,5.588,0,0,0-1.3,2.034,3.046,3.046,0,0,0-.456,2.087.3.3,0,0,0,.488.125,7.293,7.293,0,0,0,1.209-2.121A2.651,2.651,0,0,0,380.8,354.13Z"/><path class="g" d="M381.167,353.436a.227.227,0,0,0-.222.284,4.455,4.455,0,0,1-.116,2.513,18.145,18.145,0,0,0-1,2.651.293.293,0,0,0,.43.319C381.3,358.55,383.427,353.545,381.167,353.436Z"/><path class="g" d="M376.375,356.871a6.646,6.646,0,0,0-1.774-3.517.2.2,0,0,0-.34.135,14.057,14.057,0,0,0,.956,3.259c.325,1.087.154,2.411.77,3.371a.284.284,0,0,0,.477,0C377.029,359.163,376.623,357.889,376.375,356.871Z"/><path class="g" d="M374.37,354.261a.123.123,0,0,0-.208.083,6.807,6.807,0,0,0,.7,2.406c.368.915.358,1.971.807,2.835a.237.237,0,0,0,.4,0C376.765,358.061,375.489,355.373,374.37,354.261Z"/><path class="g" d="M368.04,355.356a.219.219,0,0,0-.3.293c.426.8,1.1,1.483,1.6,2.248a15.28,15.28,0,0,1,1.279,2.979c.044.114.251.15.277,0A5.729,5.729,0,0,0,368.04,355.356Z"/><path class="g" d="M369.891,357.808a4.8,4.8,0,0,0-2.1-1.883.135.135,0,0,0-.155.2,25.133,25.133,0,0,0,1.51,2.111,14.825,14.825,0,0,0,1.453,2.417.223.223,0,0,0,.376-.151A4.157,4.157,0,0,0,369.891,357.808Z"/><path class="g" d="M365.77,354.556a3.628,3.628,0,0,0-1.5-1.392c-.131-.047-.222.089-.2.2a4.67,4.67,0,0,0,.9,1.651,9.4,9.4,0,0,0,1.393,1.705.221.221,0,0,0,.369-.208A5.337,5.337,0,0,0,365.77,354.556Z"/><path class="g" d="M364.675,353.664a.2.2,0,0,0-.292.218,11.305,11.305,0,0,0,1.271,2.3c.494.814.743,1.72,1.154,2.57a.281.281,0,0,0,.5-.063C367.617,356.968,366.121,354.6,364.675,353.664Z"/><path class="e" d="M347.452,382.206c-.856.251,1.076,5.8,2.074,6.649,1.334-2.754-.687-6.478.4-9.212Z"/><path class="e" d="M385.677,382.258c.281-1.1.484-2.242.8-3.349a8.392,8.392,0,0,1,1.9-3.642c-.987,1.043-3.4-.078-4.432,2.082C383,379.311,384.088,381.015,385.677,382.258Z"/><path class="s" d="M356.369,382.668c-.736-1.374-2.487.481-2.81,1.224a7.873,7.873,0,0,0-.433,2.432c-.079.9-.316,1.732-.446,2.608a.439.439,0,0,0,.729.411c.844-.733.68-2.519.768-3.509a4.681,4.681,0,0,1,.572-2.115c.384-.61,1.225-.39,1.62-.948A.1.1,0,0,0,356.369,382.668Z"/><path class="s" d="M357.037,382.29c-1.6-.98-3.162.746-3.748,2.082-.357.817-1.229,3.995.1,4.381a.243.243,0,0,0,.231-.06c.335-.356.156-.848.12-1.291a6.076,6.076,0,0,1,.265-2.171c.47-1.634,1.575-2.124,3.03-2.767A.1.1,0,0,0,357.037,382.29Z"/><path class="s" d="M356.168,383.023c-.243-.527-.511-1.132-1.261-.914a3.246,3.246,0,0,0-1.717,1.386,4.536,4.536,0,0,0-.784,2.745,3.464,3.464,0,0,0,.7,2.461.256.256,0,0,0,.415-.106c.358-.858-.107-2.084-.049-3.018.05-.777,1.364-3.564,2.579-2.464A.076.076,0,0,0,356.168,383.023Z"/><path class="g" d="M311.876,366.011c.84-.478,1.449.07,2.452-.225,1.884-.553,1.856-2.1,4.234-1.544-.6-1-3.6-2.627-4.739-2.937,2.758.752-3.3,4.107-3.415,4.217a4.048,4.048,0,0,0-.932,4.249C310.235,368.6,310.529,366.775,311.876,366.011Z"/><path class="g" d="M313.414,364.829c.719-.337,2.587-.81,2.676-1.647s-1.473-1.818-2.063-2.071c2.2.945-1.984,3.435-2.321,3.614-1.891,1.005-4.177,2.375-2.342,4.767C309.41,366.939,311.325,365.809,313.414,364.829Z"/><path class="g" d="M309.246,368.235c.362-1.083.607-2.546,2.064-2.245,0-.031,0-.5,0-.512a8.771,8.771,0,0,0-1.653.535C309.087,366.6,309.266,367.45,309.246,368.235Z"/><path class="g" d="M314.75,361.471a13.666,13.666,0,0,1-1.117,2.613,23.077,23.077,0,0,1,2.807-.179c-.549-1-1.858-1.374-2.448-2.434Z"/><path class="g" d="M314.75,361.66a4.718,4.718,0,0,0-.35,1.678c.737.031,1.5.031,2.231-.011a5.266,5.266,0,0,0-2.639-1.856Z"/><path class="g" d="M315.887,371.323c-1.533-.1.439,1.868.758,2.276a4.529,4.529,0,0,1,1.327,3.41c-.121,2.627-2.108,4.21.535,6.233-.5-2.2-.65-2.272.222-4.329a6.191,6.191,0,0,0-.032-4.714c-1.208-.364-3.16-3.157-3.378-4.2Z"/><path class="g" d="M317.593,377.388c.211,2.58-2.273,3.4.946,5.324A9.446,9.446,0,0,0,319.8,381.2c-2.444,1.953-2.956-2.216-2.208-3.812Z"/><path class="g" d="M326.12,383.641c-1.983.521-.719,2.005.757,2.084,1.563.084,2.653-.422,3.993.687a3.4,3.4,0,0,0-2.855-1.638c-.687-.069-3.613.5-2.085-1.133Z"/><path class="g" d="M325.551,384.588c-1.561.795.44,1.421,1.326,1.517,1.245.133,2.337-.208,3.4.548-1-2.455-5.053.03-5.1-1.686Z"/><path class="z" d="M325.2,363.2c-5.681,1.52-13.522,9.953-14.661,16.193-.076.416.364.221.35.619,5.363.425,10.508-.81,16.122-.516,6.1.321,12.293.568,18.275,1.156,5.462.54,10.813.7,15.925,2.918,5.188,2.25,5.609,5.2,8.545,9.237.069-.076.464.075.532,0,2.737-5.373,7.326-10.548,11.463-15.634,3.743-4.6,12.512-7.043,18-8.922-.175-.084.2-.665,0-.758-5.052-2.38-17.683-6.993-22.486-6.822-5.5.2-23.106-1.639-29.326-1.64-3.98,0-7.953-.08-11.748.758Z"/><path class="aa" d="M325.2,363.2c-5.681,1.52-13.522,9.953-14.661,16.193-.076.416.364.221.35.619,5.363.425,10.508-.81,16.122-.516,6.1.321,12.293.568,18.275,1.156,5.462.54,10.813.7,15.925,2.918,5.188,2.25,5.609,5.2,8.545,9.237.069-.076.464.075.532,0,2.737-5.373,7.326-10.548,11.463-15.634,3.743-4.6,12.512-7.043,18-8.922-.175-.084.2-.665,0-.758-5.052-2.38-17.683-6.993-22.486-6.822-5.5.2-23.106-1.639-29.326-1.64-3.98,0-7.953-.08-11.748.758Z"/><path class="ab" d="M325.2,362.441c-6.061,1.622-14.491,10.636-14.722,17,5.363.424,10.919-1,16.533-.7,6.1.321,12.293.568,18.275,1.157,5.462.539,10.813.7,15.925,2.918,5.188,2.25,6.141,5.956,9.077,9.994,4.51-4.966,7.262-11.227,11.463-16.392,3.743-4.6,12.512-7.044,18-8.922-4.658-2.24-17.495-7.757-22.486-7.58-5.5.2-23.106-1.638-29.326-1.639-3.98,0-7.953-.081-11.748.757Z"/><path class="ac" d="M325.2,362.441c-6.061,1.622-14.491,10.636-14.722,17,5.363.424,10.919-1,16.533-.7,6.1.321,12.293.568,18.275,1.157,5.462.539,10.813.7,15.925,2.918,5.188,2.25,6.141,5.956,9.077,9.994,4.51-4.966,7.262-11.227,11.463-16.392,3.743-4.6,12.512-7.044,18-8.922-4.658-2.24-17.495-7.757-22.486-7.58-5.5.2-23.106-1.638-29.326-1.639-3.98,0-7.953-.081-11.748.757Z"/><path class="ad" d="M325.2,362.441c-6.061,1.622-14.491,10.636-14.722,17,5.363.424,10.919-1,16.533-.7,6.1.321,12.293.568,18.275,1.157,5.462.539,10.813.7,15.925,2.918,5.188,2.25,6.141,5.956,9.077,9.994,4.51-4.966,7.262-11.227,11.463-16.392,3.743-4.6,12.512-7.044,18-8.922-4.658-2.24-17.495-7.757-22.486-7.58-5.5.2-23.106-1.638-29.326-1.639-3.98,0-7.953-.081-11.748.757Z"/><path class="ae" d="M325.2,362.441c-6.061,1.622-14.491,10.636-14.722,17,5.363.424,10.919-1,16.533-.7,6.1.321,12.293.568,18.275,1.157,5.462.539,10.813.7,15.925,2.918,5.188,2.25,6.141,5.956,9.077,9.994,4.51-4.966,7.262-11.227,11.463-16.392,3.743-4.6,12.512-7.044,18-8.922-4.658-2.24-17.495-7.757-22.486-7.58-5.5.2-23.106-1.638-29.326-1.639-3.98,0-7.953-.081-11.748.757Z"/><path class="g" d="M324.067,362.831l10.992-3.41c3.793-.839,7.768-.759,11.748-.758,6.219,0,23.829,1.836,29.325,1.64,4.988-.178,17.812,5.333,22.477,7.574.395-.131.778-.259,1.146-.385-4.658-2.24-17.495-7.757-22.486-7.58-5.5.2-23.106-1.638-29.326-1.639-3.98,0-7.953-.081-11.748.757l-10.99,3.411a10.968,10.968,0,0,0-1.238.421C324,362.853,324.035,362.841,324.067,362.831Z"/><path class="g" d="M380.62,376.8c-3.952,4.856-6.812,11.548-5.286,9.154a100.593,100.593,0,0,1,6.422-9.545c2.695-3.313,7.993-5.5,12.8-7.175C389.473,370.957,383.53,373.228,380.62,376.8Z"/><path class="e" d="M327.079,373.623c-3.178-1.589-6.352-5.4-6.166-9.1-5.122,3.434-10.251,9.976-10.43,14.919,5.363.424,10.919-1,16.533-.7,6.1.321,12.293.568,18.275,1.157,5.462.539,10.813.7,15.925,2.918,5.188,2.25,6.141,5.956,9.077,9.994,4.51-4.966,7.262-11.227,11.463-16.392a15.98,15.98,0,0,1,4.415-3.544C366.474,376.658,346.776,380.441,327.079,373.623Z"/><path class="af" d="M311.146,379.437c.171-4.731,4.877-10.917,9.769-14.452,0-.156-.01-.311,0-.467-5.122,3.434-10.251,9.976-10.43,14.919.809.064,1.624.082,2.443.074C312.331,379.505,311.737,379.483,311.146,379.437Z"/><path class="ag" d="M391.052,365.1c.26,4.719-13.956,11.451-36.052,12.672-19.335,1.067-31.615-5.562-34.558-10.395-.42-.691-2.117-7.112-.66-8.09,4.373-2.931,16.638-2.118,35.683-3.171,17.954-.992,30.356-.426,34.777,3.374C391.263,360.366,391,364.215,391.052,365.1Z"/><path class="ah" d="M391.052,365.1c.26,4.719-13.956,11.451-36.052,12.672-19.335,1.067-31.615-5.562-34.558-10.395-.42-.691-2.117-7.112-.66-8.09,4.373-2.931,16.638-2.118,35.683-3.171,17.954-.992,30.356-.426,34.777,3.374C391.263,360.366,391,364.215,391.052,365.1Z"/><path class="ai" d="M391.052,365.1c.26,4.719-13.956,11.451-36.052,12.672-19.335,1.067-31.615-5.562-34.558-10.395-.42-.691-2.117-7.112-.66-8.09,4.373-2.931,16.638-2.118,35.683-3.171,17.954-.992,30.356-.426,34.777,3.374C391.263,360.366,391,364.215,391.052,365.1Z"/><path class="aj" d="M391.052,365.1c.26,4.719-13.956,11.451-36.052,12.672-19.335,1.067-31.615-5.562-34.558-10.395-.42-.691-2.117-7.112-.66-8.09,4.373-2.931,16.638-2.118,35.683-3.171,17.954-.992,30.356-.426,34.777,3.374C391.263,360.366,391,364.215,391.052,365.1Z"/><path class="s" d="M391.052,365.1c-.049-.884.211-4.733-.81-5.61a13.4,13.4,0,0,0-5.566-2.475l1.133,13.721C389.287,368.833,391.147,366.831,391.052,365.1Z"/><path class="ak" d="M319.782,359.286c-1.457.978.24,7.4.66,8.09,2.943,4.833,15.223,11.462,34.558,10.395Z"/><path class="ag" d="M390.559,360.589c.26,4.718-15.153,11.644-36.812,12.841s-34.3-7.649-34.561-12.368,13.333-8.088,34.993-9.285S390.3,355.871,390.559,360.589Z"/><path class="al" d="M390.559,360.589c.26,4.718-15.153,11.644-36.812,12.841s-34.3-7.649-34.561-12.368,13.333-8.088,34.993-9.285S390.3,355.871,390.559,360.589Z"/><path class="am" d="M390.559,360.589c.26,4.718-15.153,11.644-36.812,12.841s-34.3-7.649-34.561-12.368,13.333-8.088,34.993-9.285S390.3,355.871,390.559,360.589Z"/><path class="e" d="M355.958,372.415c-21.66,1.2-34.3-7.648-34.56-12.368-.073-1.325.949-2.545,2.936-3.64-3.427,1.337-5.244,2.9-5.148,4.655.261,4.719,12.9,13.564,34.561,12.368,13.25-.733,24.155-3.609,30.571-6.813C377.751,369.4,367.79,371.761,355.958,372.415Z"/><path class="an" d="M354.179,351.777c-10.91.6-19.77,1.758-25.848,3.358a164.966,164.966,0,0,1,21.54-2.388c21.659-1.2,36.119,4.094,36.38,8.811.173,3.145-6.621,7.267-17.58,10.025,13.461-2.675,22.083-7.456,21.888-10.994C390.3,355.871,375.838,350.58,354.179,351.777Z"/><path class="e" d="M339.287,357.8a3.184,3.184,0,0,0-2.829.3c-.231.117-.133.541.138.506.843-.106,1.93.219,2.691-.243A.329.329,0,0,0,339.287,357.8Z"/><path class="e" d="M337.146,362.973a3.264,3.264,0,0,0-2.153.27c-.189.084-.046.346.133.314a20.074,20.074,0,0,0,2.02-.253A.173.173,0,0,0,337.146,362.973Z"/><path class="e" d="M326.559,362.768a3.232,3.232,0,0,0-2.091-.289.154.154,0,0,0,0,.307c.318.026.632.06.948.1.356.042.715.134,1.074.14A.138.138,0,0,0,326.559,362.768Z"/><path class="e" d="M337.142,369.812a7.367,7.367,0,0,0-2.82-.024.172.172,0,0,0,0,.344,7.408,7.408,0,0,0,2.82-.024A.154.154,0,0,0,337.142,369.812Z"/><path class="e" d="M347.632,365.493a3.125,3.125,0,0,0-2.29-.177.364.364,0,0,0,0,.7,3.12,3.12,0,0,0,2.29-.177A.242.242,0,0,0,347.632,365.493Z"/><path class="e" d="M350.455,369.317a4.631,4.631,0,0,1-1.479.2.2.2,0,0,0,0,.39,2.977,2.977,0,0,0,1.587-.325A.143.143,0,0,0,350.455,369.317Z"/><path class="e" d="M349.783,358.413a6.251,6.251,0,0,0-1.923-.19,1.49,1.49,0,0,0-1.316.527c-.112.171.1.318.251.251.936-.41,2.022.032,2.988-.233A.186.186,0,0,0,349.783,358.413Z"/><path class="e" d="M356.843,363.265a3.638,3.638,0,0,0-2.155.463c-.226.109-.029.447.2.337a8.664,8.664,0,0,1,1.957-.548A.132.132,0,0,0,356.843,363.265Z"/><path class="e" d="M364.893,368.337c-.854.07-1.7.134-2.547.285a.077.077,0,0,0,0,.148,3.836,3.836,0,0,0,2.6-.234C365.035,368.486,365,368.328,364.893,368.337Z"/><path class="e" d="M358.173,355.385c-.806-.522-2.231-.76-2.644.351-.109.3.382.5.509.216.148-.337.492-.32.823-.273a5.292,5.292,0,0,0,1.211.082A.2.2,0,0,0,358.173,355.385Z"/><path class="e" d="M361.893,360.245a6.22,6.22,0,0,0-2.053-.047.161.161,0,0,0,0,.321,6.22,6.22,0,0,0,2.053-.046A.119.119,0,0,0,361.893,360.245Z"/><path class="e" d="M369.229,356.42a11.474,11.474,0,0,0-3.326-.04.189.189,0,0,0,0,.378,11.474,11.474,0,0,0,3.326-.04A.156.156,0,0,0,369.229,356.42Z"/><path class="e" d="M373.535,361.181a4.663,4.663,0,0,0-2.621.54.159.159,0,0,0,.085.307c.83-.222,1.718-.226,2.536-.47A.2.2,0,0,0,373.535,361.181Z"/><path class="e" d="M373.944,367.021a11.725,11.725,0,0,1-2.767,1.056c-.141.022-.091.221.031.232a3.856,3.856,0,0,0,2.9-1.012C374.219,367.191,374.1,366.954,373.944,367.021Z"/><path class="e" d="M382.613,362.76a5.66,5.66,0,0,0-2.056-.094.22.22,0,0,0,0,.439,5.726,5.726,0,0,0,2.056-.094A.131.131,0,0,0,382.613,362.76Z"/><path class="e" d="M379.924,358.211a.472.472,0,0,0-.117-.081c-.061-.04-.069-.031-.022.027a.352.352,0,0,0-.128-.129,1.338,1.338,0,0,0-.672-.139,6.338,6.338,0,0,0-.914.046.423.423,0,0,0,0,.8,6.979,6.979,0,0,0,.831.045,2.129,2.129,0,0,0,.669-.1.365.365,0,0,0,.158-.092c.065-.091.074-.1.027-.022a.59.59,0,0,0,.168-.106A.178.178,0,0,0,379.924,358.211Z"/><path class="e" d="M382.134,355.841a3.532,3.532,0,0,0-1.5-.009,8.388,8.388,0,0,0-1.892.314.178.178,0,0,0,0,.341c.957.313,2.715.542,3.495-.259A.234.234,0,0,0,382.134,355.841Z"/><path class="e" d="M384.683,360.275c-.367-.433-.989-.262-1.415-.034-.135.073-.039.31.1.248a1.577,1.577,0,0,1,.6-.153c.224,0,.408.137.632.142A.12.12,0,0,0,384.683,360.275Z"/><path class="e" d="M372.744,355.489a2.765,2.765,0,0,0-.777-.025.1.1,0,0,0,0,.189,2.765,2.765,0,0,0,.777-.025A.073.073,0,0,0,372.744,355.489Z"/><path class="e" d="M364.089,353.877c-.256.078-.5.168-.764.23a.2.2,0,0,0,0,.376.756.756,0,0,0,.958-.354A.173.173,0,0,0,364.089,353.877Z"/><path class="e" d="M349.383,354.141c-.255-.281-.658-.168-.971-.057a.221.221,0,0,0,0,.422c.313.111.716.225.971-.056A.221.221,0,0,0,349.383,354.141Z"/><path class="e" d="M330.119,357.156a1.879,1.879,0,0,0-.656.044c-.184.055-.321.15-.492.213a.174.174,0,0,0,0,.332c.131.05.227.13.365.175a2.338,2.338,0,0,0,.645.09c.287.009.812-.036.812-.431C330.793,357.218,330.383,357.185,330.119,357.156Z"/><path class="e" d="M348.894,362.308c-.047-.187-.289-.243-.455-.243-.352,0-.362.293-.557.484-.113.11.05.26.167.167.055-.043.231,0,.295.008a.754.754,0,0,0,.358-.077A.283.283,0,0,0,348.894,362.308Z"/><path class="e" d="M357.07,367.865a1.133,1.133,0,0,0-1.394-.619.46.46,0,0,0,0,.88c.363.084.7.02,1.059.075C356.926,368.231,357.14,368.083,357.07,367.865Z"/><path class="e" d="M368.077,363.383a.947.947,0,0,0-1.311.473.147.147,0,0,0,.039.149.576.576,0,0,0,.626.149,1.957,1.957,0,0,0,.646-.251A.3.3,0,0,0,368.077,363.383Z"/><path class="g" d="M336.343,370.136a8.188,8.188,0,0,0-.885.035,2.4,2.4,0,0,0-.888.15c-.012,0-.02.027,0,.034a1.7,1.7,0,0,0,1.832-.088A.078.078,0,0,0,336.343,370.136Z"/><path class="g" d="M326.011,362.662a4.6,4.6,0,0,0-.779-.041c-.3,0-.593-.15-.89-.124-.093.008-.182.112-.117.2.362.51,1.335.435,1.81.145A.1.1,0,0,0,326.011,362.662Z"/><path class="g" d="M330.337,357.985a.72.72,0,0,0-.426-.079,1.132,1.132,0,0,1-.577-.158.218.218,0,0,0-.217,0,.121.121,0,0,0-.035.024l-.008.009a.217.217,0,0,0,0,.3c.266.232,1.109.5,1.3.06A.121.121,0,0,0,330.337,357.985Z"/><path class="g" d="M338.522,358.858a10.136,10.136,0,0,0-2.3-.083.068.068,0,0,0-.048.116,2.581,2.581,0,0,0,2.353.189A.116.116,0,0,0,338.522,358.858Z"/><path class="g" d="M336.567,363.54a1.837,1.837,0,0,1-.967.176.056.056,0,0,0-.063.082c.23.513.937.307,1.151-.1C336.727,363.621,336.661,363.5,336.567,363.54Z"/><path class="g" d="M347.112,366.059a2.076,2.076,0,0,0-.614.024,3.21,3.21,0,0,0-.827.139.077.077,0,0,0,0,.148,1.61,1.61,0,0,0,1.492-.118A.116.116,0,0,0,347.112,366.059Z"/><path class="g" d="M349.986,370.014a3.445,3.445,0,0,0-.813.122.211.211,0,0,0,0,.4.905.905,0,0,0,.954-.188A.2.2,0,0,0,349.986,370.014Z"/><path class="g" d="M348.884,362.634a1.587,1.587,0,0,0-.7.114.143.143,0,0,0,0,.274.637.637,0,0,0,.782-.2A.131.131,0,0,0,348.884,362.634Z"/><path class="g" d="M349.1,359.233a6.459,6.459,0,0,0-1.059.023c-.364.03-.728-.01-1.088.021a.073.073,0,0,0-.051.122c.458.589,1.681.338,2.256.049C349.271,359.393,349.207,359.242,349.1,359.233Z"/><path class="g" d="M349.064,354.713c-.093-.1-.274-.128-.339-.24a.149.149,0,0,0-.271.035.379.379,0,0,0,.585.4A.127.127,0,0,0,349.064,354.713Z"/><path class="g" d="M344.453,356.481a1.48,1.48,0,0,0-.811-.015.108.108,0,0,0,0,.206,1.48,1.48,0,0,0,.811-.015A.092.092,0,0,0,344.453,356.481Z"/><path class="g" d="M342.493,364.063a.645.645,0,0,0-.448-.178.447.447,0,0,0-.242.057.253.253,0,0,0-.086.086l-.009.013a.179.179,0,0,1,.048-.04.131.131,0,0,0-.075.148.127.127,0,0,0,.015.076.069.069,0,0,0,.009.026.639.639,0,0,0,.05.066.437.437,0,0,0,.29.1.584.584,0,0,0,.448-.178A.123.123,0,0,0,342.493,364.063Z"/><path class="g" d="M341.708,364.041c-.031.033-.041.057,0,0Z"/><path class="g" d="M338.029,355.275a1.632,1.632,0,0,0-.848.115.177.177,0,0,0,0,.338.777.777,0,0,0,.945-.213A.164.164,0,0,0,338.029,355.275Z"/><path class="g" d="M330.571,365.725a.5.5,0,0,1-.209-.209.086.086,0,0,0-.166.045c.029.193.135.331.337.307A.077.077,0,0,0,330.571,365.725Z"/><path class="g" d="M355.866,368.344a.116.116,0,0,0,0,.2,1.033,1.033,0,0,0,.886.146.138.138,0,0,0,.064-.158C356.679,368.143,356.178,368.17,355.866,368.344Z"/><path class="g" d="M358.45,370.247a2.062,2.062,0,0,0-.442-.033,2.188,2.188,0,0,0-.506.146c-.33.124-.113.609.185.439a2.984,2.984,0,0,1,.788-.371C358.582,370.407,358.548,370.254,358.45,370.247Z"/><path class="g" d="M356.808,363.678a6.414,6.414,0,0,0-1.4.3c-.042,0-.042.079,0,.085a2.4,2.4,0,0,0,.76.116.974.974,0,0,0,.721-.365A.093.093,0,0,0,356.808,363.678Z"/><path class="g" d="M361.987,360.414c-.6-.073-1.17.264-1.759.163a.036.036,0,0,0-.027.065,1.638,1.638,0,0,0,1.822-.1A.072.072,0,0,0,361.987,360.414Z"/><path class="g" d="M358.3,355.588q-.528.084-1.054.185a8.443,8.443,0,0,0-1.1.165.132.132,0,0,0,0,.252,3.008,3.008,0,0,0,2.233-.419A.1.1,0,0,0,358.3,355.588Z"/><path class="g" d="M364.159,354.712a3.294,3.294,0,0,0-1.161-.165.128.128,0,0,0-.065.237,1.4,1.4,0,0,0,1.226.106A.093.093,0,0,0,364.159,354.712Z"/><path class="g" d="M368.556,357.1c-.38-.046-.77-.028-1.153-.04a5.6,5.6,0,0,0-1.274.041.1.1,0,0,0,0,.193,4.417,4.417,0,0,0,2.476-.013C368.706,357.241,368.639,357.113,368.556,357.1Z"/><path class="g" d="M362.957,356.609a.606.606,0,0,0-.929.126c-.085.1.024.27.147.192.2-.131.5-.058.729-.114A.124.124,0,0,0,362.957,356.609Z"/><path class="g" d="M366.337,359.8c-.034-.027-.068-.053-.1-.079-.281-.21-.281.476,0,.266.036-.025.07-.051.1-.078A.077.077,0,0,0,366.337,359.8Z"/><path class="g" d="M368.43,364.025a5.778,5.778,0,0,0-.688.126,1.107,1.107,0,0,0-.622.2.063.063,0,0,0,0,.09,1.037,1.037,0,0,0,1.418-.235A.125.125,0,0,0,368.43,364.025Z"/><path class="g" d="M365.1,368.921c-.348.05-.689.116-1.041.137a6.572,6.572,0,0,0-.843.03.119.119,0,0,0-.028.216,2.1,2.1,0,0,0,2.035-.091A.161.161,0,0,0,365.1,368.921Z"/><path class="g" d="M374.3,367.31a4.709,4.709,0,0,1-1.553.731,2.082,2.082,0,0,0-1.191.491.234.234,0,0,0,.163.395,3.487,3.487,0,0,0,1.481-.341,2.455,2.455,0,0,0,1.295-1.081C374.555,367.385,374.419,367.23,374.3,367.31Z"/><path class="g" d="M373.068,361.846a1.206,1.206,0,0,0-1.116.052.235.235,0,0,0,.055.424,1.556,1.556,0,0,0,1.061-.165A.18.18,0,0,0,373.068,361.846Z"/><path class="g" d="M379.484,359.111a1.821,1.821,0,0,0-.693-.173,8.061,8.061,0,0,0-.887-.137.17.17,0,0,0-.085.314,2.121,2.121,0,0,0,1.665.217A.129.129,0,0,0,379.484,359.111Z"/><path class="g" d="M372.549,355.555a1,1,0,0,0-.455-.114.243.243,0,0,0,0,.486,1,1,0,0,0,.455-.112A.152.152,0,0,0,372.549,355.555Z"/><path class="g" d="M375.493,354.559a1.191,1.191,0,0,0-1-.193.182.182,0,0,0,0,.363c.293.032.589.09.883.108A.164.164,0,0,0,375.493,354.559Z"/><path class="g" d="M376.2,358.985c-.227-.112-.72-.129-.7.237a.128.128,0,0,0,.217.09c.058-.059.378-.056.48-.107A.128.128,0,0,0,376.2,358.985Z"/><path class="g" d="M377.2,364.149a.2.2,0,0,0,.374.084.921.921,0,0,0,.117.009.222.222,0,0,0,.2-.111C378.063,363.75,377.165,363.537,377.2,364.149Z"/><path class="g" d="M371.208,358.783a.187.187,0,0,0,0,.373A.187.187,0,0,0,371.208,358.783Z"/><path class="g" d="M381.558,356.659a4.22,4.22,0,0,1-1.461.031,3.651,3.651,0,0,0-1.056-.092c-.084.01-.148.136-.049.182a2.966,2.966,0,0,0,2.6-.051C381.628,356.706,381.6,356.651,381.558,356.659Z"/><path class="g" d="M384.525,360.775c-.3-.225-.758-.108-1.1-.04a.135.135,0,0,0,0,.258c.34.069.8.186,1.1-.039A.1.1,0,0,0,384.525,360.775Z"/><path class="g" d="M382.223,363.182a4.592,4.592,0,0,0-1.666-.192.15.15,0,0,0-.075.277,2.3,2.3,0,0,0,1.741.08A.086.086,0,0,0,382.223,363.182Z"/><path class="g" d="M385.083,362.935c-.131.022-.258.058-.391.081-.154.025-.1.234.034.25a.382.382,0,0,0,.448-.213A.081.081,0,0,0,385.083,362.935Z"/><path class="g" d="M388.876,360.023a.708.708,0,0,1-.3,0,.216.216,0,0,0-.241.313.529.529,0,0,0,.755.18A.273.273,0,0,0,388.876,360.023Z"/><path class="g" d="M385.883,356.893a1.116,1.116,0,0,1-.4.165.27.27,0,0,0,0,.539c.381.043.732-.082.715-.522A.213.213,0,0,0,385.883,356.893Z"/><path class="g" d="M370.115,353.084c-.155-.077-.385-.006-.517-.106-.057-.043-.126.05-.075.1.181.168.36.271.592.158A.087.087,0,0,0,370.115,353.084Z"/><path class="g" d="M361.784,365.233a.934.934,0,0,0-.611-.024.212.212,0,0,0,0,.4.927.927,0,0,0,.611-.022A.188.188,0,0,0,361.784,365.233Z"/><path class="g" d="M353.943,359.28c-.171-.1-.247-.073-.437.006a.066.066,0,0,0,0,.125c.19.078.266.107.437.006A.08.08,0,0,0,353.943,359.28Z"/><path class="g" d="M344.413,370.417c-.3-.267-.752-.131-1.091,0a.12.12,0,0,0,0,.229c.339.127.79.262,1.091,0A.158.158,0,0,0,344.413,370.417Z"/><path class="g" d="M338.966,366.577c-.053,0-.106.009-.16.016a.145.145,0,0,0,0,.29c.054.006.107.012.16.016C339.174,366.913,339.174,366.563,338.966,366.577Z"/><path class="g" d="M330.419,361.583c-.024-.062-.046-.128-.076-.188a.075.075,0,0,0-.128,0c-.029.06-.05.126-.075.188C330.05,361.816,330.509,361.816,330.419,361.583Z"/><path class="g" d="M326.135,359.069a2.861,2.861,0,0,0-.971-.269c-.22-.007-.216.321,0,.338.34.025.625.207.971.109A.093.093,0,0,0,326.135,359.069Z"/><path class="ao" d="M333.935,370.809c2.934,1.461,6.71,2.979,6.065.626a6.725,6.725,0,0,1,.233-3.247c1.672.051,5.042.221,6.544,1.5,2.791,2.377,1.4,5.564,5.316,6.741,4.014,1.209,6.41-3.1,1.928-4.485,4.006-7.589,11.229.206,16.011,1.151,3.714.733,8.594,1.071,11.06-2.57,1.926-2.842.415-5.7,3.651-8.109,1.439-1.07,3.833.713,4.851-1.551,1.041-2.314-1.217-3.561-2.5-4.61-4.57-3.719-14.77-5.494-20.4-6.712-13.541-2.933-28.761-2.465-41.932,1.964-4.724,1.587-10.266,3.958-8.831,9.855,1.735,7.128,9.419,6.125,14.784,7.731C330.79,369.12,332.217,369.955,333.935,370.809Z"/><path class="ap" d="M389.593,360.867c-1.015,2.267-3.41.478-4.85,1.554-3.237,2.4-1.728,5.261-3.654,8.1a6.4,6.4,0,0,1-3.008,2.4c-.221.083-.441.158-.667.226a15.971,15.971,0,0,1-7.383-.06c-4.457-.879-11.044-7.716-15.152-2.479a8.54,8.54,0,0,0-.856,1.335c2.084.645,2.675,1.917,2.319,2.979-.417,1.22-2.1,2.152-4.252,1.5a4.514,4.514,0,0,1-2.107-1.236,4.768,4.768,0,0,1-.7-1.046c-.675-1.379-.872-3.062-2.51-4.456-1.492-1.275-4.842-1.449-6.517-1.5h-.023a9.8,9.8,0,0,0-.342,1.91s0,.008-.007.008a4.2,4.2,0,0,0,.114,1.326c.644,2.357-3.13.834-6.064-.622-1.721-.857-3.146-1.69-3.23-1.713-5.2-1.554-12.573-.667-14.605-7.087,0-.008-.007-.008,0-.015-.067-.205-.128-.409-.181-.629-1.433-5.9,4.108-8.27,8.83-9.861,13.173-4.427,28.393-4.9,41.937-1.963,5.632,1.22,15.834,2.994,20.4,6.715a8.775,8.775,0,0,1,2.5,2.4A2.393,2.393,0,0,1,389.593,360.867Z"/><path class="aq" d="M329.882,352.394c-.9-1.527-6.962,1.482-5.306,4.357,1.251,2.172,6.11,2.561,8.3,2.885,6.329.939,14.742.885,20.842-1.032,1.461-.458,6.1-2.882,4.97-4.653-.982-1.534-6.327-1.459-7.958-1.747Z"/><path class="ar" d="M363.234,349.879c-5.036-9.983-28.253-11.591-33.711-.631-1.6,3.21-1.855,5.138-.519,6.291,1.927,5.4,34.081,2.357,34.958-3.31A8.239,8.239,0,0,0,363.234,349.879Z"/><path class="as" d="M363.959,352.227c-.416,2.69-7.89,4.79-15.826,5.676-8.777.979-18.122.47-19.13-2.364-1.334-1.152-1.077-3.085.522-6.291a9.546,9.546,0,0,1,.509-.9c6.253-9.961,28.309-8.171,33.2,1.53A7.966,7.966,0,0,1,363.959,352.227Z"/><path class="at" d="M363.959,351.659c-.871,5.669-33.031,8.716-34.956,3.312a2.58,2.58,0,0,1-.827-2.433,2.393,2.393,0,0,0,.827,1.584c1.887,5.282,32.766,2.471,34.858-2.964C363.9,351.317,363.929,351.491,363.959,351.659Z"/><path class="au" d="M343.462,352.354c6.889,1.879,13.259.137,19.539-.953a6.591,6.591,0,0,0-.443-1.18c-2.31-4.578-9.365-7.776-17.156-7.776-6.125,0-11.106,1.89-13.865,5.142C333.442,351.193,339.993,351.775,343.462,352.354Z"/><path class="av" d="M369.574,355.762c.711.182,1.113.614,1.957.523-.167.442.008,1.261-.169,1.688,1.561.8,2.728-.253,4-.976,1.35-.764,2.9-.728,4.346-1.452,4.286-2.14-4.362-1.034-5.363-2.3-.2.155-.27.345-.454.457a3.339,3.339,0,0,0-1.223-2.018,9.485,9.485,0,0,0,2.56.653c-.823-1.5-3.98-1.392-5.483-1.021,1.517.35,1.766,1.756,2.866,2.634A2.585,2.585,0,0,0,369.574,355.762Z"/><path class="au" d="M374.887,362.008c1.477.9,4.224-1.788,6.029-1.972,1.3-.132,5.168,1.17,5.351-1.225.209-.05.5.046.682-.075,1.033-.679-3.969-2.5-4.222-2.563.431.629.778,1.551,1.14,2.163C380.975,358.266,375.255,357.15,374.887,362.008Z"/><path class="aw" d="M377.861,366.151a4.642,4.642,0,0,0-.318.455c-.768,1.256-.193,2.544,1.174,1.742-.722-1.3-2.382-1.934-3.639-2.69A7.63,7.63,0,0,0,377.861,366.151Z"/><path class="au" d="M368.505,363.057a7.21,7.21,0,0,0-.435,2.247c1.189.12,4.223,1.876,4.711.235.589-1.98-2.663-1.226-3.454-1.908,1.192-.459,2.437-.416,3.282-1.327-.338.366-7.86-3.97-8.518-.264C365.447,362.881,367.119,362.286,368.505,363.057Z"/><path class="av" d="M369.042,358.774c1.318.539,1.833,1.354,2.981,2.248-1.089-.849-.572-2.088-2.479-2.858a10.827,10.827,0,0,0-3.8-.585C366.65,358.608,367.852,358.288,369.042,358.774Z"/><path class="ax" d="M356.694,366.618c1.223.709,5.476,2.533,6,.537-2.446-.142-3.643-.278-5.553-1.558.217.145.983-.707,1.1-.882-1.021-.994-5.036-1.745-5.547.013C353.871,364.827,357.766,364.263,356.694,366.618Z"/><path class="au" d="M377.348,369.941a11.883,11.883,0,0,0-2.369-.5c-2.12-.254-4.335-.2-6.175-1.084-.695-.333-1.061-.247-1.722-.737-.445-.329-.69-1.322-.964-1.835.894,1.873,2.328,4.05,4.211,5.032C371.923,371.653,377.252,372.844,377.348,369.941Z"/><path class="au" d="M333.166,364.837c-.837-.172-2.4.3-1.73,1.465.419.725,2.764.257,3.5.495,1.039.338,4.025,1.671,4.5,2.5a7.459,7.459,0,0,0-.758-2.645c-2.319-.159-4.046.52-5.494-1.832a1.714,1.714,0,0,1,1.243-.233Z"/><path class="au" d="M320.281,354.226c-1.379.049-2.738,2.381-2.286,3.8.245.767,1.4.811,1.73,1.511.352.76.053,1.487.317,2.267.524,1.55.512,1.8,2.514,2.272a6.1,6.1,0,0,0,4.521-.3c-2.037-1.488-4.652.362-5.242-3.184.422-.133.671-.52,1.186-.6-.107-1.614-2.454-1.777-2.759-3.236-.379-1.819,1.7-2.117,2.293-3.543Z"/><path class="ay" d="M338.977,363.316c2.776-.037,5.854-.136,8.8-.286.005-2.26-5.844-.712-7.539-.719-2.133-.01-4.711-2.462-6.438-.028C334.909,363.824,337.273,363.338,338.977,363.316Z"/><path class="e" d="M327.145,366.241a.093.093,0,0,0-.044-.015c-.023-.037-.046-.075-.068-.114A.976.976,0,0,1,327.145,366.241Z"/><path class="e" d="M340,371.434c.644,2.357-3.13.834-6.064-.622-1.721-.857-3.146-1.69-3.23-1.713-5.2-1.554-12.573-.667-14.605-7.087a1.787,1.787,0,0,0,.174.227c1.933,2.289,4.791,2.767,7.519,3.009-.159-.833-1.129-1.242-1.667-1.826a3.36,3.36,0,0,1,2.054-.447c-.3-.288-.447-.941-.712-1.251.015-.007.341-.242.348-.258,1.494.523,3.57.736,4.67,2.115-2.8-.137-4.624,1.349-1.387,2.645.583.857,2.531,1.252,3.494,1.751,1.106.561,2.432,1.751,3.637,2.047.773.181,1.592-.3,2.282-.2.751.106,1.41.758,2.039.811a1.582,1.582,0,0,0,1.334-.522A4.2,4.2,0,0,0,340,371.434Z"/><path class="e" d="M349.922,371.047c-.144-.258-.507,1.818-.5,1.751a8.432,8.432,0,0,0-.136,1.349c-.675-1.379-.872-3.062-2.51-4.456-1.492-1.275-4.842-1.449-6.517-1.5a2.39,2.39,0,0,0-.312-.6C343.071,367.378,349.051,367.1,349.922,371.047Z"/><path class="e" d="M356.342,374.928c-.417,1.22-2.1,2.152-4.252,1.5a4.514,4.514,0,0,1-2.107-1.236c.811.319,2.032.03,2.782.166.894.16.917.978,1.947.774C355.357,376,355.592,374.95,356.342,374.928Z"/><path class="e" d="M377.414,373.153a15.971,15.971,0,0,1-7.383-.06c-4.457-.879-11.044-7.716-15.152-2.479-1.039.069-2.046.145-2.979.16,2.767-.409,4.04-3.207,6.6-3.6,1.091-.167,2.97.6,3.979.947.978.342.773.091,1.524.766.348.31.454,1.092.985,1.463,1.054.735,2.584.326,3.752,1.038,1.554.932,1.1,1.3,3.213,1.084C373.351,372.335,376.474,371.752,377.414,373.153Z"/><path class="e" d="M389.593,360.867c-1.015,2.267-3.41.478-4.85,1.554-3.237,2.4-1.728,5.261-3.654,8.1a6.4,6.4,0,0,1-3.008,2.4c.371-1.744,2.061-2.789-.077-4.086-1.69-1.024-3.827-.023-5.472-.841-1.629-.811-.864-1.751.622-1.584,1.8.2,5.973,3.956,7.329,2.092a11.459,11.459,0,0,0,.947-3.8c-.212-1.909-2.038-2.152-3.585-2.114.8-1.63,1.964-1.107,3.343-1.054,1.554.062,2.456-.856,4.024-.856,1.539.007,2.237,1.477,3.783-.19a2.734,2.734,0,0,0,.6-1.835A2.393,2.393,0,0,1,389.593,360.867Z"/><path class="e" d="M348.133,357.9c-8.777.979-18.122.47-19.13-2.364-1.334-1.152-1.077-3.085.522-6.291a9.546,9.546,0,0,1,.509-.9,7.475,7.475,0,0,0,2.637,4.115C336.658,355.7,343.229,356.631,348.133,357.9Z"/><path class="e" d="M356.512,366.432a1.85,1.85,0,0,0-.872-.261.994.994,0,0,1,.119-.34c.146-.191-.021-.433-.205-.5a5.039,5.039,0,0,0-3.221-.4c-.293.114-.4.65,0,.707a16.423,16.423,0,0,1,1.806.283,3.553,3.553,0,0,0,.93.136.559.559,0,0,1-.06.21.306.306,0,0,0,.11.419,1.27,1.27,0,0,0,1.393.1A.2.2,0,0,0,356.512,366.432Z"/><path class="e" d="M370.172,363.127c-.616.118-.981.57-1.665.464a6.721,6.721,0,0,1-1.965-.862c-.655-.345-1.773-.995-2.442-.371a.113.113,0,0,0,0,.158,5.086,5.086,0,0,0,1.69.908c.652.322,1.275.684,1.95.961.978.4,2.629.29,2.77-1C370.53,363.2,370.325,363.1,370.172,363.127Z"/><path class="e" d="M370.58,360.358c-.9-1.343-3.069-1.169-4.47-1.463a.137.137,0,0,0-.132.227c.977,1.19,2.841.742,3.849,1.818C370.2,361.335,370.885,360.815,370.58,360.358Z"/><path class="e" d="M380.417,355.2a6.234,6.234,0,0,0-4.7-.765,3.051,3.051,0,0,1-3.259-1.166,2.478,2.478,0,0,0-1.432-.955.084.084,0,0,0-.093.122c.438,1.019,1.328,2.725,2.54,3.018a8.084,8.084,0,0,0,3.033-.05c1.328-.174,2.542.5,3.852.273C380.606,355.634,380.573,355.319,380.417,355.2Z"/><path class="e" d="M377.416,361.136c-.181.005-.358.038-.538.033.115,0-.087-.021-.1-.023a.293.293,0,0,0-.044-.008.917.917,0,0,0-.168-.11c-.04-.023-.261-.128-.125-.059a.478.478,0,0,0-.542.042c-.385.347-.1.893.192,1.193a1.336,1.336,0,0,0,1.641.118A.641.641,0,0,0,377.416,361.136Z"/><path class="e" d="M376.212,366.079c-.446-.324-1.112-.5-1.483,0a.3.3,0,0,0,0,.293c.176.361.631.521.934.766.373.3.728.707,1.253.6a.442.442,0,0,0,.329-.431C377.192,366.751,376.63,366.386,376.212,366.079Z"/><path class="e" d="M369.267,359.272a9.7,9.7,0,0,1-1.361-.423,9.285,9.285,0,0,1-1.1-.667.322.322,0,0,0-.47.36,2.782,2.782,0,0,0,2.933,1.745C369.816,360.2,369.722,359.413,369.267,359.272Z"/><path class="e" d="M345.031,363.394c-1.292-1.012-2.386.24-3.818.321-.929.053-1.974-.559-2.882-.735-1.005-.2-1.94.287-2.954.173-.05-.005-.05.065-.011.081a6.772,6.772,0,0,0,2.285.5,16.2,16.2,0,0,1,2.9.8c1.483.395,2.855-.592,4.3-.712C345.044,363.812,345.226,363.544,345.031,363.394Z"/><path class="e" d="M319.622,359.9a1,1,0,0,0-.8-.7c-1.29-.306-.911-1.5-1.313-2.482-.04-.1-.192-.152-.249-.033A2.481,2.481,0,0,0,317.89,360c.572.369.9.143.3.943a1.624,1.624,0,0,0-.489,1.374.259.259,0,0,0,.374.152C318.924,362.06,319.9,360.915,319.622,359.9Z"/></g></g></svg>