<svg xmlns="http://www.w3.org/2000/svg" xmlns:xlink="http://www.w3.org/1999/xlink" width="96.419" height="96.42" viewBox="0 0 96.419 96.42"><defs><style>.a{fill:url(#a);}</style><linearGradient id="a" x1="0.5" x2="0.5" y2="1" gradientUnits="objectBoundingBox"><stop offset="0" stop-color="#db750a"/><stop offset="1" stop-color="#db4300"/></linearGradient></defs><g transform="translate(-111.287 -33.588)"><path class="a" d="M159.5,33.588a48.21,48.21,0,1,0,48.21,48.21A48.264,48.264,0,0,0,159.5,33.588Zm0,91.829A43.619,43.619,0,1,1,203.115,81.8,43.668,43.668,0,0,1,159.5,125.417Z" transform="translate(0 0)"/><path class="a" d="M196.989,90.45,173,114.438,156.832,98.27a2.3,2.3,0,1,0-3.247,3.247l17.792,17.792a2.3,2.3,0,0,0,3.247,0,2.058,2.058,0,0,1,.574-.574L200.236,93.7a2.3,2.3,0,0,0-3.247-3.247Z" transform="translate(-15.89 -21.449)"/></g></svg>